%TF.GenerationSoftware,KiCad,Pcbnew,9.0.3*%
%TF.CreationDate,2026-07-21T21:09:42+02:00*%
%TF.ProjectId,Arduino_shield_2.0,41726475-696e-46f5-9f73-6869656c645f,B*%
%TF.SameCoordinates,Original*%
%TF.FileFunction,Plated,1,2,PTH,Drill*%
%TF.FilePolarity,Positive*%
%FSLAX46Y46*%
G04 Gerber Fmt 4.6, Leading zero omitted, Abs format (unit mm)*
G04 Created by KiCad (PCBNEW 9.0.3) date 2026-07-21 21:09:42*
%MOMM*%
%LPD*%
G01*
G04 APERTURE LIST*
%TA.AperFunction,ViaDrill*%
%ADD10C,0.400000*%
%TD*%
%TA.AperFunction,ComponentDrill*%
%ADD11C,0.740000*%
%TD*%
%TA.AperFunction,ComponentDrill*%
%ADD12C,0.800000*%
%TD*%
%TA.AperFunction,ComponentDrill*%
%ADD13C,1.000000*%
%TD*%
%TA.AperFunction,ComponentDrill*%
%ADD14C,1.100000*%
%TD*%
%TA.AperFunction,ComponentDrill*%
%ADD15C,1.200000*%
%TD*%
%TA.AperFunction,ComponentDrill*%
%ADD16C,3.124100*%
%TD*%
G04 APERTURE END LIST*
D10*
X152750000Y-77000000D03*
X155000000Y-77750000D03*
X156428000Y-84400000D03*
X157315000Y-90870000D03*
X159250000Y-85500000D03*
X159500000Y-82750000D03*
X161302759Y-78462241D03*
X162250000Y-88500000D03*
X162452325Y-117989325D03*
X163209000Y-76110000D03*
X163652000Y-107236000D03*
X163667000Y-120982000D03*
X163993000Y-90612000D03*
X164500000Y-74000000D03*
X165400000Y-93500000D03*
X165400000Y-105500000D03*
X165800000Y-109000000D03*
X166839417Y-88698857D03*
X167500000Y-73500000D03*
X167500000Y-75750000D03*
X167500000Y-85750000D03*
X167753701Y-89102701D03*
X168600000Y-118000000D03*
X170059000Y-120513500D03*
X171500000Y-96250000D03*
X171700000Y-120170000D03*
X172197000Y-70233000D03*
X172552000Y-92441000D03*
X172753000Y-113134000D03*
X173200000Y-81200000D03*
X173207701Y-73183701D03*
X173500000Y-96750000D03*
X173573000Y-95063000D03*
X174733000Y-94338500D03*
X174745000Y-96590000D03*
X175221000Y-115180000D03*
X175779000Y-90181000D03*
X176200000Y-96600000D03*
X176903000Y-103273000D03*
X177350000Y-115424000D03*
X177541000Y-97364000D03*
X177559000Y-91359500D03*
X177885000Y-100752000D03*
X178211000Y-107170000D03*
X178611000Y-97968000D03*
X178661500Y-102037000D03*
X178661500Y-111063000D03*
X179064000Y-114012500D03*
X179186000Y-92808500D03*
X179189000Y-89367000D03*
X182700000Y-92700000D03*
X183200000Y-88200000D03*
X183236500Y-102986500D03*
X185550465Y-115550465D03*
X186600000Y-86400000D03*
X186687500Y-93335500D03*
X186687500Y-99500000D03*
X187147000Y-100673000D03*
X187345000Y-101952500D03*
X187700000Y-83900000D03*
X188208500Y-92158000D03*
X188500000Y-103977000D03*
X188500000Y-108250000D03*
X188651000Y-99406000D03*
X188865000Y-106197000D03*
X189137124Y-93431124D03*
X189250354Y-104750354D03*
X189913000Y-94307000D03*
X190550000Y-98709000D03*
X190906500Y-115306500D03*
X191175500Y-102027000D03*
X191379000Y-77425000D03*
X191488500Y-100929301D03*
X191700000Y-88800000D03*
X192000000Y-117600000D03*
X192052500Y-76281000D03*
X192052500Y-84570000D03*
X192100000Y-87300000D03*
X192250000Y-106500000D03*
X192326000Y-100376000D03*
X192425000Y-70285000D03*
X192750000Y-108500000D03*
X193213000Y-90449000D03*
X193500000Y-117250000D03*
X193800000Y-86300000D03*
X194400000Y-88800000D03*
X194500000Y-108500000D03*
X195000000Y-110000000D03*
X195000000Y-114000000D03*
X195750000Y-101000000D03*
X195750000Y-109000000D03*
X195866000Y-91033000D03*
X196000000Y-72250000D03*
X196400000Y-86800000D03*
X196400000Y-118200000D03*
X196541299Y-117123299D03*
X197318847Y-107318847D03*
X197500000Y-103750000D03*
X197737500Y-88041500D03*
X198117000Y-92615000D03*
X198700000Y-86800000D03*
X199195000Y-119326000D03*
X199800000Y-91600000D03*
X200632000Y-118687500D03*
X200729349Y-91045051D03*
X200900000Y-87400000D03*
X201250000Y-72500000D03*
X201780000Y-90244500D03*
X201905000Y-94008500D03*
X202178849Y-91189740D03*
X202218000Y-85276000D03*
X202684000Y-102823000D03*
X202750000Y-104250000D03*
X203100000Y-96100000D03*
X203145000Y-83507000D03*
X203148000Y-94008500D03*
X203394000Y-102116500D03*
X203500000Y-107500000D03*
X203968000Y-114868000D03*
X203983724Y-118698825D03*
X204355000Y-88795000D03*
X204689000Y-93366000D03*
X204984000Y-97117500D03*
X205008000Y-108338000D03*
X205762000Y-107112000D03*
X205762000Y-112539000D03*
X206000000Y-73000000D03*
X206319000Y-91171000D03*
X206402000Y-116587000D03*
X207200000Y-101000000D03*
X207500000Y-113000000D03*
X207949000Y-83498000D03*
X208000000Y-110500000D03*
X208100000Y-99100000D03*
X208300000Y-96500000D03*
X208309000Y-91405000D03*
X208629000Y-79441000D03*
X208750000Y-101000000D03*
X209451000Y-94262000D03*
X209500000Y-117250000D03*
X209571000Y-115223000D03*
X209750000Y-87000000D03*
X210181000Y-104466000D03*
X210181000Y-109500000D03*
X210900000Y-91500000D03*
X211100000Y-93900000D03*
X211665912Y-114578995D03*
X212000000Y-83500000D03*
X212300000Y-74600000D03*
X212392000Y-98995000D03*
X214100000Y-72600000D03*
X214100000Y-90800000D03*
X214200000Y-103700000D03*
X214926000Y-115638000D03*
X215900000Y-90100000D03*
X216000000Y-110750000D03*
X216384864Y-84119424D03*
X216400000Y-104500000D03*
X216756000Y-80767000D03*
X217078046Y-74616536D03*
X217122000Y-73618000D03*
X217216500Y-83565000D03*
X217361000Y-121485000D03*
X217672000Y-71266000D03*
X217941000Y-101026000D03*
X217941000Y-117645000D03*
X219200000Y-91000000D03*
X221000000Y-120000000D03*
X221790000Y-90187000D03*
X222900000Y-121000000D03*
X224800000Y-111200000D03*
X225000000Y-119800000D03*
X226321500Y-96406000D03*
X227500000Y-93750000D03*
X227500000Y-102750000D03*
D11*
%TO.C,R6*%
X170057676Y-111124091D03*
X173457676Y-111124091D03*
%TO.C,RV4*%
X198094000Y-77553000D03*
X198094000Y-82633000D03*
X200634000Y-80093000D03*
D12*
%TO.C,U11*%
X177059000Y-75927000D03*
X177059000Y-78467000D03*
X177059000Y-81007000D03*
X177059000Y-83547000D03*
X184679000Y-75927000D03*
X184679000Y-78467000D03*
X184679000Y-81007000D03*
X184679000Y-83547000D03*
D13*
%TO.C,GND*%
X153603000Y-81710000D03*
X153603000Y-84250000D03*
%TO.C,J1*%
X169478000Y-93599000D03*
X169478000Y-96139000D03*
X169478000Y-98679000D03*
%TO.C,A1*%
X170745000Y-71240000D03*
X173285000Y-71240000D03*
X175825000Y-71240000D03*
%TO.C,J10*%
X177127000Y-86992000D03*
%TO.C,A1*%
X178365000Y-71240000D03*
%TO.C,J10*%
X179667000Y-86992000D03*
%TO.C,A1*%
X179885000Y-119500000D03*
X180905000Y-71240000D03*
X182425000Y-119500000D03*
%TO.C,J5*%
X182663000Y-110748000D03*
X182663000Y-113288000D03*
%TO.C,A1*%
X183445000Y-71240000D03*
X184965000Y-119500000D03*
%TO.C,J5*%
X185203000Y-110748000D03*
X185203000Y-113288000D03*
%TO.C,A1*%
X185985000Y-71240000D03*
X187505000Y-119500000D03*
%TO.C,J5*%
X187743000Y-110748000D03*
X187743000Y-113288000D03*
%TO.C,J11*%
X188340000Y-78507000D03*
X188340000Y-81047000D03*
%TO.C,A1*%
X188525000Y-71240000D03*
X190045000Y-119500000D03*
%TO.C,J5*%
X190283000Y-110748000D03*
X190283000Y-113288000D03*
%TO.C,A1*%
X191065000Y-71240000D03*
X192585000Y-119500000D03*
%TO.C,J5*%
X192823000Y-110748000D03*
X192823000Y-113288000D03*
%TO.C,A1*%
X193605000Y-71240000D03*
%TO.C,J2*%
X194009000Y-78590500D03*
X194009000Y-81130500D03*
%TO.C,A1*%
X195125000Y-119500000D03*
X197665000Y-71240000D03*
X197665000Y-119500000D03*
X200205000Y-71240000D03*
X202745000Y-71240000D03*
X202745000Y-119500000D03*
X205285000Y-71240000D03*
X205285000Y-119500000D03*
%TO.C,J4*%
X205536000Y-75413500D03*
X205536000Y-77953500D03*
%TO.C,J7*%
X205536000Y-81703500D03*
X205536000Y-84243500D03*
%TO.C,A1*%
X207825000Y-71240000D03*
X207825000Y-119500000D03*
X210365000Y-71240000D03*
X210365000Y-119500000D03*
%TO.C,J6*%
X211534000Y-87788000D03*
%TO.C,J3*%
X212160000Y-77828000D03*
%TO.C,A1*%
X212905000Y-71240000D03*
X212905000Y-119500000D03*
%TO.C,J6*%
X214074000Y-87788000D03*
%TO.C,J3*%
X214700000Y-77828000D03*
%TO.C,A1*%
X215445000Y-71240000D03*
X215445000Y-119500000D03*
%TO.C,J9*%
X215860000Y-93562000D03*
X215860000Y-96102000D03*
X215860000Y-98642000D03*
%TO.C,J12*%
X225297000Y-73250000D03*
X225297000Y-75790000D03*
X225297000Y-78330000D03*
%TO.C,J13*%
X225346000Y-82994000D03*
X225346000Y-85534000D03*
X225346000Y-88074000D03*
D14*
%TO.C,J8*%
X153750000Y-73243000D03*
X156290000Y-73243000D03*
X158830000Y-73243000D03*
X161370000Y-73243000D03*
D15*
%TO.C,RV1*%
X165500000Y-96735000D03*
X165500000Y-99235000D03*
X165500000Y-101735000D03*
%TO.C,RV2*%
X165500000Y-111935000D03*
X165500000Y-114435000D03*
X165500000Y-116935000D03*
%TO.C,RV3*%
X213760000Y-107860000D03*
X213760000Y-110360000D03*
X213760000Y-112860000D03*
D16*
%TO.C,RV1*%
X158500000Y-94935000D03*
X158500000Y-103535000D03*
%TO.C,RV2*%
X158500000Y-110135000D03*
X158500000Y-118735000D03*
%TO.C,RV3*%
X220760000Y-106060000D03*
X220760000Y-114660000D03*
M02*
