%TF.GenerationSoftware,KiCad,Pcbnew,9.0.3*%
%TF.CreationDate,2026-07-21T21:09:42+02:00*%
%TF.ProjectId,Arduino_shield_2.0,41726475-696e-46f5-9f73-6869656c645f,B*%
%TF.SameCoordinates,Original*%
%TF.FileFunction,Drillmap*%
%TF.FilePolarity,Positive*%
%FSLAX45Y45*%
G04 Gerber Fmt 4.5, Leading zero omitted, Abs format (unit mm)*
G04 Created by KiCad (PCBNEW 9.0.3) date 2026-07-21 21:09:42*
%MOMM*%
%LPD*%
G01*
G04 APERTURE LIST*
%ADD10C,0.200000*%
%ADD11C,0.100000*%
%ADD12C,0.110000*%
%ADD13C,0.120000*%
%ADD14C,0.312410*%
G04 APERTURE END LIST*
D10*
X15185000Y-6838300D02*
X22802400Y-6838300D01*
X22802400Y-12237700D01*
X15185000Y-12237700D01*
X15185000Y-6838300D01*
D11*
X15255000Y-7680000D02*
X15295000Y-7720000D01*
X15295000Y-7680000D02*
X15255000Y-7720000D01*
X15480000Y-7755000D02*
X15520000Y-7795000D01*
X15520000Y-7755000D02*
X15480000Y-7795000D01*
X15622800Y-8420000D02*
X15662800Y-8460000D01*
X15662800Y-8420000D02*
X15622800Y-8460000D01*
X15711500Y-9067000D02*
X15751500Y-9107000D01*
X15751500Y-9067000D02*
X15711500Y-9107000D01*
X15905000Y-8530000D02*
X15945000Y-8570000D01*
X15945000Y-8530000D02*
X15905000Y-8570000D01*
X15930000Y-8255000D02*
X15970000Y-8295000D01*
X15970000Y-8255000D02*
X15930000Y-8295000D01*
X16110276Y-7826224D02*
X16150276Y-7866224D01*
X16150276Y-7826224D02*
X16110276Y-7866224D01*
X16205000Y-8830000D02*
X16245000Y-8870000D01*
X16245000Y-8830000D02*
X16205000Y-8870000D01*
X16225232Y-11778932D02*
X16265232Y-11818932D01*
X16265232Y-11778932D02*
X16225232Y-11818932D01*
X16300900Y-7591000D02*
X16340900Y-7631000D01*
X16340900Y-7591000D02*
X16300900Y-7631000D01*
X16345200Y-10703600D02*
X16385200Y-10743600D01*
X16385200Y-10703600D02*
X16345200Y-10743600D01*
X16346700Y-12078200D02*
X16386700Y-12118200D01*
X16386700Y-12078200D02*
X16346700Y-12118200D01*
X16379300Y-9041200D02*
X16419300Y-9081200D01*
X16419300Y-9041200D02*
X16379300Y-9081200D01*
X16430000Y-7380000D02*
X16470000Y-7420000D01*
X16470000Y-7380000D02*
X16430000Y-7420000D01*
X16520000Y-9330000D02*
X16560000Y-9370000D01*
X16560000Y-9330000D02*
X16520000Y-9370000D01*
X16520000Y-10530000D02*
X16560000Y-10570000D01*
X16560000Y-10530000D02*
X16520000Y-10570000D01*
X16560000Y-10880000D02*
X16600000Y-10920000D01*
X16600000Y-10880000D02*
X16560000Y-10920000D01*
X16663942Y-8849886D02*
X16703942Y-8889886D01*
X16703942Y-8849886D02*
X16663942Y-8889886D01*
X16730000Y-7330000D02*
X16770000Y-7370000D01*
X16770000Y-7330000D02*
X16730000Y-7370000D01*
X16730000Y-7555000D02*
X16770000Y-7595000D01*
X16770000Y-7555000D02*
X16730000Y-7595000D01*
X16730000Y-8555000D02*
X16770000Y-8595000D01*
X16770000Y-8555000D02*
X16730000Y-8595000D01*
X16755370Y-8890270D02*
X16795370Y-8930270D01*
X16795370Y-8890270D02*
X16755370Y-8930270D01*
X16840000Y-11780000D02*
X16880000Y-11820000D01*
X16880000Y-11780000D02*
X16840000Y-11820000D01*
X16985900Y-12031350D02*
X17025900Y-12071350D01*
X17025900Y-12031350D02*
X16985900Y-12071350D01*
X17130000Y-9605000D02*
X17170000Y-9645000D01*
X17170000Y-9605000D02*
X17130000Y-9645000D01*
X17150000Y-11997000D02*
X17190000Y-12037000D01*
X17190000Y-11997000D02*
X17150000Y-12037000D01*
X17199700Y-7003300D02*
X17239700Y-7043300D01*
X17239700Y-7003300D02*
X17199700Y-7043300D01*
X17235200Y-9224100D02*
X17275200Y-9264100D01*
X17275200Y-9224100D02*
X17235200Y-9264100D01*
X17255300Y-11293400D02*
X17295300Y-11333400D01*
X17295300Y-11293400D02*
X17255300Y-11333400D01*
X17300000Y-8100000D02*
X17340000Y-8140000D01*
X17340000Y-8100000D02*
X17300000Y-8140000D01*
X17300770Y-7298370D02*
X17340770Y-7338370D01*
X17340770Y-7298370D02*
X17300770Y-7338370D01*
X17330000Y-9655000D02*
X17370000Y-9695000D01*
X17370000Y-9655000D02*
X17330000Y-9695000D01*
X17337300Y-9486300D02*
X17377300Y-9526300D01*
X17377300Y-9486300D02*
X17337300Y-9526300D01*
X17453300Y-9413850D02*
X17493300Y-9453850D01*
X17493300Y-9413850D02*
X17453300Y-9453850D01*
X17454500Y-9639000D02*
X17494500Y-9679000D01*
X17494500Y-9639000D02*
X17454500Y-9679000D01*
X17502100Y-11498000D02*
X17542100Y-11538000D01*
X17542100Y-11498000D02*
X17502100Y-11538000D01*
X17557900Y-8998100D02*
X17597900Y-9038100D01*
X17597900Y-8998100D02*
X17557900Y-9038100D01*
X17600000Y-9640000D02*
X17640000Y-9680000D01*
X17640000Y-9640000D02*
X17600000Y-9680000D01*
X17670300Y-10307300D02*
X17710300Y-10347300D01*
X17710300Y-10307300D02*
X17670300Y-10347300D01*
X17715000Y-11522400D02*
X17755000Y-11562400D01*
X17755000Y-11522400D02*
X17715000Y-11562400D01*
X17734100Y-9716400D02*
X17774100Y-9756400D01*
X17774100Y-9716400D02*
X17734100Y-9756400D01*
X17735900Y-9115950D02*
X17775900Y-9155950D01*
X17775900Y-9115950D02*
X17735900Y-9155950D01*
X17768500Y-10055200D02*
X17808500Y-10095200D01*
X17808500Y-10055200D02*
X17768500Y-10095200D01*
X17801100Y-10697000D02*
X17841100Y-10737000D01*
X17841100Y-10697000D02*
X17801100Y-10737000D01*
X17841100Y-9776800D02*
X17881100Y-9816800D01*
X17881100Y-9776800D02*
X17841100Y-9816800D01*
X17846150Y-10183700D02*
X17886150Y-10223700D01*
X17886150Y-10183700D02*
X17846150Y-10223700D01*
X17846150Y-11086300D02*
X17886150Y-11126300D01*
X17886150Y-11086300D02*
X17846150Y-11126300D01*
X17886400Y-11381250D02*
X17926400Y-11421250D01*
X17926400Y-11381250D02*
X17886400Y-11421250D01*
X17898600Y-9260850D02*
X17938600Y-9300850D01*
X17938600Y-9260850D02*
X17898600Y-9300850D01*
X17898900Y-8916700D02*
X17938900Y-8956700D01*
X17938900Y-8916700D02*
X17898900Y-8956700D01*
X18250000Y-9250000D02*
X18290000Y-9290000D01*
X18290000Y-9250000D02*
X18250000Y-9290000D01*
X18300000Y-8800000D02*
X18340000Y-8840000D01*
X18340000Y-8800000D02*
X18300000Y-8840000D01*
X18303650Y-10278650D02*
X18343650Y-10318650D01*
X18343650Y-10278650D02*
X18303650Y-10318650D01*
X18535047Y-11535046D02*
X18575047Y-11575046D01*
X18575047Y-11535046D02*
X18535047Y-11575046D01*
X18640000Y-8620000D02*
X18680000Y-8660000D01*
X18680000Y-8620000D02*
X18640000Y-8660000D01*
X18648750Y-9313550D02*
X18688750Y-9353550D01*
X18688750Y-9313550D02*
X18648750Y-9353550D01*
X18648750Y-9930000D02*
X18688750Y-9970000D01*
X18688750Y-9930000D02*
X18648750Y-9970000D01*
X18694700Y-10047300D02*
X18734700Y-10087300D01*
X18734700Y-10047300D02*
X18694700Y-10087300D01*
X18714500Y-10175250D02*
X18754500Y-10215250D01*
X18754500Y-10175250D02*
X18714500Y-10215250D01*
X18750000Y-8370000D02*
X18790000Y-8410000D01*
X18790000Y-8370000D02*
X18750000Y-8410000D01*
X18800850Y-9195800D02*
X18840850Y-9235800D01*
X18840850Y-9195800D02*
X18800850Y-9235800D01*
X18830000Y-10377700D02*
X18870000Y-10417700D01*
X18870000Y-10377700D02*
X18830000Y-10417700D01*
X18830000Y-10805000D02*
X18870000Y-10845000D01*
X18870000Y-10805000D02*
X18830000Y-10845000D01*
X18845100Y-9920600D02*
X18885100Y-9960600D01*
X18885100Y-9920600D02*
X18845100Y-9960600D01*
X18866500Y-10599700D02*
X18906500Y-10639700D01*
X18906500Y-10599700D02*
X18866500Y-10639700D01*
X18893712Y-9323112D02*
X18933712Y-9363112D01*
X18933712Y-9323112D02*
X18893712Y-9363112D01*
X18905035Y-10455035D02*
X18945035Y-10495035D01*
X18945035Y-10455035D02*
X18905035Y-10495035D01*
X18971300Y-9410700D02*
X19011300Y-9450700D01*
X19011300Y-9410700D02*
X18971300Y-9450700D01*
X19035000Y-9850900D02*
X19075000Y-9890900D01*
X19075000Y-9850900D02*
X19035000Y-9890900D01*
X19070650Y-11510650D02*
X19110650Y-11550650D01*
X19110650Y-11510650D02*
X19070650Y-11550650D01*
X19097550Y-10182700D02*
X19137550Y-10222700D01*
X19137550Y-10182700D02*
X19097550Y-10222700D01*
X19117900Y-7722500D02*
X19157900Y-7762500D01*
X19157900Y-7722500D02*
X19117900Y-7762500D01*
X19128850Y-10072930D02*
X19168850Y-10112930D01*
X19168850Y-10072930D02*
X19128850Y-10112930D01*
X19150000Y-8860000D02*
X19190000Y-8900000D01*
X19190000Y-8860000D02*
X19150000Y-8900000D01*
X19180000Y-11740000D02*
X19220000Y-11780000D01*
X19220000Y-11740000D02*
X19180000Y-11780000D01*
X19185250Y-7608100D02*
X19225250Y-7648100D01*
X19225250Y-7608100D02*
X19185250Y-7648100D01*
X19185250Y-8437000D02*
X19225250Y-8477000D01*
X19225250Y-8437000D02*
X19185250Y-8477000D01*
X19190000Y-8710000D02*
X19230000Y-8750000D01*
X19230000Y-8710000D02*
X19190000Y-8750000D01*
X19205000Y-10630000D02*
X19245000Y-10670000D01*
X19245000Y-10630000D02*
X19205000Y-10670000D01*
X19212600Y-10017600D02*
X19252600Y-10057600D01*
X19252600Y-10017600D02*
X19212600Y-10057600D01*
X19222500Y-7008500D02*
X19262500Y-7048500D01*
X19262500Y-7008500D02*
X19222500Y-7048500D01*
X19255000Y-10830000D02*
X19295000Y-10870000D01*
X19295000Y-10830000D02*
X19255000Y-10870000D01*
X19301300Y-9024900D02*
X19341300Y-9064900D01*
X19341300Y-9024900D02*
X19301300Y-9064900D01*
X19330000Y-11705000D02*
X19370000Y-11745000D01*
X19370000Y-11705000D02*
X19330000Y-11745000D01*
X19360000Y-8610000D02*
X19400000Y-8650000D01*
X19400000Y-8610000D02*
X19360000Y-8650000D01*
X19420000Y-8860000D02*
X19460000Y-8900000D01*
X19460000Y-8860000D02*
X19420000Y-8900000D01*
X19430000Y-10830000D02*
X19470000Y-10870000D01*
X19470000Y-10830000D02*
X19430000Y-10870000D01*
X19480000Y-10980000D02*
X19520000Y-11020000D01*
X19520000Y-10980000D02*
X19480000Y-11020000D01*
X19480000Y-11380000D02*
X19520000Y-11420000D01*
X19520000Y-11380000D02*
X19480000Y-11420000D01*
X19555000Y-10080000D02*
X19595000Y-10120000D01*
X19595000Y-10080000D02*
X19555000Y-10120000D01*
X19555000Y-10880000D02*
X19595000Y-10920000D01*
X19595000Y-10880000D02*
X19555000Y-10920000D01*
X19566600Y-9083300D02*
X19606600Y-9123300D01*
X19606600Y-9083300D02*
X19566600Y-9123300D01*
X19580000Y-7205000D02*
X19620000Y-7245000D01*
X19620000Y-7205000D02*
X19580000Y-7245000D01*
X19620000Y-8660000D02*
X19660000Y-8700000D01*
X19660000Y-8660000D02*
X19620000Y-8700000D01*
X19620000Y-11800000D02*
X19660000Y-11840000D01*
X19660000Y-11800000D02*
X19620000Y-11840000D01*
X19634130Y-11692330D02*
X19674130Y-11732330D01*
X19674130Y-11692330D02*
X19634130Y-11732330D01*
X19711885Y-10711885D02*
X19751885Y-10751885D01*
X19751885Y-10711885D02*
X19711885Y-10751885D01*
X19730000Y-10355000D02*
X19770000Y-10395000D01*
X19770000Y-10355000D02*
X19730000Y-10395000D01*
X19753750Y-8784150D02*
X19793750Y-8824150D01*
X19793750Y-8784150D02*
X19753750Y-8824150D01*
X19791700Y-9241500D02*
X19831700Y-9281500D01*
X19831700Y-9241500D02*
X19791700Y-9281500D01*
X19850000Y-8660000D02*
X19890000Y-8700000D01*
X19890000Y-8660000D02*
X19850000Y-8700000D01*
X19899500Y-11912600D02*
X19939500Y-11952600D01*
X19939500Y-11912600D02*
X19899500Y-11952600D01*
X19960000Y-9140000D02*
X20000000Y-9180000D01*
X20000000Y-9140000D02*
X19960000Y-9180000D01*
X20043200Y-11848750D02*
X20083200Y-11888750D01*
X20083200Y-11848750D02*
X20043200Y-11888750D01*
X20052935Y-9084505D02*
X20092935Y-9124505D01*
X20092935Y-9084505D02*
X20052935Y-9124505D01*
X20070000Y-8720000D02*
X20110000Y-8760000D01*
X20110000Y-8720000D02*
X20070000Y-8760000D01*
X20105000Y-7230000D02*
X20145000Y-7270000D01*
X20145000Y-7230000D02*
X20105000Y-7270000D01*
X20158000Y-9004450D02*
X20198000Y-9044450D01*
X20198000Y-9004450D02*
X20158000Y-9044450D01*
X20170500Y-9380850D02*
X20210500Y-9420850D01*
X20210500Y-9380850D02*
X20170500Y-9420850D01*
X20197885Y-9098974D02*
X20237885Y-9138974D01*
X20237885Y-9098974D02*
X20197885Y-9138974D01*
X20201800Y-8507600D02*
X20241800Y-8547600D01*
X20241800Y-8507600D02*
X20201800Y-8547600D01*
X20248400Y-10262300D02*
X20288400Y-10302300D01*
X20288400Y-10262300D02*
X20248400Y-10302300D01*
X20255000Y-10405000D02*
X20295000Y-10445000D01*
X20295000Y-10405000D02*
X20255000Y-10445000D01*
X20290000Y-9590000D02*
X20330000Y-9630000D01*
X20330000Y-9590000D02*
X20290000Y-9630000D01*
X20294500Y-8330700D02*
X20334500Y-8370700D01*
X20334500Y-8330700D02*
X20294500Y-8370700D01*
X20294800Y-9380850D02*
X20334800Y-9420850D01*
X20334800Y-9380850D02*
X20294800Y-9420850D01*
X20319400Y-10191650D02*
X20359400Y-10231650D01*
X20359400Y-10191650D02*
X20319400Y-10231650D01*
X20330000Y-10730000D02*
X20370000Y-10770000D01*
X20370000Y-10730000D02*
X20330000Y-10770000D01*
X20376800Y-11466800D02*
X20416800Y-11506800D01*
X20416800Y-11466800D02*
X20376800Y-11506800D01*
X20378372Y-11849882D02*
X20418372Y-11889882D01*
X20418372Y-11849882D02*
X20378372Y-11889882D01*
X20415500Y-8859500D02*
X20455500Y-8899500D01*
X20455500Y-8859500D02*
X20415500Y-8899500D01*
X20448900Y-9316600D02*
X20488900Y-9356600D01*
X20488900Y-9316600D02*
X20448900Y-9356600D01*
X20478400Y-9691750D02*
X20518400Y-9731750D01*
X20518400Y-9691750D02*
X20478400Y-9731750D01*
X20480800Y-10813800D02*
X20520800Y-10853800D01*
X20520800Y-10813800D02*
X20480800Y-10853800D01*
X20556200Y-10691200D02*
X20596200Y-10731200D01*
X20596200Y-10691200D02*
X20556200Y-10731200D01*
X20556200Y-11233900D02*
X20596200Y-11273900D01*
X20596200Y-11233900D02*
X20556200Y-11273900D01*
X20580000Y-7280000D02*
X20620000Y-7320000D01*
X20620000Y-7280000D02*
X20580000Y-7320000D01*
X20611900Y-9097100D02*
X20651900Y-9137100D01*
X20651900Y-9097100D02*
X20611900Y-9137100D01*
X20620200Y-11638700D02*
X20660200Y-11678700D01*
X20660200Y-11638700D02*
X20620200Y-11678700D01*
X20700000Y-10080000D02*
X20740000Y-10120000D01*
X20740000Y-10080000D02*
X20700000Y-10120000D01*
X20730000Y-11280000D02*
X20770000Y-11320000D01*
X20770000Y-11280000D02*
X20730000Y-11320000D01*
X20774900Y-8329800D02*
X20814900Y-8369800D01*
X20814900Y-8329800D02*
X20774900Y-8369800D01*
X20780000Y-11030000D02*
X20820000Y-11070000D01*
X20820000Y-11030000D02*
X20780000Y-11070000D01*
X20790000Y-9890000D02*
X20830000Y-9930000D01*
X20830000Y-9890000D02*
X20790000Y-9930000D01*
X20810000Y-9630000D02*
X20850000Y-9670000D01*
X20850000Y-9630000D02*
X20810000Y-9670000D01*
X20810900Y-9120500D02*
X20850900Y-9160500D01*
X20850900Y-9120500D02*
X20810900Y-9160500D01*
X20842900Y-7924100D02*
X20882900Y-7964100D01*
X20882900Y-7924100D02*
X20842900Y-7964100D01*
X20855000Y-10080000D02*
X20895000Y-10120000D01*
X20895000Y-10080000D02*
X20855000Y-10120000D01*
X20925100Y-9406200D02*
X20965100Y-9446200D01*
X20965100Y-9406200D02*
X20925100Y-9446200D01*
X20930000Y-11705000D02*
X20970000Y-11745000D01*
X20970000Y-11705000D02*
X20930000Y-11745000D01*
X20937100Y-11502300D02*
X20977100Y-11542300D01*
X20977100Y-11502300D02*
X20937100Y-11542300D01*
X20955000Y-8680000D02*
X20995000Y-8720000D01*
X20995000Y-8680000D02*
X20955000Y-8720000D01*
X20998100Y-10426600D02*
X21038100Y-10466600D01*
X21038100Y-10426600D02*
X20998100Y-10466600D01*
X20998100Y-10930000D02*
X21038100Y-10970000D01*
X21038100Y-10930000D02*
X20998100Y-10970000D01*
X21070000Y-9130000D02*
X21110000Y-9170000D01*
X21110000Y-9130000D02*
X21070000Y-9170000D01*
X21090000Y-9370000D02*
X21130000Y-9410000D01*
X21130000Y-9370000D02*
X21090000Y-9410000D01*
X21146591Y-11437899D02*
X21186591Y-11477899D01*
X21186591Y-11437899D02*
X21146591Y-11477899D01*
X21180000Y-8330000D02*
X21220000Y-8370000D01*
X21220000Y-8330000D02*
X21180000Y-8370000D01*
X21210000Y-7440000D02*
X21250000Y-7480000D01*
X21250000Y-7440000D02*
X21210000Y-7480000D01*
X21219200Y-9879500D02*
X21259200Y-9919500D01*
X21259200Y-9879500D02*
X21219200Y-9919500D01*
X21390000Y-7240000D02*
X21430000Y-7280000D01*
X21430000Y-7240000D02*
X21390000Y-7280000D01*
X21390000Y-9060000D02*
X21430000Y-9100000D01*
X21430000Y-9060000D02*
X21390000Y-9100000D01*
X21400000Y-10350000D02*
X21440000Y-10390000D01*
X21440000Y-10350000D02*
X21400000Y-10390000D01*
X21472600Y-11543800D02*
X21512600Y-11583800D01*
X21512600Y-11543800D02*
X21472600Y-11583800D01*
X21570000Y-8990000D02*
X21610000Y-9030000D01*
X21610000Y-8990000D02*
X21570000Y-9030000D01*
X21580000Y-11055000D02*
X21620000Y-11095000D01*
X21620000Y-11055000D02*
X21580000Y-11095000D01*
X21618486Y-8391942D02*
X21658486Y-8431942D01*
X21658486Y-8391942D02*
X21618486Y-8431942D01*
X21620000Y-10430000D02*
X21660000Y-10470000D01*
X21660000Y-10430000D02*
X21620000Y-10470000D01*
X21655600Y-8056700D02*
X21695600Y-8096700D01*
X21695600Y-8056700D02*
X21655600Y-8096700D01*
X21687805Y-7441654D02*
X21727805Y-7481654D01*
X21727805Y-7441654D02*
X21687805Y-7481654D01*
X21692200Y-7341800D02*
X21732200Y-7381800D01*
X21732200Y-7341800D02*
X21692200Y-7381800D01*
X21701650Y-8336500D02*
X21741650Y-8376500D01*
X21741650Y-8336500D02*
X21701650Y-8376500D01*
X21716100Y-12128500D02*
X21756100Y-12168500D01*
X21756100Y-12128500D02*
X21716100Y-12168500D01*
X21747200Y-7106600D02*
X21787200Y-7146600D01*
X21787200Y-7106600D02*
X21747200Y-7146600D01*
X21774100Y-10082600D02*
X21814100Y-10122600D01*
X21814100Y-10082600D02*
X21774100Y-10122600D01*
X21774100Y-11744500D02*
X21814100Y-11784500D01*
X21814100Y-11744500D02*
X21774100Y-11784500D01*
X21900000Y-9080000D02*
X21940000Y-9120000D01*
X21940000Y-9080000D02*
X21900000Y-9120000D01*
X22080000Y-11980000D02*
X22120000Y-12020000D01*
X22120000Y-11980000D02*
X22080000Y-12020000D01*
X22159000Y-8998700D02*
X22199000Y-9038700D01*
X22199000Y-8998700D02*
X22159000Y-9038700D01*
X22270000Y-12080000D02*
X22310000Y-12120000D01*
X22310000Y-12080000D02*
X22270000Y-12120000D01*
X22460000Y-11100000D02*
X22500000Y-11140000D01*
X22500000Y-11100000D02*
X22460000Y-11140000D01*
X22480000Y-11960000D02*
X22520000Y-12000000D01*
X22520000Y-11960000D02*
X22480000Y-12000000D01*
X22612150Y-9620600D02*
X22652150Y-9660600D01*
X22652150Y-9620600D02*
X22612150Y-9660600D01*
X22730000Y-9355000D02*
X22770000Y-9395000D01*
X22770000Y-9355000D02*
X22730000Y-9395000D01*
X22730000Y-10255000D02*
X22770000Y-10295000D01*
X22770000Y-10255000D02*
X22730000Y-10295000D01*
X17042768Y-11112409D02*
G75*
G02*
X16968768Y-11112409I-37000J0D01*
G01*
X16968768Y-11112409D02*
G75*
G02*
X17042768Y-11112409I37000J0D01*
G01*
X17382768Y-11112409D02*
G75*
G02*
X17308768Y-11112409I-37000J0D01*
G01*
X17308768Y-11112409D02*
G75*
G02*
X17382768Y-11112409I37000J0D01*
G01*
X19846400Y-7755300D02*
G75*
G02*
X19772400Y-7755300I-37000J0D01*
G01*
X19772400Y-7755300D02*
G75*
G02*
X19846400Y-7755300I37000J0D01*
G01*
X19846400Y-8263300D02*
G75*
G02*
X19772400Y-8263300I-37000J0D01*
G01*
X19772400Y-8263300D02*
G75*
G02*
X19846400Y-8263300I37000J0D01*
G01*
X20100400Y-8009300D02*
G75*
G02*
X20026400Y-8009300I-37000J0D01*
G01*
X20026400Y-8009300D02*
G75*
G02*
X20100400Y-8009300I37000J0D01*
G01*
X17705900Y-7552700D02*
X17705900Y-7632700D01*
X17665900Y-7592700D02*
X17745900Y-7592700D01*
X17705900Y-7806700D02*
X17705900Y-7886700D01*
X17665900Y-7846700D02*
X17745900Y-7846700D01*
X17705900Y-8060700D02*
X17705900Y-8140700D01*
X17665900Y-8100700D02*
X17745900Y-8100700D01*
X17705900Y-8314700D02*
X17705900Y-8394700D01*
X17665900Y-8354700D02*
X17745900Y-8354700D01*
X18467900Y-7552700D02*
X18467900Y-7632700D01*
X18427900Y-7592700D02*
X18507900Y-7592700D01*
X18467900Y-7806700D02*
X18467900Y-7886700D01*
X18427900Y-7846700D02*
X18507900Y-7846700D01*
X18467900Y-8060700D02*
X18467900Y-8140700D01*
X18427900Y-8100700D02*
X18507900Y-8100700D01*
X18467900Y-8314700D02*
X18467900Y-8394700D01*
X18427900Y-8354700D02*
X18507900Y-8354700D01*
X15395656Y-8206356D02*
X15395656Y-8135644D01*
X15324944Y-8135644D01*
X15324944Y-8206356D01*
X15395656Y-8206356D01*
X15395656Y-8460356D02*
X15395656Y-8389644D01*
X15324944Y-8389644D01*
X15324944Y-8460356D01*
X15395656Y-8460356D01*
X16983156Y-9395256D02*
X16983156Y-9324544D01*
X16912444Y-9324544D01*
X16912444Y-9395256D01*
X16983156Y-9395256D01*
X16983156Y-9649256D02*
X16983156Y-9578544D01*
X16912444Y-9578544D01*
X16912444Y-9649256D01*
X16983156Y-9649256D01*
X16983156Y-9903256D02*
X16983156Y-9832544D01*
X16912444Y-9832544D01*
X16912444Y-9903256D01*
X16983156Y-9903256D01*
X17109856Y-7159356D02*
X17109856Y-7088644D01*
X17039144Y-7088644D01*
X17039144Y-7159356D01*
X17109856Y-7159356D01*
X17363856Y-7159356D02*
X17363856Y-7088644D01*
X17293144Y-7088644D01*
X17293144Y-7159356D01*
X17363856Y-7159356D01*
X17617856Y-7159356D02*
X17617856Y-7088644D01*
X17547144Y-7088644D01*
X17547144Y-7159356D01*
X17617856Y-7159356D01*
X17748056Y-8734556D02*
X17748056Y-8663844D01*
X17677344Y-8663844D01*
X17677344Y-8734556D01*
X17748056Y-8734556D01*
X17871856Y-7159356D02*
X17871856Y-7088644D01*
X17801144Y-7088644D01*
X17801144Y-7159356D01*
X17871856Y-7159356D01*
X18002056Y-8734556D02*
X18002056Y-8663844D01*
X17931344Y-8663844D01*
X17931344Y-8734556D01*
X18002056Y-8734556D01*
X18023856Y-11985356D02*
X18023856Y-11914644D01*
X17953144Y-11914644D01*
X17953144Y-11985356D01*
X18023856Y-11985356D01*
X18125856Y-7159356D02*
X18125856Y-7088644D01*
X18055144Y-7088644D01*
X18055144Y-7159356D01*
X18125856Y-7159356D01*
X18277856Y-11985356D02*
X18277856Y-11914644D01*
X18207144Y-11914644D01*
X18207144Y-11985356D01*
X18277856Y-11985356D01*
X18301656Y-11110156D02*
X18301656Y-11039444D01*
X18230944Y-11039444D01*
X18230944Y-11110156D01*
X18301656Y-11110156D01*
X18301656Y-11364156D02*
X18301656Y-11293444D01*
X18230944Y-11293444D01*
X18230944Y-11364156D01*
X18301656Y-11364156D01*
X18379856Y-7159356D02*
X18379856Y-7088644D01*
X18309144Y-7088644D01*
X18309144Y-7159356D01*
X18379856Y-7159356D01*
X18531856Y-11985356D02*
X18531856Y-11914644D01*
X18461144Y-11914644D01*
X18461144Y-11985356D01*
X18531856Y-11985356D01*
X18555656Y-11110156D02*
X18555656Y-11039444D01*
X18484944Y-11039444D01*
X18484944Y-11110156D01*
X18555656Y-11110156D01*
X18555656Y-11364156D02*
X18555656Y-11293444D01*
X18484944Y-11293444D01*
X18484944Y-11364156D01*
X18555656Y-11364156D01*
X18633856Y-7159356D02*
X18633856Y-7088644D01*
X18563144Y-7088644D01*
X18563144Y-7159356D01*
X18633856Y-7159356D01*
X18785856Y-11985356D02*
X18785856Y-11914644D01*
X18715144Y-11914644D01*
X18715144Y-11985356D01*
X18785856Y-11985356D01*
X18809656Y-11110156D02*
X18809656Y-11039444D01*
X18738944Y-11039444D01*
X18738944Y-11110156D01*
X18809656Y-11110156D01*
X18809656Y-11364156D02*
X18809656Y-11293444D01*
X18738944Y-11293444D01*
X18738944Y-11364156D01*
X18809656Y-11364156D01*
X18869356Y-7886056D02*
X18869356Y-7815344D01*
X18798644Y-7815344D01*
X18798644Y-7886056D01*
X18869356Y-7886056D01*
X18869356Y-8140056D02*
X18869356Y-8069344D01*
X18798644Y-8069344D01*
X18798644Y-8140056D01*
X18869356Y-8140056D01*
X18887856Y-7159356D02*
X18887856Y-7088644D01*
X18817144Y-7088644D01*
X18817144Y-7159356D01*
X18887856Y-7159356D01*
X19039856Y-11985356D02*
X19039856Y-11914644D01*
X18969144Y-11914644D01*
X18969144Y-11985356D01*
X19039856Y-11985356D01*
X19063656Y-11110156D02*
X19063656Y-11039444D01*
X18992944Y-11039444D01*
X18992944Y-11110156D01*
X19063656Y-11110156D01*
X19063656Y-11364156D02*
X19063656Y-11293444D01*
X18992944Y-11293444D01*
X18992944Y-11364156D01*
X19063656Y-11364156D01*
X19141856Y-7159356D02*
X19141856Y-7088644D01*
X19071144Y-7088644D01*
X19071144Y-7159356D01*
X19141856Y-7159356D01*
X19293856Y-11985356D02*
X19293856Y-11914644D01*
X19223144Y-11914644D01*
X19223144Y-11985356D01*
X19293856Y-11985356D01*
X19317656Y-11110156D02*
X19317656Y-11039444D01*
X19246944Y-11039444D01*
X19246944Y-11110156D01*
X19317656Y-11110156D01*
X19317656Y-11364156D02*
X19317656Y-11293444D01*
X19246944Y-11293444D01*
X19246944Y-11364156D01*
X19317656Y-11364156D01*
X19395856Y-7159356D02*
X19395856Y-7088644D01*
X19325144Y-7088644D01*
X19325144Y-7159356D01*
X19395856Y-7159356D01*
X19436256Y-7894406D02*
X19436256Y-7823694D01*
X19365544Y-7823694D01*
X19365544Y-7894406D01*
X19436256Y-7894406D01*
X19436256Y-8148406D02*
X19436256Y-8077694D01*
X19365544Y-8077694D01*
X19365544Y-8148406D01*
X19436256Y-8148406D01*
X19547856Y-11985356D02*
X19547856Y-11914644D01*
X19477144Y-11914644D01*
X19477144Y-11985356D01*
X19547856Y-11985356D01*
X19801856Y-7159356D02*
X19801856Y-7088644D01*
X19731144Y-7088644D01*
X19731144Y-7159356D01*
X19801856Y-7159356D01*
X19801856Y-11985356D02*
X19801856Y-11914644D01*
X19731144Y-11914644D01*
X19731144Y-11985356D01*
X19801856Y-11985356D01*
X20055856Y-7159356D02*
X20055856Y-7088644D01*
X19985144Y-7088644D01*
X19985144Y-7159356D01*
X20055856Y-7159356D01*
X20309856Y-7159356D02*
X20309856Y-7088644D01*
X20239144Y-7088644D01*
X20239144Y-7159356D01*
X20309856Y-7159356D01*
X20309856Y-11985356D02*
X20309856Y-11914644D01*
X20239144Y-11914644D01*
X20239144Y-11985356D01*
X20309856Y-11985356D01*
X20563856Y-7159356D02*
X20563856Y-7088644D01*
X20493144Y-7088644D01*
X20493144Y-7159356D01*
X20563856Y-7159356D01*
X20563856Y-11985356D02*
X20563856Y-11914644D01*
X20493144Y-11914644D01*
X20493144Y-11985356D01*
X20563856Y-11985356D01*
X20588956Y-7576706D02*
X20588956Y-7505994D01*
X20518244Y-7505994D01*
X20518244Y-7576706D01*
X20588956Y-7576706D01*
X20588956Y-7830706D02*
X20588956Y-7759994D01*
X20518244Y-7759994D01*
X20518244Y-7830706D01*
X20588956Y-7830706D01*
X20588956Y-8205706D02*
X20588956Y-8134994D01*
X20518244Y-8134994D01*
X20518244Y-8205706D01*
X20588956Y-8205706D01*
X20588956Y-8459706D02*
X20588956Y-8388994D01*
X20518244Y-8388994D01*
X20518244Y-8459706D01*
X20588956Y-8459706D01*
X20817856Y-7159356D02*
X20817856Y-7088644D01*
X20747144Y-7088644D01*
X20747144Y-7159356D01*
X20817856Y-7159356D01*
X20817856Y-11985356D02*
X20817856Y-11914644D01*
X20747144Y-11914644D01*
X20747144Y-11985356D01*
X20817856Y-11985356D01*
X21071856Y-7159356D02*
X21071856Y-7088644D01*
X21001144Y-7088644D01*
X21001144Y-7159356D01*
X21071856Y-7159356D01*
X21071856Y-11985356D02*
X21071856Y-11914644D01*
X21001144Y-11914644D01*
X21001144Y-11985356D01*
X21071856Y-11985356D01*
X21188756Y-8814156D02*
X21188756Y-8743444D01*
X21118044Y-8743444D01*
X21118044Y-8814156D01*
X21188756Y-8814156D01*
X21251356Y-7818156D02*
X21251356Y-7747444D01*
X21180644Y-7747444D01*
X21180644Y-7818156D01*
X21251356Y-7818156D01*
X21325856Y-7159356D02*
X21325856Y-7088644D01*
X21255144Y-7088644D01*
X21255144Y-7159356D01*
X21325856Y-7159356D01*
X21325856Y-11985356D02*
X21325856Y-11914644D01*
X21255144Y-11914644D01*
X21255144Y-11985356D01*
X21325856Y-11985356D01*
X21442756Y-8814156D02*
X21442756Y-8743444D01*
X21372044Y-8743444D01*
X21372044Y-8814156D01*
X21442756Y-8814156D01*
X21505356Y-7818156D02*
X21505356Y-7747444D01*
X21434644Y-7747444D01*
X21434644Y-7818156D01*
X21505356Y-7818156D01*
X21579856Y-7159356D02*
X21579856Y-7088644D01*
X21509144Y-7088644D01*
X21509144Y-7159356D01*
X21579856Y-7159356D01*
X21579856Y-11985356D02*
X21579856Y-11914644D01*
X21509144Y-11914644D01*
X21509144Y-11985356D01*
X21579856Y-11985356D01*
X21621356Y-9391556D02*
X21621356Y-9320844D01*
X21550644Y-9320844D01*
X21550644Y-9391556D01*
X21621356Y-9391556D01*
X21621356Y-9645556D02*
X21621356Y-9574844D01*
X21550644Y-9574844D01*
X21550644Y-9645556D01*
X21621356Y-9645556D01*
X21621356Y-9899556D02*
X21621356Y-9828844D01*
X21550644Y-9828844D01*
X21550644Y-9899556D01*
X21621356Y-9899556D01*
X22565056Y-7360356D02*
X22565056Y-7289644D01*
X22494344Y-7289644D01*
X22494344Y-7360356D01*
X22565056Y-7360356D01*
X22565056Y-7614356D02*
X22565056Y-7543644D01*
X22494344Y-7543644D01*
X22494344Y-7614356D01*
X22565056Y-7614356D01*
X22565056Y-7868356D02*
X22565056Y-7797644D01*
X22494344Y-7797644D01*
X22494344Y-7868356D01*
X22565056Y-7868356D01*
X22569956Y-8334756D02*
X22569956Y-8264044D01*
X22499244Y-8264044D01*
X22499244Y-8334756D01*
X22569956Y-8334756D01*
X22569956Y-8588756D02*
X22569956Y-8518044D01*
X22499244Y-8518044D01*
X22499244Y-8588756D01*
X22569956Y-8588756D01*
X22569956Y-8842756D02*
X22569956Y-8772044D01*
X22499244Y-8772044D01*
X22499244Y-8842756D01*
X22569956Y-8842756D01*
D12*
X15375000Y-7379300D02*
X15430000Y-7324300D01*
X15375000Y-7269300D01*
X15320000Y-7324300D01*
X15375000Y-7379300D01*
X15629000Y-7379300D02*
X15684000Y-7324300D01*
X15629000Y-7269300D01*
X15574000Y-7324300D01*
X15629000Y-7379300D01*
X15883000Y-7379300D02*
X15938000Y-7324300D01*
X15883000Y-7269300D01*
X15828000Y-7324300D01*
X15883000Y-7379300D01*
X16137000Y-7379300D02*
X16192000Y-7324300D01*
X16137000Y-7269300D01*
X16082000Y-7324300D01*
X16137000Y-7379300D01*
D13*
X16490000Y-9613500D02*
X16610000Y-9733500D01*
X16610000Y-9613500D02*
X16490000Y-9733500D01*
X16610000Y-9673500D02*
G75*
G02*
X16490000Y-9673500I-60000J0D01*
G01*
X16490000Y-9673500D02*
G75*
G02*
X16610000Y-9673500I60000J0D01*
G01*
X16490000Y-9863500D02*
X16610000Y-9983500D01*
X16610000Y-9863500D02*
X16490000Y-9983500D01*
X16610000Y-9923500D02*
G75*
G02*
X16490000Y-9923500I-60000J0D01*
G01*
X16490000Y-9923500D02*
G75*
G02*
X16610000Y-9923500I60000J0D01*
G01*
X16490000Y-10113500D02*
X16610000Y-10233500D01*
X16610000Y-10113500D02*
X16490000Y-10233500D01*
X16610000Y-10173500D02*
G75*
G02*
X16490000Y-10173500I-60000J0D01*
G01*
X16490000Y-10173500D02*
G75*
G02*
X16610000Y-10173500I60000J0D01*
G01*
X16490000Y-11133500D02*
X16610000Y-11253500D01*
X16610000Y-11133500D02*
X16490000Y-11253500D01*
X16610000Y-11193500D02*
G75*
G02*
X16490000Y-11193500I-60000J0D01*
G01*
X16490000Y-11193500D02*
G75*
G02*
X16610000Y-11193500I60000J0D01*
G01*
X16490000Y-11383500D02*
X16610000Y-11503500D01*
X16610000Y-11383500D02*
X16490000Y-11503500D01*
X16610000Y-11443500D02*
G75*
G02*
X16490000Y-11443500I-60000J0D01*
G01*
X16490000Y-11443500D02*
G75*
G02*
X16610000Y-11443500I60000J0D01*
G01*
X16490000Y-11633500D02*
X16610000Y-11753500D01*
X16610000Y-11633500D02*
X16490000Y-11753500D01*
X16610000Y-11693500D02*
G75*
G02*
X16490000Y-11693500I-60000J0D01*
G01*
X16490000Y-11693500D02*
G75*
G02*
X16610000Y-11693500I60000J0D01*
G01*
X21316000Y-10726000D02*
X21436000Y-10846000D01*
X21436000Y-10726000D02*
X21316000Y-10846000D01*
X21436000Y-10786000D02*
G75*
G02*
X21316000Y-10786000I-60000J0D01*
G01*
X21316000Y-10786000D02*
G75*
G02*
X21436000Y-10786000I60000J0D01*
G01*
X21316000Y-10976000D02*
X21436000Y-11096000D01*
X21436000Y-10976000D02*
X21316000Y-11096000D01*
X21436000Y-11036000D02*
G75*
G02*
X21316000Y-11036000I-60000J0D01*
G01*
X21316000Y-11036000D02*
G75*
G02*
X21436000Y-11036000I60000J0D01*
G01*
X21316000Y-11226000D02*
X21436000Y-11346000D01*
X21436000Y-11226000D02*
X21316000Y-11346000D01*
X21436000Y-11286000D02*
G75*
G02*
X21316000Y-11286000I-60000J0D01*
G01*
X21316000Y-11286000D02*
G75*
G02*
X21436000Y-11286000I60000J0D01*
G01*
D14*
X15693795Y-9337295D02*
X16006205Y-9649705D01*
X16006205Y-9337295D02*
X15693795Y-9649705D01*
X15850000Y-9337295D02*
X15850000Y-9649705D01*
X15693795Y-9493500D02*
X16006205Y-9493500D01*
X15693795Y-10197295D02*
X16006205Y-10509705D01*
X16006205Y-10197295D02*
X15693795Y-10509705D01*
X15850000Y-10197295D02*
X15850000Y-10509705D01*
X15693795Y-10353500D02*
X16006205Y-10353500D01*
X15693795Y-10857295D02*
X16006205Y-11169705D01*
X16006205Y-10857295D02*
X15693795Y-11169705D01*
X15850000Y-10857295D02*
X15850000Y-11169705D01*
X15693795Y-11013500D02*
X16006205Y-11013500D01*
X15693795Y-11717295D02*
X16006205Y-12029705D01*
X16006205Y-11717295D02*
X15693795Y-12029705D01*
X15850000Y-11717295D02*
X15850000Y-12029705D01*
X15693795Y-11873500D02*
X16006205Y-11873500D01*
X21919795Y-10449795D02*
X22232205Y-10762205D01*
X22232205Y-10449795D02*
X21919795Y-10762205D01*
X22076000Y-10449795D02*
X22076000Y-10762205D01*
X21919795Y-10606000D02*
X22232205Y-10606000D01*
X21919795Y-11309795D02*
X22232205Y-11622205D01*
X22232205Y-11309795D02*
X21919795Y-11622205D01*
X22076000Y-11309795D02*
X22076000Y-11622205D01*
X21919795Y-11466000D02*
X22232205Y-11466000D01*
D10*
X15435777Y-12559184D02*
X15435777Y-12359184D01*
X15435777Y-12359184D02*
X15483396Y-12359184D01*
X15483396Y-12359184D02*
X15511967Y-12368708D01*
X15511967Y-12368708D02*
X15531015Y-12387755D01*
X15531015Y-12387755D02*
X15540539Y-12406803D01*
X15540539Y-12406803D02*
X15550062Y-12444898D01*
X15550062Y-12444898D02*
X15550062Y-12473469D01*
X15550062Y-12473469D02*
X15540539Y-12511565D01*
X15540539Y-12511565D02*
X15531015Y-12530612D01*
X15531015Y-12530612D02*
X15511967Y-12549660D01*
X15511967Y-12549660D02*
X15483396Y-12559184D01*
X15483396Y-12559184D02*
X15435777Y-12559184D01*
X15635777Y-12559184D02*
X15635777Y-12425850D01*
X15635777Y-12463946D02*
X15645301Y-12444898D01*
X15645301Y-12444898D02*
X15654824Y-12435374D01*
X15654824Y-12435374D02*
X15673872Y-12425850D01*
X15673872Y-12425850D02*
X15692920Y-12425850D01*
X15759586Y-12559184D02*
X15759586Y-12425850D01*
X15759586Y-12359184D02*
X15750062Y-12368708D01*
X15750062Y-12368708D02*
X15759586Y-12378231D01*
X15759586Y-12378231D02*
X15769110Y-12368708D01*
X15769110Y-12368708D02*
X15759586Y-12359184D01*
X15759586Y-12359184D02*
X15759586Y-12378231D01*
X15883396Y-12559184D02*
X15864348Y-12549660D01*
X15864348Y-12549660D02*
X15854824Y-12530612D01*
X15854824Y-12530612D02*
X15854824Y-12359184D01*
X15988158Y-12559184D02*
X15969110Y-12549660D01*
X15969110Y-12549660D02*
X15959586Y-12530612D01*
X15959586Y-12530612D02*
X15959586Y-12359184D01*
X16216729Y-12559184D02*
X16216729Y-12359184D01*
X16216729Y-12359184D02*
X16283396Y-12502041D01*
X16283396Y-12502041D02*
X16350062Y-12359184D01*
X16350062Y-12359184D02*
X16350062Y-12559184D01*
X16531015Y-12559184D02*
X16531015Y-12454422D01*
X16531015Y-12454422D02*
X16521491Y-12435374D01*
X16521491Y-12435374D02*
X16502443Y-12425850D01*
X16502443Y-12425850D02*
X16464348Y-12425850D01*
X16464348Y-12425850D02*
X16445301Y-12435374D01*
X16531015Y-12549660D02*
X16511967Y-12559184D01*
X16511967Y-12559184D02*
X16464348Y-12559184D01*
X16464348Y-12559184D02*
X16445301Y-12549660D01*
X16445301Y-12549660D02*
X16435777Y-12530612D01*
X16435777Y-12530612D02*
X16435777Y-12511565D01*
X16435777Y-12511565D02*
X16445301Y-12492517D01*
X16445301Y-12492517D02*
X16464348Y-12482993D01*
X16464348Y-12482993D02*
X16511967Y-12482993D01*
X16511967Y-12482993D02*
X16531015Y-12473469D01*
X16626253Y-12425850D02*
X16626253Y-12625850D01*
X16626253Y-12435374D02*
X16645301Y-12425850D01*
X16645301Y-12425850D02*
X16683396Y-12425850D01*
X16683396Y-12425850D02*
X16702443Y-12435374D01*
X16702443Y-12435374D02*
X16711967Y-12444898D01*
X16711967Y-12444898D02*
X16721491Y-12463946D01*
X16721491Y-12463946D02*
X16721491Y-12521088D01*
X16721491Y-12521088D02*
X16711967Y-12540136D01*
X16711967Y-12540136D02*
X16702443Y-12549660D01*
X16702443Y-12549660D02*
X16683396Y-12559184D01*
X16683396Y-12559184D02*
X16645301Y-12559184D01*
X16645301Y-12559184D02*
X16626253Y-12549660D01*
X16807205Y-12540136D02*
X16816729Y-12549660D01*
X16816729Y-12549660D02*
X16807205Y-12559184D01*
X16807205Y-12559184D02*
X16797682Y-12549660D01*
X16797682Y-12549660D02*
X16807205Y-12540136D01*
X16807205Y-12540136D02*
X16807205Y-12559184D01*
X16807205Y-12435374D02*
X16816729Y-12444898D01*
X16816729Y-12444898D02*
X16807205Y-12454422D01*
X16807205Y-12454422D02*
X16797682Y-12444898D01*
X16797682Y-12444898D02*
X16807205Y-12435374D01*
X16807205Y-12435374D02*
X16807205Y-12454422D01*
D11*
X15135000Y-12867700D02*
X15175000Y-12907700D01*
X15175000Y-12867700D02*
X15135000Y-12907700D01*
D10*
X15473872Y-12779184D02*
X15492920Y-12779184D01*
X15492920Y-12779184D02*
X15511967Y-12788708D01*
X15511967Y-12788708D02*
X15521491Y-12798231D01*
X15521491Y-12798231D02*
X15531015Y-12817279D01*
X15531015Y-12817279D02*
X15540539Y-12855374D01*
X15540539Y-12855374D02*
X15540539Y-12902993D01*
X15540539Y-12902993D02*
X15531015Y-12941088D01*
X15531015Y-12941088D02*
X15521491Y-12960136D01*
X15521491Y-12960136D02*
X15511967Y-12969660D01*
X15511967Y-12969660D02*
X15492920Y-12979184D01*
X15492920Y-12979184D02*
X15473872Y-12979184D01*
X15473872Y-12979184D02*
X15454824Y-12969660D01*
X15454824Y-12969660D02*
X15445301Y-12960136D01*
X15445301Y-12960136D02*
X15435777Y-12941088D01*
X15435777Y-12941088D02*
X15426253Y-12902993D01*
X15426253Y-12902993D02*
X15426253Y-12855374D01*
X15426253Y-12855374D02*
X15435777Y-12817279D01*
X15435777Y-12817279D02*
X15445301Y-12798231D01*
X15445301Y-12798231D02*
X15454824Y-12788708D01*
X15454824Y-12788708D02*
X15473872Y-12779184D01*
X15626253Y-12960136D02*
X15635777Y-12969660D01*
X15635777Y-12969660D02*
X15626253Y-12979184D01*
X15626253Y-12979184D02*
X15616729Y-12969660D01*
X15616729Y-12969660D02*
X15626253Y-12960136D01*
X15626253Y-12960136D02*
X15626253Y-12979184D01*
X15807205Y-12845850D02*
X15807205Y-12979184D01*
X15759586Y-12769660D02*
X15711967Y-12912517D01*
X15711967Y-12912517D02*
X15835777Y-12912517D01*
X15950062Y-12779184D02*
X15969110Y-12779184D01*
X15969110Y-12779184D02*
X15988158Y-12788708D01*
X15988158Y-12788708D02*
X15997682Y-12798231D01*
X15997682Y-12798231D02*
X16007205Y-12817279D01*
X16007205Y-12817279D02*
X16016729Y-12855374D01*
X16016729Y-12855374D02*
X16016729Y-12902993D01*
X16016729Y-12902993D02*
X16007205Y-12941088D01*
X16007205Y-12941088D02*
X15997682Y-12960136D01*
X15997682Y-12960136D02*
X15988158Y-12969660D01*
X15988158Y-12969660D02*
X15969110Y-12979184D01*
X15969110Y-12979184D02*
X15950062Y-12979184D01*
X15950062Y-12979184D02*
X15931015Y-12969660D01*
X15931015Y-12969660D02*
X15921491Y-12960136D01*
X15921491Y-12960136D02*
X15911967Y-12941088D01*
X15911967Y-12941088D02*
X15902443Y-12902993D01*
X15902443Y-12902993D02*
X15902443Y-12855374D01*
X15902443Y-12855374D02*
X15911967Y-12817279D01*
X15911967Y-12817279D02*
X15921491Y-12798231D01*
X15921491Y-12798231D02*
X15931015Y-12788708D01*
X15931015Y-12788708D02*
X15950062Y-12779184D01*
X16140539Y-12779184D02*
X16159586Y-12779184D01*
X16159586Y-12779184D02*
X16178634Y-12788708D01*
X16178634Y-12788708D02*
X16188158Y-12798231D01*
X16188158Y-12798231D02*
X16197682Y-12817279D01*
X16197682Y-12817279D02*
X16207205Y-12855374D01*
X16207205Y-12855374D02*
X16207205Y-12902993D01*
X16207205Y-12902993D02*
X16197682Y-12941088D01*
X16197682Y-12941088D02*
X16188158Y-12960136D01*
X16188158Y-12960136D02*
X16178634Y-12969660D01*
X16178634Y-12969660D02*
X16159586Y-12979184D01*
X16159586Y-12979184D02*
X16140539Y-12979184D01*
X16140539Y-12979184D02*
X16121491Y-12969660D01*
X16121491Y-12969660D02*
X16111967Y-12960136D01*
X16111967Y-12960136D02*
X16102443Y-12941088D01*
X16102443Y-12941088D02*
X16092920Y-12902993D01*
X16092920Y-12902993D02*
X16092920Y-12855374D01*
X16092920Y-12855374D02*
X16102443Y-12817279D01*
X16102443Y-12817279D02*
X16111967Y-12798231D01*
X16111967Y-12798231D02*
X16121491Y-12788708D01*
X16121491Y-12788708D02*
X16140539Y-12779184D01*
X16292920Y-12979184D02*
X16292920Y-12845850D01*
X16292920Y-12864898D02*
X16302443Y-12855374D01*
X16302443Y-12855374D02*
X16321491Y-12845850D01*
X16321491Y-12845850D02*
X16350063Y-12845850D01*
X16350063Y-12845850D02*
X16369110Y-12855374D01*
X16369110Y-12855374D02*
X16378634Y-12874422D01*
X16378634Y-12874422D02*
X16378634Y-12979184D01*
X16378634Y-12874422D02*
X16388158Y-12855374D01*
X16388158Y-12855374D02*
X16407205Y-12845850D01*
X16407205Y-12845850D02*
X16435777Y-12845850D01*
X16435777Y-12845850D02*
X16454824Y-12855374D01*
X16454824Y-12855374D02*
X16464348Y-12874422D01*
X16464348Y-12874422D02*
X16464348Y-12979184D01*
X16559586Y-12979184D02*
X16559586Y-12845850D01*
X16559586Y-12864898D02*
X16569110Y-12855374D01*
X16569110Y-12855374D02*
X16588158Y-12845850D01*
X16588158Y-12845850D02*
X16616729Y-12845850D01*
X16616729Y-12845850D02*
X16635777Y-12855374D01*
X16635777Y-12855374D02*
X16645301Y-12874422D01*
X16645301Y-12874422D02*
X16645301Y-12979184D01*
X16645301Y-12874422D02*
X16654824Y-12855374D01*
X16654824Y-12855374D02*
X16673872Y-12845850D01*
X16673872Y-12845850D02*
X16702443Y-12845850D01*
X16702443Y-12845850D02*
X16721491Y-12855374D01*
X16721491Y-12855374D02*
X16731015Y-12874422D01*
X16731015Y-12874422D02*
X16731015Y-12979184D01*
X17121491Y-12769660D02*
X16950063Y-13026803D01*
X17378634Y-12779184D02*
X17397682Y-12779184D01*
X17397682Y-12779184D02*
X17416729Y-12788708D01*
X17416729Y-12788708D02*
X17426253Y-12798231D01*
X17426253Y-12798231D02*
X17435777Y-12817279D01*
X17435777Y-12817279D02*
X17445301Y-12855374D01*
X17445301Y-12855374D02*
X17445301Y-12902993D01*
X17445301Y-12902993D02*
X17435777Y-12941088D01*
X17435777Y-12941088D02*
X17426253Y-12960136D01*
X17426253Y-12960136D02*
X17416729Y-12969660D01*
X17416729Y-12969660D02*
X17397682Y-12979184D01*
X17397682Y-12979184D02*
X17378634Y-12979184D01*
X17378634Y-12979184D02*
X17359587Y-12969660D01*
X17359587Y-12969660D02*
X17350063Y-12960136D01*
X17350063Y-12960136D02*
X17340539Y-12941088D01*
X17340539Y-12941088D02*
X17331015Y-12902993D01*
X17331015Y-12902993D02*
X17331015Y-12855374D01*
X17331015Y-12855374D02*
X17340539Y-12817279D01*
X17340539Y-12817279D02*
X17350063Y-12798231D01*
X17350063Y-12798231D02*
X17359587Y-12788708D01*
X17359587Y-12788708D02*
X17378634Y-12779184D01*
X17531015Y-12960136D02*
X17540539Y-12969660D01*
X17540539Y-12969660D02*
X17531015Y-12979184D01*
X17531015Y-12979184D02*
X17521491Y-12969660D01*
X17521491Y-12969660D02*
X17531015Y-12960136D01*
X17531015Y-12960136D02*
X17531015Y-12979184D01*
X17664348Y-12779184D02*
X17683396Y-12779184D01*
X17683396Y-12779184D02*
X17702444Y-12788708D01*
X17702444Y-12788708D02*
X17711968Y-12798231D01*
X17711968Y-12798231D02*
X17721491Y-12817279D01*
X17721491Y-12817279D02*
X17731015Y-12855374D01*
X17731015Y-12855374D02*
X17731015Y-12902993D01*
X17731015Y-12902993D02*
X17721491Y-12941088D01*
X17721491Y-12941088D02*
X17711968Y-12960136D01*
X17711968Y-12960136D02*
X17702444Y-12969660D01*
X17702444Y-12969660D02*
X17683396Y-12979184D01*
X17683396Y-12979184D02*
X17664348Y-12979184D01*
X17664348Y-12979184D02*
X17645301Y-12969660D01*
X17645301Y-12969660D02*
X17635777Y-12960136D01*
X17635777Y-12960136D02*
X17626253Y-12941088D01*
X17626253Y-12941088D02*
X17616729Y-12902993D01*
X17616729Y-12902993D02*
X17616729Y-12855374D01*
X17616729Y-12855374D02*
X17626253Y-12817279D01*
X17626253Y-12817279D02*
X17635777Y-12798231D01*
X17635777Y-12798231D02*
X17645301Y-12788708D01*
X17645301Y-12788708D02*
X17664348Y-12779184D01*
X17921491Y-12979184D02*
X17807206Y-12979184D01*
X17864348Y-12979184D02*
X17864348Y-12779184D01*
X17864348Y-12779184D02*
X17845301Y-12807755D01*
X17845301Y-12807755D02*
X17826253Y-12826803D01*
X17826253Y-12826803D02*
X17807206Y-12836327D01*
X18102444Y-12779184D02*
X18007206Y-12779184D01*
X18007206Y-12779184D02*
X17997682Y-12874422D01*
X17997682Y-12874422D02*
X18007206Y-12864898D01*
X18007206Y-12864898D02*
X18026253Y-12855374D01*
X18026253Y-12855374D02*
X18073872Y-12855374D01*
X18073872Y-12855374D02*
X18092920Y-12864898D01*
X18092920Y-12864898D02*
X18102444Y-12874422D01*
X18102444Y-12874422D02*
X18111968Y-12893469D01*
X18111968Y-12893469D02*
X18111968Y-12941088D01*
X18111968Y-12941088D02*
X18102444Y-12960136D01*
X18102444Y-12960136D02*
X18092920Y-12969660D01*
X18092920Y-12969660D02*
X18073872Y-12979184D01*
X18073872Y-12979184D02*
X18026253Y-12979184D01*
X18026253Y-12979184D02*
X18007206Y-12969660D01*
X18007206Y-12969660D02*
X17997682Y-12960136D01*
X18178634Y-12779184D02*
X18311968Y-12779184D01*
X18311968Y-12779184D02*
X18226253Y-12979184D01*
X18378634Y-12779184D02*
X18378634Y-12817279D01*
X18454825Y-12779184D02*
X18454825Y-12817279D01*
X18750063Y-13055374D02*
X18740539Y-13045850D01*
X18740539Y-13045850D02*
X18721491Y-13017279D01*
X18721491Y-13017279D02*
X18711968Y-12998231D01*
X18711968Y-12998231D02*
X18702444Y-12969660D01*
X18702444Y-12969660D02*
X18692920Y-12922041D01*
X18692920Y-12922041D02*
X18692920Y-12883946D01*
X18692920Y-12883946D02*
X18702444Y-12836327D01*
X18702444Y-12836327D02*
X18711968Y-12807755D01*
X18711968Y-12807755D02*
X18721491Y-12788708D01*
X18721491Y-12788708D02*
X18740539Y-12760136D01*
X18740539Y-12760136D02*
X18750063Y-12750612D01*
X18931015Y-12979184D02*
X18816730Y-12979184D01*
X18873872Y-12979184D02*
X18873872Y-12779184D01*
X18873872Y-12779184D02*
X18854825Y-12807755D01*
X18854825Y-12807755D02*
X18835777Y-12826803D01*
X18835777Y-12826803D02*
X18816730Y-12836327D01*
X18997682Y-12779184D02*
X19131015Y-12779184D01*
X19131015Y-12779184D02*
X19045301Y-12979184D01*
X19302444Y-12779184D02*
X19207206Y-12779184D01*
X19207206Y-12779184D02*
X19197682Y-12874422D01*
X19197682Y-12874422D02*
X19207206Y-12864898D01*
X19207206Y-12864898D02*
X19226253Y-12855374D01*
X19226253Y-12855374D02*
X19273872Y-12855374D01*
X19273872Y-12855374D02*
X19292920Y-12864898D01*
X19292920Y-12864898D02*
X19302444Y-12874422D01*
X19302444Y-12874422D02*
X19311968Y-12893469D01*
X19311968Y-12893469D02*
X19311968Y-12941088D01*
X19311968Y-12941088D02*
X19302444Y-12960136D01*
X19302444Y-12960136D02*
X19292920Y-12969660D01*
X19292920Y-12969660D02*
X19273872Y-12979184D01*
X19273872Y-12979184D02*
X19226253Y-12979184D01*
X19226253Y-12979184D02*
X19207206Y-12969660D01*
X19207206Y-12969660D02*
X19197682Y-12960136D01*
X19550063Y-12979184D02*
X19550063Y-12779184D01*
X19635777Y-12979184D02*
X19635777Y-12874422D01*
X19635777Y-12874422D02*
X19626253Y-12855374D01*
X19626253Y-12855374D02*
X19607206Y-12845850D01*
X19607206Y-12845850D02*
X19578634Y-12845850D01*
X19578634Y-12845850D02*
X19559587Y-12855374D01*
X19559587Y-12855374D02*
X19550063Y-12864898D01*
X19759587Y-12979184D02*
X19740539Y-12969660D01*
X19740539Y-12969660D02*
X19731015Y-12960136D01*
X19731015Y-12960136D02*
X19721492Y-12941088D01*
X19721492Y-12941088D02*
X19721492Y-12883946D01*
X19721492Y-12883946D02*
X19731015Y-12864898D01*
X19731015Y-12864898D02*
X19740539Y-12855374D01*
X19740539Y-12855374D02*
X19759587Y-12845850D01*
X19759587Y-12845850D02*
X19788158Y-12845850D01*
X19788158Y-12845850D02*
X19807206Y-12855374D01*
X19807206Y-12855374D02*
X19816730Y-12864898D01*
X19816730Y-12864898D02*
X19826253Y-12883946D01*
X19826253Y-12883946D02*
X19826253Y-12941088D01*
X19826253Y-12941088D02*
X19816730Y-12960136D01*
X19816730Y-12960136D02*
X19807206Y-12969660D01*
X19807206Y-12969660D02*
X19788158Y-12979184D01*
X19788158Y-12979184D02*
X19759587Y-12979184D01*
X19940539Y-12979184D02*
X19921492Y-12969660D01*
X19921492Y-12969660D02*
X19911968Y-12950612D01*
X19911968Y-12950612D02*
X19911968Y-12779184D01*
X20092920Y-12969660D02*
X20073873Y-12979184D01*
X20073873Y-12979184D02*
X20035777Y-12979184D01*
X20035777Y-12979184D02*
X20016730Y-12969660D01*
X20016730Y-12969660D02*
X20007206Y-12950612D01*
X20007206Y-12950612D02*
X20007206Y-12874422D01*
X20007206Y-12874422D02*
X20016730Y-12855374D01*
X20016730Y-12855374D02*
X20035777Y-12845850D01*
X20035777Y-12845850D02*
X20073873Y-12845850D01*
X20073873Y-12845850D02*
X20092920Y-12855374D01*
X20092920Y-12855374D02*
X20102444Y-12874422D01*
X20102444Y-12874422D02*
X20102444Y-12893469D01*
X20102444Y-12893469D02*
X20007206Y-12912517D01*
X20178634Y-12969660D02*
X20197682Y-12979184D01*
X20197682Y-12979184D02*
X20235777Y-12979184D01*
X20235777Y-12979184D02*
X20254825Y-12969660D01*
X20254825Y-12969660D02*
X20264349Y-12950612D01*
X20264349Y-12950612D02*
X20264349Y-12941088D01*
X20264349Y-12941088D02*
X20254825Y-12922041D01*
X20254825Y-12922041D02*
X20235777Y-12912517D01*
X20235777Y-12912517D02*
X20207206Y-12912517D01*
X20207206Y-12912517D02*
X20188158Y-12902993D01*
X20188158Y-12902993D02*
X20178634Y-12883946D01*
X20178634Y-12883946D02*
X20178634Y-12874422D01*
X20178634Y-12874422D02*
X20188158Y-12855374D01*
X20188158Y-12855374D02*
X20207206Y-12845850D01*
X20207206Y-12845850D02*
X20235777Y-12845850D01*
X20235777Y-12845850D02*
X20254825Y-12855374D01*
X20331015Y-13055374D02*
X20340539Y-13045850D01*
X20340539Y-13045850D02*
X20359587Y-13017279D01*
X20359587Y-13017279D02*
X20369111Y-12998231D01*
X20369111Y-12998231D02*
X20378634Y-12969660D01*
X20378634Y-12969660D02*
X20388158Y-12922041D01*
X20388158Y-12922041D02*
X20388158Y-12883946D01*
X20388158Y-12883946D02*
X20378634Y-12836327D01*
X20378634Y-12836327D02*
X20369111Y-12807755D01*
X20369111Y-12807755D02*
X20359587Y-12788708D01*
X20359587Y-12788708D02*
X20340539Y-12760136D01*
X20340539Y-12760136D02*
X20331015Y-12750612D01*
D11*
X15175000Y-13151700D02*
G75*
G02*
X15101000Y-13151700I-37000J0D01*
G01*
X15101000Y-13151700D02*
G75*
G02*
X15175000Y-13151700I37000J0D01*
G01*
D10*
X15473872Y-13043184D02*
X15492920Y-13043184D01*
X15492920Y-13043184D02*
X15511967Y-13052708D01*
X15511967Y-13052708D02*
X15521491Y-13062231D01*
X15521491Y-13062231D02*
X15531015Y-13081279D01*
X15531015Y-13081279D02*
X15540539Y-13119374D01*
X15540539Y-13119374D02*
X15540539Y-13166993D01*
X15540539Y-13166993D02*
X15531015Y-13205088D01*
X15531015Y-13205088D02*
X15521491Y-13224136D01*
X15521491Y-13224136D02*
X15511967Y-13233660D01*
X15511967Y-13233660D02*
X15492920Y-13243184D01*
X15492920Y-13243184D02*
X15473872Y-13243184D01*
X15473872Y-13243184D02*
X15454824Y-13233660D01*
X15454824Y-13233660D02*
X15445301Y-13224136D01*
X15445301Y-13224136D02*
X15435777Y-13205088D01*
X15435777Y-13205088D02*
X15426253Y-13166993D01*
X15426253Y-13166993D02*
X15426253Y-13119374D01*
X15426253Y-13119374D02*
X15435777Y-13081279D01*
X15435777Y-13081279D02*
X15445301Y-13062231D01*
X15445301Y-13062231D02*
X15454824Y-13052708D01*
X15454824Y-13052708D02*
X15473872Y-13043184D01*
X15626253Y-13224136D02*
X15635777Y-13233660D01*
X15635777Y-13233660D02*
X15626253Y-13243184D01*
X15626253Y-13243184D02*
X15616729Y-13233660D01*
X15616729Y-13233660D02*
X15626253Y-13224136D01*
X15626253Y-13224136D02*
X15626253Y-13243184D01*
X15702443Y-13043184D02*
X15835777Y-13043184D01*
X15835777Y-13043184D02*
X15750062Y-13243184D01*
X15997682Y-13109850D02*
X15997682Y-13243184D01*
X15950062Y-13033660D02*
X15902443Y-13176517D01*
X15902443Y-13176517D02*
X16026253Y-13176517D01*
X16140539Y-13043184D02*
X16159586Y-13043184D01*
X16159586Y-13043184D02*
X16178634Y-13052708D01*
X16178634Y-13052708D02*
X16188158Y-13062231D01*
X16188158Y-13062231D02*
X16197682Y-13081279D01*
X16197682Y-13081279D02*
X16207205Y-13119374D01*
X16207205Y-13119374D02*
X16207205Y-13166993D01*
X16207205Y-13166993D02*
X16197682Y-13205088D01*
X16197682Y-13205088D02*
X16188158Y-13224136D01*
X16188158Y-13224136D02*
X16178634Y-13233660D01*
X16178634Y-13233660D02*
X16159586Y-13243184D01*
X16159586Y-13243184D02*
X16140539Y-13243184D01*
X16140539Y-13243184D02*
X16121491Y-13233660D01*
X16121491Y-13233660D02*
X16111967Y-13224136D01*
X16111967Y-13224136D02*
X16102443Y-13205088D01*
X16102443Y-13205088D02*
X16092920Y-13166993D01*
X16092920Y-13166993D02*
X16092920Y-13119374D01*
X16092920Y-13119374D02*
X16102443Y-13081279D01*
X16102443Y-13081279D02*
X16111967Y-13062231D01*
X16111967Y-13062231D02*
X16121491Y-13052708D01*
X16121491Y-13052708D02*
X16140539Y-13043184D01*
X16292920Y-13243184D02*
X16292920Y-13109850D01*
X16292920Y-13128898D02*
X16302443Y-13119374D01*
X16302443Y-13119374D02*
X16321491Y-13109850D01*
X16321491Y-13109850D02*
X16350063Y-13109850D01*
X16350063Y-13109850D02*
X16369110Y-13119374D01*
X16369110Y-13119374D02*
X16378634Y-13138422D01*
X16378634Y-13138422D02*
X16378634Y-13243184D01*
X16378634Y-13138422D02*
X16388158Y-13119374D01*
X16388158Y-13119374D02*
X16407205Y-13109850D01*
X16407205Y-13109850D02*
X16435777Y-13109850D01*
X16435777Y-13109850D02*
X16454824Y-13119374D01*
X16454824Y-13119374D02*
X16464348Y-13138422D01*
X16464348Y-13138422D02*
X16464348Y-13243184D01*
X16559586Y-13243184D02*
X16559586Y-13109850D01*
X16559586Y-13128898D02*
X16569110Y-13119374D01*
X16569110Y-13119374D02*
X16588158Y-13109850D01*
X16588158Y-13109850D02*
X16616729Y-13109850D01*
X16616729Y-13109850D02*
X16635777Y-13119374D01*
X16635777Y-13119374D02*
X16645301Y-13138422D01*
X16645301Y-13138422D02*
X16645301Y-13243184D01*
X16645301Y-13138422D02*
X16654824Y-13119374D01*
X16654824Y-13119374D02*
X16673872Y-13109850D01*
X16673872Y-13109850D02*
X16702443Y-13109850D01*
X16702443Y-13109850D02*
X16721491Y-13119374D01*
X16721491Y-13119374D02*
X16731015Y-13138422D01*
X16731015Y-13138422D02*
X16731015Y-13243184D01*
X17121491Y-13033660D02*
X16950063Y-13290803D01*
X17378634Y-13043184D02*
X17397682Y-13043184D01*
X17397682Y-13043184D02*
X17416729Y-13052708D01*
X17416729Y-13052708D02*
X17426253Y-13062231D01*
X17426253Y-13062231D02*
X17435777Y-13081279D01*
X17435777Y-13081279D02*
X17445301Y-13119374D01*
X17445301Y-13119374D02*
X17445301Y-13166993D01*
X17445301Y-13166993D02*
X17435777Y-13205088D01*
X17435777Y-13205088D02*
X17426253Y-13224136D01*
X17426253Y-13224136D02*
X17416729Y-13233660D01*
X17416729Y-13233660D02*
X17397682Y-13243184D01*
X17397682Y-13243184D02*
X17378634Y-13243184D01*
X17378634Y-13243184D02*
X17359587Y-13233660D01*
X17359587Y-13233660D02*
X17350063Y-13224136D01*
X17350063Y-13224136D02*
X17340539Y-13205088D01*
X17340539Y-13205088D02*
X17331015Y-13166993D01*
X17331015Y-13166993D02*
X17331015Y-13119374D01*
X17331015Y-13119374D02*
X17340539Y-13081279D01*
X17340539Y-13081279D02*
X17350063Y-13062231D01*
X17350063Y-13062231D02*
X17359587Y-13052708D01*
X17359587Y-13052708D02*
X17378634Y-13043184D01*
X17531015Y-13224136D02*
X17540539Y-13233660D01*
X17540539Y-13233660D02*
X17531015Y-13243184D01*
X17531015Y-13243184D02*
X17521491Y-13233660D01*
X17521491Y-13233660D02*
X17531015Y-13224136D01*
X17531015Y-13224136D02*
X17531015Y-13243184D01*
X17664348Y-13043184D02*
X17683396Y-13043184D01*
X17683396Y-13043184D02*
X17702444Y-13052708D01*
X17702444Y-13052708D02*
X17711968Y-13062231D01*
X17711968Y-13062231D02*
X17721491Y-13081279D01*
X17721491Y-13081279D02*
X17731015Y-13119374D01*
X17731015Y-13119374D02*
X17731015Y-13166993D01*
X17731015Y-13166993D02*
X17721491Y-13205088D01*
X17721491Y-13205088D02*
X17711968Y-13224136D01*
X17711968Y-13224136D02*
X17702444Y-13233660D01*
X17702444Y-13233660D02*
X17683396Y-13243184D01*
X17683396Y-13243184D02*
X17664348Y-13243184D01*
X17664348Y-13243184D02*
X17645301Y-13233660D01*
X17645301Y-13233660D02*
X17635777Y-13224136D01*
X17635777Y-13224136D02*
X17626253Y-13205088D01*
X17626253Y-13205088D02*
X17616729Y-13166993D01*
X17616729Y-13166993D02*
X17616729Y-13119374D01*
X17616729Y-13119374D02*
X17626253Y-13081279D01*
X17626253Y-13081279D02*
X17635777Y-13062231D01*
X17635777Y-13062231D02*
X17645301Y-13052708D01*
X17645301Y-13052708D02*
X17664348Y-13043184D01*
X17807206Y-13062231D02*
X17816729Y-13052708D01*
X17816729Y-13052708D02*
X17835777Y-13043184D01*
X17835777Y-13043184D02*
X17883396Y-13043184D01*
X17883396Y-13043184D02*
X17902444Y-13052708D01*
X17902444Y-13052708D02*
X17911968Y-13062231D01*
X17911968Y-13062231D02*
X17921491Y-13081279D01*
X17921491Y-13081279D02*
X17921491Y-13100327D01*
X17921491Y-13100327D02*
X17911968Y-13128898D01*
X17911968Y-13128898D02*
X17797682Y-13243184D01*
X17797682Y-13243184D02*
X17921491Y-13243184D01*
X18016729Y-13243184D02*
X18054825Y-13243184D01*
X18054825Y-13243184D02*
X18073872Y-13233660D01*
X18073872Y-13233660D02*
X18083396Y-13224136D01*
X18083396Y-13224136D02*
X18102444Y-13195565D01*
X18102444Y-13195565D02*
X18111968Y-13157469D01*
X18111968Y-13157469D02*
X18111968Y-13081279D01*
X18111968Y-13081279D02*
X18102444Y-13062231D01*
X18102444Y-13062231D02*
X18092920Y-13052708D01*
X18092920Y-13052708D02*
X18073872Y-13043184D01*
X18073872Y-13043184D02*
X18035777Y-13043184D01*
X18035777Y-13043184D02*
X18016729Y-13052708D01*
X18016729Y-13052708D02*
X18007206Y-13062231D01*
X18007206Y-13062231D02*
X17997682Y-13081279D01*
X17997682Y-13081279D02*
X17997682Y-13128898D01*
X17997682Y-13128898D02*
X18007206Y-13147946D01*
X18007206Y-13147946D02*
X18016729Y-13157469D01*
X18016729Y-13157469D02*
X18035777Y-13166993D01*
X18035777Y-13166993D02*
X18073872Y-13166993D01*
X18073872Y-13166993D02*
X18092920Y-13157469D01*
X18092920Y-13157469D02*
X18102444Y-13147946D01*
X18102444Y-13147946D02*
X18111968Y-13128898D01*
X18302444Y-13243184D02*
X18188158Y-13243184D01*
X18245301Y-13243184D02*
X18245301Y-13043184D01*
X18245301Y-13043184D02*
X18226253Y-13071755D01*
X18226253Y-13071755D02*
X18207206Y-13090803D01*
X18207206Y-13090803D02*
X18188158Y-13100327D01*
X18378634Y-13043184D02*
X18378634Y-13081279D01*
X18454825Y-13043184D02*
X18454825Y-13081279D01*
X18750063Y-13319374D02*
X18740539Y-13309850D01*
X18740539Y-13309850D02*
X18721491Y-13281279D01*
X18721491Y-13281279D02*
X18711968Y-13262231D01*
X18711968Y-13262231D02*
X18702444Y-13233660D01*
X18702444Y-13233660D02*
X18692920Y-13186041D01*
X18692920Y-13186041D02*
X18692920Y-13147946D01*
X18692920Y-13147946D02*
X18702444Y-13100327D01*
X18702444Y-13100327D02*
X18711968Y-13071755D01*
X18711968Y-13071755D02*
X18721491Y-13052708D01*
X18721491Y-13052708D02*
X18740539Y-13024136D01*
X18740539Y-13024136D02*
X18750063Y-13014612D01*
X18921491Y-13043184D02*
X18826253Y-13043184D01*
X18826253Y-13043184D02*
X18816730Y-13138422D01*
X18816730Y-13138422D02*
X18826253Y-13128898D01*
X18826253Y-13128898D02*
X18845301Y-13119374D01*
X18845301Y-13119374D02*
X18892920Y-13119374D01*
X18892920Y-13119374D02*
X18911968Y-13128898D01*
X18911968Y-13128898D02*
X18921491Y-13138422D01*
X18921491Y-13138422D02*
X18931015Y-13157469D01*
X18931015Y-13157469D02*
X18931015Y-13205088D01*
X18931015Y-13205088D02*
X18921491Y-13224136D01*
X18921491Y-13224136D02*
X18911968Y-13233660D01*
X18911968Y-13233660D02*
X18892920Y-13243184D01*
X18892920Y-13243184D02*
X18845301Y-13243184D01*
X18845301Y-13243184D02*
X18826253Y-13233660D01*
X18826253Y-13233660D02*
X18816730Y-13224136D01*
X19169111Y-13243184D02*
X19169111Y-13043184D01*
X19254825Y-13243184D02*
X19254825Y-13138422D01*
X19254825Y-13138422D02*
X19245301Y-13119374D01*
X19245301Y-13119374D02*
X19226253Y-13109850D01*
X19226253Y-13109850D02*
X19197682Y-13109850D01*
X19197682Y-13109850D02*
X19178634Y-13119374D01*
X19178634Y-13119374D02*
X19169111Y-13128898D01*
X19378634Y-13243184D02*
X19359587Y-13233660D01*
X19359587Y-13233660D02*
X19350063Y-13224136D01*
X19350063Y-13224136D02*
X19340539Y-13205088D01*
X19340539Y-13205088D02*
X19340539Y-13147946D01*
X19340539Y-13147946D02*
X19350063Y-13128898D01*
X19350063Y-13128898D02*
X19359587Y-13119374D01*
X19359587Y-13119374D02*
X19378634Y-13109850D01*
X19378634Y-13109850D02*
X19407206Y-13109850D01*
X19407206Y-13109850D02*
X19426253Y-13119374D01*
X19426253Y-13119374D02*
X19435777Y-13128898D01*
X19435777Y-13128898D02*
X19445301Y-13147946D01*
X19445301Y-13147946D02*
X19445301Y-13205088D01*
X19445301Y-13205088D02*
X19435777Y-13224136D01*
X19435777Y-13224136D02*
X19426253Y-13233660D01*
X19426253Y-13233660D02*
X19407206Y-13243184D01*
X19407206Y-13243184D02*
X19378634Y-13243184D01*
X19559587Y-13243184D02*
X19540539Y-13233660D01*
X19540539Y-13233660D02*
X19531015Y-13214612D01*
X19531015Y-13214612D02*
X19531015Y-13043184D01*
X19711968Y-13233660D02*
X19692920Y-13243184D01*
X19692920Y-13243184D02*
X19654825Y-13243184D01*
X19654825Y-13243184D02*
X19635777Y-13233660D01*
X19635777Y-13233660D02*
X19626253Y-13214612D01*
X19626253Y-13214612D02*
X19626253Y-13138422D01*
X19626253Y-13138422D02*
X19635777Y-13119374D01*
X19635777Y-13119374D02*
X19654825Y-13109850D01*
X19654825Y-13109850D02*
X19692920Y-13109850D01*
X19692920Y-13109850D02*
X19711968Y-13119374D01*
X19711968Y-13119374D02*
X19721492Y-13138422D01*
X19721492Y-13138422D02*
X19721492Y-13157469D01*
X19721492Y-13157469D02*
X19626253Y-13176517D01*
X19797682Y-13233660D02*
X19816730Y-13243184D01*
X19816730Y-13243184D02*
X19854825Y-13243184D01*
X19854825Y-13243184D02*
X19873873Y-13233660D01*
X19873873Y-13233660D02*
X19883396Y-13214612D01*
X19883396Y-13214612D02*
X19883396Y-13205088D01*
X19883396Y-13205088D02*
X19873873Y-13186041D01*
X19873873Y-13186041D02*
X19854825Y-13176517D01*
X19854825Y-13176517D02*
X19826253Y-13176517D01*
X19826253Y-13176517D02*
X19807206Y-13166993D01*
X19807206Y-13166993D02*
X19797682Y-13147946D01*
X19797682Y-13147946D02*
X19797682Y-13138422D01*
X19797682Y-13138422D02*
X19807206Y-13119374D01*
X19807206Y-13119374D02*
X19826253Y-13109850D01*
X19826253Y-13109850D02*
X19854825Y-13109850D01*
X19854825Y-13109850D02*
X19873873Y-13119374D01*
X19950063Y-13319374D02*
X19959587Y-13309850D01*
X19959587Y-13309850D02*
X19978634Y-13281279D01*
X19978634Y-13281279D02*
X19988158Y-13262231D01*
X19988158Y-13262231D02*
X19997682Y-13233660D01*
X19997682Y-13233660D02*
X20007206Y-13186041D01*
X20007206Y-13186041D02*
X20007206Y-13147946D01*
X20007206Y-13147946D02*
X19997682Y-13100327D01*
X19997682Y-13100327D02*
X19988158Y-13071755D01*
X19988158Y-13071755D02*
X19978634Y-13052708D01*
X19978634Y-13052708D02*
X19959587Y-13024136D01*
X19959587Y-13024136D02*
X19950063Y-13014612D01*
D11*
X15135000Y-13375700D02*
X15135000Y-13455700D01*
X15095000Y-13415700D02*
X15175000Y-13415700D01*
D10*
X15473872Y-13307184D02*
X15492920Y-13307184D01*
X15492920Y-13307184D02*
X15511967Y-13316708D01*
X15511967Y-13316708D02*
X15521491Y-13326231D01*
X15521491Y-13326231D02*
X15531015Y-13345279D01*
X15531015Y-13345279D02*
X15540539Y-13383374D01*
X15540539Y-13383374D02*
X15540539Y-13430993D01*
X15540539Y-13430993D02*
X15531015Y-13469088D01*
X15531015Y-13469088D02*
X15521491Y-13488136D01*
X15521491Y-13488136D02*
X15511967Y-13497660D01*
X15511967Y-13497660D02*
X15492920Y-13507184D01*
X15492920Y-13507184D02*
X15473872Y-13507184D01*
X15473872Y-13507184D02*
X15454824Y-13497660D01*
X15454824Y-13497660D02*
X15445301Y-13488136D01*
X15445301Y-13488136D02*
X15435777Y-13469088D01*
X15435777Y-13469088D02*
X15426253Y-13430993D01*
X15426253Y-13430993D02*
X15426253Y-13383374D01*
X15426253Y-13383374D02*
X15435777Y-13345279D01*
X15435777Y-13345279D02*
X15445301Y-13326231D01*
X15445301Y-13326231D02*
X15454824Y-13316708D01*
X15454824Y-13316708D02*
X15473872Y-13307184D01*
X15626253Y-13488136D02*
X15635777Y-13497660D01*
X15635777Y-13497660D02*
X15626253Y-13507184D01*
X15626253Y-13507184D02*
X15616729Y-13497660D01*
X15616729Y-13497660D02*
X15626253Y-13488136D01*
X15626253Y-13488136D02*
X15626253Y-13507184D01*
X15750062Y-13392898D02*
X15731015Y-13383374D01*
X15731015Y-13383374D02*
X15721491Y-13373850D01*
X15721491Y-13373850D02*
X15711967Y-13354803D01*
X15711967Y-13354803D02*
X15711967Y-13345279D01*
X15711967Y-13345279D02*
X15721491Y-13326231D01*
X15721491Y-13326231D02*
X15731015Y-13316708D01*
X15731015Y-13316708D02*
X15750062Y-13307184D01*
X15750062Y-13307184D02*
X15788158Y-13307184D01*
X15788158Y-13307184D02*
X15807205Y-13316708D01*
X15807205Y-13316708D02*
X15816729Y-13326231D01*
X15816729Y-13326231D02*
X15826253Y-13345279D01*
X15826253Y-13345279D02*
X15826253Y-13354803D01*
X15826253Y-13354803D02*
X15816729Y-13373850D01*
X15816729Y-13373850D02*
X15807205Y-13383374D01*
X15807205Y-13383374D02*
X15788158Y-13392898D01*
X15788158Y-13392898D02*
X15750062Y-13392898D01*
X15750062Y-13392898D02*
X15731015Y-13402422D01*
X15731015Y-13402422D02*
X15721491Y-13411946D01*
X15721491Y-13411946D02*
X15711967Y-13430993D01*
X15711967Y-13430993D02*
X15711967Y-13469088D01*
X15711967Y-13469088D02*
X15721491Y-13488136D01*
X15721491Y-13488136D02*
X15731015Y-13497660D01*
X15731015Y-13497660D02*
X15750062Y-13507184D01*
X15750062Y-13507184D02*
X15788158Y-13507184D01*
X15788158Y-13507184D02*
X15807205Y-13497660D01*
X15807205Y-13497660D02*
X15816729Y-13488136D01*
X15816729Y-13488136D02*
X15826253Y-13469088D01*
X15826253Y-13469088D02*
X15826253Y-13430993D01*
X15826253Y-13430993D02*
X15816729Y-13411946D01*
X15816729Y-13411946D02*
X15807205Y-13402422D01*
X15807205Y-13402422D02*
X15788158Y-13392898D01*
X15950062Y-13307184D02*
X15969110Y-13307184D01*
X15969110Y-13307184D02*
X15988158Y-13316708D01*
X15988158Y-13316708D02*
X15997682Y-13326231D01*
X15997682Y-13326231D02*
X16007205Y-13345279D01*
X16007205Y-13345279D02*
X16016729Y-13383374D01*
X16016729Y-13383374D02*
X16016729Y-13430993D01*
X16016729Y-13430993D02*
X16007205Y-13469088D01*
X16007205Y-13469088D02*
X15997682Y-13488136D01*
X15997682Y-13488136D02*
X15988158Y-13497660D01*
X15988158Y-13497660D02*
X15969110Y-13507184D01*
X15969110Y-13507184D02*
X15950062Y-13507184D01*
X15950062Y-13507184D02*
X15931015Y-13497660D01*
X15931015Y-13497660D02*
X15921491Y-13488136D01*
X15921491Y-13488136D02*
X15911967Y-13469088D01*
X15911967Y-13469088D02*
X15902443Y-13430993D01*
X15902443Y-13430993D02*
X15902443Y-13383374D01*
X15902443Y-13383374D02*
X15911967Y-13345279D01*
X15911967Y-13345279D02*
X15921491Y-13326231D01*
X15921491Y-13326231D02*
X15931015Y-13316708D01*
X15931015Y-13316708D02*
X15950062Y-13307184D01*
X16140539Y-13307184D02*
X16159586Y-13307184D01*
X16159586Y-13307184D02*
X16178634Y-13316708D01*
X16178634Y-13316708D02*
X16188158Y-13326231D01*
X16188158Y-13326231D02*
X16197682Y-13345279D01*
X16197682Y-13345279D02*
X16207205Y-13383374D01*
X16207205Y-13383374D02*
X16207205Y-13430993D01*
X16207205Y-13430993D02*
X16197682Y-13469088D01*
X16197682Y-13469088D02*
X16188158Y-13488136D01*
X16188158Y-13488136D02*
X16178634Y-13497660D01*
X16178634Y-13497660D02*
X16159586Y-13507184D01*
X16159586Y-13507184D02*
X16140539Y-13507184D01*
X16140539Y-13507184D02*
X16121491Y-13497660D01*
X16121491Y-13497660D02*
X16111967Y-13488136D01*
X16111967Y-13488136D02*
X16102443Y-13469088D01*
X16102443Y-13469088D02*
X16092920Y-13430993D01*
X16092920Y-13430993D02*
X16092920Y-13383374D01*
X16092920Y-13383374D02*
X16102443Y-13345279D01*
X16102443Y-13345279D02*
X16111967Y-13326231D01*
X16111967Y-13326231D02*
X16121491Y-13316708D01*
X16121491Y-13316708D02*
X16140539Y-13307184D01*
X16292920Y-13507184D02*
X16292920Y-13373850D01*
X16292920Y-13392898D02*
X16302443Y-13383374D01*
X16302443Y-13383374D02*
X16321491Y-13373850D01*
X16321491Y-13373850D02*
X16350063Y-13373850D01*
X16350063Y-13373850D02*
X16369110Y-13383374D01*
X16369110Y-13383374D02*
X16378634Y-13402422D01*
X16378634Y-13402422D02*
X16378634Y-13507184D01*
X16378634Y-13402422D02*
X16388158Y-13383374D01*
X16388158Y-13383374D02*
X16407205Y-13373850D01*
X16407205Y-13373850D02*
X16435777Y-13373850D01*
X16435777Y-13373850D02*
X16454824Y-13383374D01*
X16454824Y-13383374D02*
X16464348Y-13402422D01*
X16464348Y-13402422D02*
X16464348Y-13507184D01*
X16559586Y-13507184D02*
X16559586Y-13373850D01*
X16559586Y-13392898D02*
X16569110Y-13383374D01*
X16569110Y-13383374D02*
X16588158Y-13373850D01*
X16588158Y-13373850D02*
X16616729Y-13373850D01*
X16616729Y-13373850D02*
X16635777Y-13383374D01*
X16635777Y-13383374D02*
X16645301Y-13402422D01*
X16645301Y-13402422D02*
X16645301Y-13507184D01*
X16645301Y-13402422D02*
X16654824Y-13383374D01*
X16654824Y-13383374D02*
X16673872Y-13373850D01*
X16673872Y-13373850D02*
X16702443Y-13373850D01*
X16702443Y-13373850D02*
X16721491Y-13383374D01*
X16721491Y-13383374D02*
X16731015Y-13402422D01*
X16731015Y-13402422D02*
X16731015Y-13507184D01*
X17121491Y-13297660D02*
X16950063Y-13554803D01*
X17378634Y-13307184D02*
X17397682Y-13307184D01*
X17397682Y-13307184D02*
X17416729Y-13316708D01*
X17416729Y-13316708D02*
X17426253Y-13326231D01*
X17426253Y-13326231D02*
X17435777Y-13345279D01*
X17435777Y-13345279D02*
X17445301Y-13383374D01*
X17445301Y-13383374D02*
X17445301Y-13430993D01*
X17445301Y-13430993D02*
X17435777Y-13469088D01*
X17435777Y-13469088D02*
X17426253Y-13488136D01*
X17426253Y-13488136D02*
X17416729Y-13497660D01*
X17416729Y-13497660D02*
X17397682Y-13507184D01*
X17397682Y-13507184D02*
X17378634Y-13507184D01*
X17378634Y-13507184D02*
X17359587Y-13497660D01*
X17359587Y-13497660D02*
X17350063Y-13488136D01*
X17350063Y-13488136D02*
X17340539Y-13469088D01*
X17340539Y-13469088D02*
X17331015Y-13430993D01*
X17331015Y-13430993D02*
X17331015Y-13383374D01*
X17331015Y-13383374D02*
X17340539Y-13345279D01*
X17340539Y-13345279D02*
X17350063Y-13326231D01*
X17350063Y-13326231D02*
X17359587Y-13316708D01*
X17359587Y-13316708D02*
X17378634Y-13307184D01*
X17531015Y-13488136D02*
X17540539Y-13497660D01*
X17540539Y-13497660D02*
X17531015Y-13507184D01*
X17531015Y-13507184D02*
X17521491Y-13497660D01*
X17521491Y-13497660D02*
X17531015Y-13488136D01*
X17531015Y-13488136D02*
X17531015Y-13507184D01*
X17664348Y-13307184D02*
X17683396Y-13307184D01*
X17683396Y-13307184D02*
X17702444Y-13316708D01*
X17702444Y-13316708D02*
X17711968Y-13326231D01*
X17711968Y-13326231D02*
X17721491Y-13345279D01*
X17721491Y-13345279D02*
X17731015Y-13383374D01*
X17731015Y-13383374D02*
X17731015Y-13430993D01*
X17731015Y-13430993D02*
X17721491Y-13469088D01*
X17721491Y-13469088D02*
X17711968Y-13488136D01*
X17711968Y-13488136D02*
X17702444Y-13497660D01*
X17702444Y-13497660D02*
X17683396Y-13507184D01*
X17683396Y-13507184D02*
X17664348Y-13507184D01*
X17664348Y-13507184D02*
X17645301Y-13497660D01*
X17645301Y-13497660D02*
X17635777Y-13488136D01*
X17635777Y-13488136D02*
X17626253Y-13469088D01*
X17626253Y-13469088D02*
X17616729Y-13430993D01*
X17616729Y-13430993D02*
X17616729Y-13383374D01*
X17616729Y-13383374D02*
X17626253Y-13345279D01*
X17626253Y-13345279D02*
X17635777Y-13326231D01*
X17635777Y-13326231D02*
X17645301Y-13316708D01*
X17645301Y-13316708D02*
X17664348Y-13307184D01*
X17797682Y-13307184D02*
X17921491Y-13307184D01*
X17921491Y-13307184D02*
X17854825Y-13383374D01*
X17854825Y-13383374D02*
X17883396Y-13383374D01*
X17883396Y-13383374D02*
X17902444Y-13392898D01*
X17902444Y-13392898D02*
X17911968Y-13402422D01*
X17911968Y-13402422D02*
X17921491Y-13421469D01*
X17921491Y-13421469D02*
X17921491Y-13469088D01*
X17921491Y-13469088D02*
X17911968Y-13488136D01*
X17911968Y-13488136D02*
X17902444Y-13497660D01*
X17902444Y-13497660D02*
X17883396Y-13507184D01*
X17883396Y-13507184D02*
X17826253Y-13507184D01*
X17826253Y-13507184D02*
X17807206Y-13497660D01*
X17807206Y-13497660D02*
X17797682Y-13488136D01*
X18111968Y-13507184D02*
X17997682Y-13507184D01*
X18054825Y-13507184D02*
X18054825Y-13307184D01*
X18054825Y-13307184D02*
X18035777Y-13335755D01*
X18035777Y-13335755D02*
X18016729Y-13354803D01*
X18016729Y-13354803D02*
X17997682Y-13364327D01*
X18292920Y-13307184D02*
X18197682Y-13307184D01*
X18197682Y-13307184D02*
X18188158Y-13402422D01*
X18188158Y-13402422D02*
X18197682Y-13392898D01*
X18197682Y-13392898D02*
X18216729Y-13383374D01*
X18216729Y-13383374D02*
X18264349Y-13383374D01*
X18264349Y-13383374D02*
X18283396Y-13392898D01*
X18283396Y-13392898D02*
X18292920Y-13402422D01*
X18292920Y-13402422D02*
X18302444Y-13421469D01*
X18302444Y-13421469D02*
X18302444Y-13469088D01*
X18302444Y-13469088D02*
X18292920Y-13488136D01*
X18292920Y-13488136D02*
X18283396Y-13497660D01*
X18283396Y-13497660D02*
X18264349Y-13507184D01*
X18264349Y-13507184D02*
X18216729Y-13507184D01*
X18216729Y-13507184D02*
X18197682Y-13497660D01*
X18197682Y-13497660D02*
X18188158Y-13488136D01*
X18378634Y-13307184D02*
X18378634Y-13345279D01*
X18454825Y-13307184D02*
X18454825Y-13345279D01*
X18750063Y-13583374D02*
X18740539Y-13573850D01*
X18740539Y-13573850D02*
X18721491Y-13545279D01*
X18721491Y-13545279D02*
X18711968Y-13526231D01*
X18711968Y-13526231D02*
X18702444Y-13497660D01*
X18702444Y-13497660D02*
X18692920Y-13450041D01*
X18692920Y-13450041D02*
X18692920Y-13411946D01*
X18692920Y-13411946D02*
X18702444Y-13364327D01*
X18702444Y-13364327D02*
X18711968Y-13335755D01*
X18711968Y-13335755D02*
X18721491Y-13316708D01*
X18721491Y-13316708D02*
X18740539Y-13288136D01*
X18740539Y-13288136D02*
X18750063Y-13278612D01*
X18854825Y-13392898D02*
X18835777Y-13383374D01*
X18835777Y-13383374D02*
X18826253Y-13373850D01*
X18826253Y-13373850D02*
X18816730Y-13354803D01*
X18816730Y-13354803D02*
X18816730Y-13345279D01*
X18816730Y-13345279D02*
X18826253Y-13326231D01*
X18826253Y-13326231D02*
X18835777Y-13316708D01*
X18835777Y-13316708D02*
X18854825Y-13307184D01*
X18854825Y-13307184D02*
X18892920Y-13307184D01*
X18892920Y-13307184D02*
X18911968Y-13316708D01*
X18911968Y-13316708D02*
X18921491Y-13326231D01*
X18921491Y-13326231D02*
X18931015Y-13345279D01*
X18931015Y-13345279D02*
X18931015Y-13354803D01*
X18931015Y-13354803D02*
X18921491Y-13373850D01*
X18921491Y-13373850D02*
X18911968Y-13383374D01*
X18911968Y-13383374D02*
X18892920Y-13392898D01*
X18892920Y-13392898D02*
X18854825Y-13392898D01*
X18854825Y-13392898D02*
X18835777Y-13402422D01*
X18835777Y-13402422D02*
X18826253Y-13411946D01*
X18826253Y-13411946D02*
X18816730Y-13430993D01*
X18816730Y-13430993D02*
X18816730Y-13469088D01*
X18816730Y-13469088D02*
X18826253Y-13488136D01*
X18826253Y-13488136D02*
X18835777Y-13497660D01*
X18835777Y-13497660D02*
X18854825Y-13507184D01*
X18854825Y-13507184D02*
X18892920Y-13507184D01*
X18892920Y-13507184D02*
X18911968Y-13497660D01*
X18911968Y-13497660D02*
X18921491Y-13488136D01*
X18921491Y-13488136D02*
X18931015Y-13469088D01*
X18931015Y-13469088D02*
X18931015Y-13430993D01*
X18931015Y-13430993D02*
X18921491Y-13411946D01*
X18921491Y-13411946D02*
X18911968Y-13402422D01*
X18911968Y-13402422D02*
X18892920Y-13392898D01*
X19169111Y-13507184D02*
X19169111Y-13307184D01*
X19254825Y-13507184D02*
X19254825Y-13402422D01*
X19254825Y-13402422D02*
X19245301Y-13383374D01*
X19245301Y-13383374D02*
X19226253Y-13373850D01*
X19226253Y-13373850D02*
X19197682Y-13373850D01*
X19197682Y-13373850D02*
X19178634Y-13383374D01*
X19178634Y-13383374D02*
X19169111Y-13392898D01*
X19378634Y-13507184D02*
X19359587Y-13497660D01*
X19359587Y-13497660D02*
X19350063Y-13488136D01*
X19350063Y-13488136D02*
X19340539Y-13469088D01*
X19340539Y-13469088D02*
X19340539Y-13411946D01*
X19340539Y-13411946D02*
X19350063Y-13392898D01*
X19350063Y-13392898D02*
X19359587Y-13383374D01*
X19359587Y-13383374D02*
X19378634Y-13373850D01*
X19378634Y-13373850D02*
X19407206Y-13373850D01*
X19407206Y-13373850D02*
X19426253Y-13383374D01*
X19426253Y-13383374D02*
X19435777Y-13392898D01*
X19435777Y-13392898D02*
X19445301Y-13411946D01*
X19445301Y-13411946D02*
X19445301Y-13469088D01*
X19445301Y-13469088D02*
X19435777Y-13488136D01*
X19435777Y-13488136D02*
X19426253Y-13497660D01*
X19426253Y-13497660D02*
X19407206Y-13507184D01*
X19407206Y-13507184D02*
X19378634Y-13507184D01*
X19559587Y-13507184D02*
X19540539Y-13497660D01*
X19540539Y-13497660D02*
X19531015Y-13478612D01*
X19531015Y-13478612D02*
X19531015Y-13307184D01*
X19711968Y-13497660D02*
X19692920Y-13507184D01*
X19692920Y-13507184D02*
X19654825Y-13507184D01*
X19654825Y-13507184D02*
X19635777Y-13497660D01*
X19635777Y-13497660D02*
X19626253Y-13478612D01*
X19626253Y-13478612D02*
X19626253Y-13402422D01*
X19626253Y-13402422D02*
X19635777Y-13383374D01*
X19635777Y-13383374D02*
X19654825Y-13373850D01*
X19654825Y-13373850D02*
X19692920Y-13373850D01*
X19692920Y-13373850D02*
X19711968Y-13383374D01*
X19711968Y-13383374D02*
X19721492Y-13402422D01*
X19721492Y-13402422D02*
X19721492Y-13421469D01*
X19721492Y-13421469D02*
X19626253Y-13440517D01*
X19797682Y-13497660D02*
X19816730Y-13507184D01*
X19816730Y-13507184D02*
X19854825Y-13507184D01*
X19854825Y-13507184D02*
X19873873Y-13497660D01*
X19873873Y-13497660D02*
X19883396Y-13478612D01*
X19883396Y-13478612D02*
X19883396Y-13469088D01*
X19883396Y-13469088D02*
X19873873Y-13450041D01*
X19873873Y-13450041D02*
X19854825Y-13440517D01*
X19854825Y-13440517D02*
X19826253Y-13440517D01*
X19826253Y-13440517D02*
X19807206Y-13430993D01*
X19807206Y-13430993D02*
X19797682Y-13411946D01*
X19797682Y-13411946D02*
X19797682Y-13402422D01*
X19797682Y-13402422D02*
X19807206Y-13383374D01*
X19807206Y-13383374D02*
X19826253Y-13373850D01*
X19826253Y-13373850D02*
X19854825Y-13373850D01*
X19854825Y-13373850D02*
X19873873Y-13383374D01*
X19950063Y-13583374D02*
X19959587Y-13573850D01*
X19959587Y-13573850D02*
X19978634Y-13545279D01*
X19978634Y-13545279D02*
X19988158Y-13526231D01*
X19988158Y-13526231D02*
X19997682Y-13497660D01*
X19997682Y-13497660D02*
X20007206Y-13450041D01*
X20007206Y-13450041D02*
X20007206Y-13411946D01*
X20007206Y-13411946D02*
X19997682Y-13364327D01*
X19997682Y-13364327D02*
X19988158Y-13335755D01*
X19988158Y-13335755D02*
X19978634Y-13316708D01*
X19978634Y-13316708D02*
X19959587Y-13288136D01*
X19959587Y-13288136D02*
X19950063Y-13278612D01*
D11*
X15160356Y-13715056D02*
X15160356Y-13644344D01*
X15089644Y-13644344D01*
X15089644Y-13715056D01*
X15160356Y-13715056D01*
D10*
X15540539Y-13771184D02*
X15426253Y-13771184D01*
X15483396Y-13771184D02*
X15483396Y-13571184D01*
X15483396Y-13571184D02*
X15464348Y-13599755D01*
X15464348Y-13599755D02*
X15445301Y-13618803D01*
X15445301Y-13618803D02*
X15426253Y-13628327D01*
X15626253Y-13752136D02*
X15635777Y-13761660D01*
X15635777Y-13761660D02*
X15626253Y-13771184D01*
X15626253Y-13771184D02*
X15616729Y-13761660D01*
X15616729Y-13761660D02*
X15626253Y-13752136D01*
X15626253Y-13752136D02*
X15626253Y-13771184D01*
X15759586Y-13571184D02*
X15778634Y-13571184D01*
X15778634Y-13571184D02*
X15797682Y-13580708D01*
X15797682Y-13580708D02*
X15807205Y-13590231D01*
X15807205Y-13590231D02*
X15816729Y-13609279D01*
X15816729Y-13609279D02*
X15826253Y-13647374D01*
X15826253Y-13647374D02*
X15826253Y-13694993D01*
X15826253Y-13694993D02*
X15816729Y-13733088D01*
X15816729Y-13733088D02*
X15807205Y-13752136D01*
X15807205Y-13752136D02*
X15797682Y-13761660D01*
X15797682Y-13761660D02*
X15778634Y-13771184D01*
X15778634Y-13771184D02*
X15759586Y-13771184D01*
X15759586Y-13771184D02*
X15740539Y-13761660D01*
X15740539Y-13761660D02*
X15731015Y-13752136D01*
X15731015Y-13752136D02*
X15721491Y-13733088D01*
X15721491Y-13733088D02*
X15711967Y-13694993D01*
X15711967Y-13694993D02*
X15711967Y-13647374D01*
X15711967Y-13647374D02*
X15721491Y-13609279D01*
X15721491Y-13609279D02*
X15731015Y-13590231D01*
X15731015Y-13590231D02*
X15740539Y-13580708D01*
X15740539Y-13580708D02*
X15759586Y-13571184D01*
X15950062Y-13571184D02*
X15969110Y-13571184D01*
X15969110Y-13571184D02*
X15988158Y-13580708D01*
X15988158Y-13580708D02*
X15997682Y-13590231D01*
X15997682Y-13590231D02*
X16007205Y-13609279D01*
X16007205Y-13609279D02*
X16016729Y-13647374D01*
X16016729Y-13647374D02*
X16016729Y-13694993D01*
X16016729Y-13694993D02*
X16007205Y-13733088D01*
X16007205Y-13733088D02*
X15997682Y-13752136D01*
X15997682Y-13752136D02*
X15988158Y-13761660D01*
X15988158Y-13761660D02*
X15969110Y-13771184D01*
X15969110Y-13771184D02*
X15950062Y-13771184D01*
X15950062Y-13771184D02*
X15931015Y-13761660D01*
X15931015Y-13761660D02*
X15921491Y-13752136D01*
X15921491Y-13752136D02*
X15911967Y-13733088D01*
X15911967Y-13733088D02*
X15902443Y-13694993D01*
X15902443Y-13694993D02*
X15902443Y-13647374D01*
X15902443Y-13647374D02*
X15911967Y-13609279D01*
X15911967Y-13609279D02*
X15921491Y-13590231D01*
X15921491Y-13590231D02*
X15931015Y-13580708D01*
X15931015Y-13580708D02*
X15950062Y-13571184D01*
X16140539Y-13571184D02*
X16159586Y-13571184D01*
X16159586Y-13571184D02*
X16178634Y-13580708D01*
X16178634Y-13580708D02*
X16188158Y-13590231D01*
X16188158Y-13590231D02*
X16197682Y-13609279D01*
X16197682Y-13609279D02*
X16207205Y-13647374D01*
X16207205Y-13647374D02*
X16207205Y-13694993D01*
X16207205Y-13694993D02*
X16197682Y-13733088D01*
X16197682Y-13733088D02*
X16188158Y-13752136D01*
X16188158Y-13752136D02*
X16178634Y-13761660D01*
X16178634Y-13761660D02*
X16159586Y-13771184D01*
X16159586Y-13771184D02*
X16140539Y-13771184D01*
X16140539Y-13771184D02*
X16121491Y-13761660D01*
X16121491Y-13761660D02*
X16111967Y-13752136D01*
X16111967Y-13752136D02*
X16102443Y-13733088D01*
X16102443Y-13733088D02*
X16092920Y-13694993D01*
X16092920Y-13694993D02*
X16092920Y-13647374D01*
X16092920Y-13647374D02*
X16102443Y-13609279D01*
X16102443Y-13609279D02*
X16111967Y-13590231D01*
X16111967Y-13590231D02*
X16121491Y-13580708D01*
X16121491Y-13580708D02*
X16140539Y-13571184D01*
X16292920Y-13771184D02*
X16292920Y-13637850D01*
X16292920Y-13656898D02*
X16302443Y-13647374D01*
X16302443Y-13647374D02*
X16321491Y-13637850D01*
X16321491Y-13637850D02*
X16350063Y-13637850D01*
X16350063Y-13637850D02*
X16369110Y-13647374D01*
X16369110Y-13647374D02*
X16378634Y-13666422D01*
X16378634Y-13666422D02*
X16378634Y-13771184D01*
X16378634Y-13666422D02*
X16388158Y-13647374D01*
X16388158Y-13647374D02*
X16407205Y-13637850D01*
X16407205Y-13637850D02*
X16435777Y-13637850D01*
X16435777Y-13637850D02*
X16454824Y-13647374D01*
X16454824Y-13647374D02*
X16464348Y-13666422D01*
X16464348Y-13666422D02*
X16464348Y-13771184D01*
X16559586Y-13771184D02*
X16559586Y-13637850D01*
X16559586Y-13656898D02*
X16569110Y-13647374D01*
X16569110Y-13647374D02*
X16588158Y-13637850D01*
X16588158Y-13637850D02*
X16616729Y-13637850D01*
X16616729Y-13637850D02*
X16635777Y-13647374D01*
X16635777Y-13647374D02*
X16645301Y-13666422D01*
X16645301Y-13666422D02*
X16645301Y-13771184D01*
X16645301Y-13666422D02*
X16654824Y-13647374D01*
X16654824Y-13647374D02*
X16673872Y-13637850D01*
X16673872Y-13637850D02*
X16702443Y-13637850D01*
X16702443Y-13637850D02*
X16721491Y-13647374D01*
X16721491Y-13647374D02*
X16731015Y-13666422D01*
X16731015Y-13666422D02*
X16731015Y-13771184D01*
X17121491Y-13561660D02*
X16950063Y-13818803D01*
X17378634Y-13571184D02*
X17397682Y-13571184D01*
X17397682Y-13571184D02*
X17416729Y-13580708D01*
X17416729Y-13580708D02*
X17426253Y-13590231D01*
X17426253Y-13590231D02*
X17435777Y-13609279D01*
X17435777Y-13609279D02*
X17445301Y-13647374D01*
X17445301Y-13647374D02*
X17445301Y-13694993D01*
X17445301Y-13694993D02*
X17435777Y-13733088D01*
X17435777Y-13733088D02*
X17426253Y-13752136D01*
X17426253Y-13752136D02*
X17416729Y-13761660D01*
X17416729Y-13761660D02*
X17397682Y-13771184D01*
X17397682Y-13771184D02*
X17378634Y-13771184D01*
X17378634Y-13771184D02*
X17359587Y-13761660D01*
X17359587Y-13761660D02*
X17350063Y-13752136D01*
X17350063Y-13752136D02*
X17340539Y-13733088D01*
X17340539Y-13733088D02*
X17331015Y-13694993D01*
X17331015Y-13694993D02*
X17331015Y-13647374D01*
X17331015Y-13647374D02*
X17340539Y-13609279D01*
X17340539Y-13609279D02*
X17350063Y-13590231D01*
X17350063Y-13590231D02*
X17359587Y-13580708D01*
X17359587Y-13580708D02*
X17378634Y-13571184D01*
X17531015Y-13752136D02*
X17540539Y-13761660D01*
X17540539Y-13761660D02*
X17531015Y-13771184D01*
X17531015Y-13771184D02*
X17521491Y-13761660D01*
X17521491Y-13761660D02*
X17531015Y-13752136D01*
X17531015Y-13752136D02*
X17531015Y-13771184D01*
X17664348Y-13571184D02*
X17683396Y-13571184D01*
X17683396Y-13571184D02*
X17702444Y-13580708D01*
X17702444Y-13580708D02*
X17711968Y-13590231D01*
X17711968Y-13590231D02*
X17721491Y-13609279D01*
X17721491Y-13609279D02*
X17731015Y-13647374D01*
X17731015Y-13647374D02*
X17731015Y-13694993D01*
X17731015Y-13694993D02*
X17721491Y-13733088D01*
X17721491Y-13733088D02*
X17711968Y-13752136D01*
X17711968Y-13752136D02*
X17702444Y-13761660D01*
X17702444Y-13761660D02*
X17683396Y-13771184D01*
X17683396Y-13771184D02*
X17664348Y-13771184D01*
X17664348Y-13771184D02*
X17645301Y-13761660D01*
X17645301Y-13761660D02*
X17635777Y-13752136D01*
X17635777Y-13752136D02*
X17626253Y-13733088D01*
X17626253Y-13733088D02*
X17616729Y-13694993D01*
X17616729Y-13694993D02*
X17616729Y-13647374D01*
X17616729Y-13647374D02*
X17626253Y-13609279D01*
X17626253Y-13609279D02*
X17635777Y-13590231D01*
X17635777Y-13590231D02*
X17645301Y-13580708D01*
X17645301Y-13580708D02*
X17664348Y-13571184D01*
X17797682Y-13571184D02*
X17921491Y-13571184D01*
X17921491Y-13571184D02*
X17854825Y-13647374D01*
X17854825Y-13647374D02*
X17883396Y-13647374D01*
X17883396Y-13647374D02*
X17902444Y-13656898D01*
X17902444Y-13656898D02*
X17911968Y-13666422D01*
X17911968Y-13666422D02*
X17921491Y-13685469D01*
X17921491Y-13685469D02*
X17921491Y-13733088D01*
X17921491Y-13733088D02*
X17911968Y-13752136D01*
X17911968Y-13752136D02*
X17902444Y-13761660D01*
X17902444Y-13761660D02*
X17883396Y-13771184D01*
X17883396Y-13771184D02*
X17826253Y-13771184D01*
X17826253Y-13771184D02*
X17807206Y-13761660D01*
X17807206Y-13761660D02*
X17797682Y-13752136D01*
X18016729Y-13771184D02*
X18054825Y-13771184D01*
X18054825Y-13771184D02*
X18073872Y-13761660D01*
X18073872Y-13761660D02*
X18083396Y-13752136D01*
X18083396Y-13752136D02*
X18102444Y-13723565D01*
X18102444Y-13723565D02*
X18111968Y-13685469D01*
X18111968Y-13685469D02*
X18111968Y-13609279D01*
X18111968Y-13609279D02*
X18102444Y-13590231D01*
X18102444Y-13590231D02*
X18092920Y-13580708D01*
X18092920Y-13580708D02*
X18073872Y-13571184D01*
X18073872Y-13571184D02*
X18035777Y-13571184D01*
X18035777Y-13571184D02*
X18016729Y-13580708D01*
X18016729Y-13580708D02*
X18007206Y-13590231D01*
X18007206Y-13590231D02*
X17997682Y-13609279D01*
X17997682Y-13609279D02*
X17997682Y-13656898D01*
X17997682Y-13656898D02*
X18007206Y-13675946D01*
X18007206Y-13675946D02*
X18016729Y-13685469D01*
X18016729Y-13685469D02*
X18035777Y-13694993D01*
X18035777Y-13694993D02*
X18073872Y-13694993D01*
X18073872Y-13694993D02*
X18092920Y-13685469D01*
X18092920Y-13685469D02*
X18102444Y-13675946D01*
X18102444Y-13675946D02*
X18111968Y-13656898D01*
X18283396Y-13637850D02*
X18283396Y-13771184D01*
X18235777Y-13561660D02*
X18188158Y-13704517D01*
X18188158Y-13704517D02*
X18311968Y-13704517D01*
X18378634Y-13571184D02*
X18378634Y-13609279D01*
X18454825Y-13571184D02*
X18454825Y-13609279D01*
X18750063Y-13847374D02*
X18740539Y-13837850D01*
X18740539Y-13837850D02*
X18721491Y-13809279D01*
X18721491Y-13809279D02*
X18711968Y-13790231D01*
X18711968Y-13790231D02*
X18702444Y-13761660D01*
X18702444Y-13761660D02*
X18692920Y-13714041D01*
X18692920Y-13714041D02*
X18692920Y-13675946D01*
X18692920Y-13675946D02*
X18702444Y-13628327D01*
X18702444Y-13628327D02*
X18711968Y-13599755D01*
X18711968Y-13599755D02*
X18721491Y-13580708D01*
X18721491Y-13580708D02*
X18740539Y-13552136D01*
X18740539Y-13552136D02*
X18750063Y-13542612D01*
X18807206Y-13571184D02*
X18940539Y-13571184D01*
X18940539Y-13571184D02*
X18854825Y-13771184D01*
X19054825Y-13571184D02*
X19073872Y-13571184D01*
X19073872Y-13571184D02*
X19092920Y-13580708D01*
X19092920Y-13580708D02*
X19102444Y-13590231D01*
X19102444Y-13590231D02*
X19111968Y-13609279D01*
X19111968Y-13609279D02*
X19121491Y-13647374D01*
X19121491Y-13647374D02*
X19121491Y-13694993D01*
X19121491Y-13694993D02*
X19111968Y-13733088D01*
X19111968Y-13733088D02*
X19102444Y-13752136D01*
X19102444Y-13752136D02*
X19092920Y-13761660D01*
X19092920Y-13761660D02*
X19073872Y-13771184D01*
X19073872Y-13771184D02*
X19054825Y-13771184D01*
X19054825Y-13771184D02*
X19035777Y-13761660D01*
X19035777Y-13761660D02*
X19026253Y-13752136D01*
X19026253Y-13752136D02*
X19016730Y-13733088D01*
X19016730Y-13733088D02*
X19007206Y-13694993D01*
X19007206Y-13694993D02*
X19007206Y-13647374D01*
X19007206Y-13647374D02*
X19016730Y-13609279D01*
X19016730Y-13609279D02*
X19026253Y-13590231D01*
X19026253Y-13590231D02*
X19035777Y-13580708D01*
X19035777Y-13580708D02*
X19054825Y-13571184D01*
X19359587Y-13771184D02*
X19359587Y-13571184D01*
X19445301Y-13771184D02*
X19445301Y-13666422D01*
X19445301Y-13666422D02*
X19435777Y-13647374D01*
X19435777Y-13647374D02*
X19416730Y-13637850D01*
X19416730Y-13637850D02*
X19388158Y-13637850D01*
X19388158Y-13637850D02*
X19369111Y-13647374D01*
X19369111Y-13647374D02*
X19359587Y-13656898D01*
X19569111Y-13771184D02*
X19550063Y-13761660D01*
X19550063Y-13761660D02*
X19540539Y-13752136D01*
X19540539Y-13752136D02*
X19531015Y-13733088D01*
X19531015Y-13733088D02*
X19531015Y-13675946D01*
X19531015Y-13675946D02*
X19540539Y-13656898D01*
X19540539Y-13656898D02*
X19550063Y-13647374D01*
X19550063Y-13647374D02*
X19569111Y-13637850D01*
X19569111Y-13637850D02*
X19597682Y-13637850D01*
X19597682Y-13637850D02*
X19616730Y-13647374D01*
X19616730Y-13647374D02*
X19626253Y-13656898D01*
X19626253Y-13656898D02*
X19635777Y-13675946D01*
X19635777Y-13675946D02*
X19635777Y-13733088D01*
X19635777Y-13733088D02*
X19626253Y-13752136D01*
X19626253Y-13752136D02*
X19616730Y-13761660D01*
X19616730Y-13761660D02*
X19597682Y-13771184D01*
X19597682Y-13771184D02*
X19569111Y-13771184D01*
X19750063Y-13771184D02*
X19731015Y-13761660D01*
X19731015Y-13761660D02*
X19721492Y-13742612D01*
X19721492Y-13742612D02*
X19721492Y-13571184D01*
X19902444Y-13761660D02*
X19883396Y-13771184D01*
X19883396Y-13771184D02*
X19845301Y-13771184D01*
X19845301Y-13771184D02*
X19826253Y-13761660D01*
X19826253Y-13761660D02*
X19816730Y-13742612D01*
X19816730Y-13742612D02*
X19816730Y-13666422D01*
X19816730Y-13666422D02*
X19826253Y-13647374D01*
X19826253Y-13647374D02*
X19845301Y-13637850D01*
X19845301Y-13637850D02*
X19883396Y-13637850D01*
X19883396Y-13637850D02*
X19902444Y-13647374D01*
X19902444Y-13647374D02*
X19911968Y-13666422D01*
X19911968Y-13666422D02*
X19911968Y-13685469D01*
X19911968Y-13685469D02*
X19816730Y-13704517D01*
X19988158Y-13761660D02*
X20007206Y-13771184D01*
X20007206Y-13771184D02*
X20045301Y-13771184D01*
X20045301Y-13771184D02*
X20064349Y-13761660D01*
X20064349Y-13761660D02*
X20073873Y-13742612D01*
X20073873Y-13742612D02*
X20073873Y-13733088D01*
X20073873Y-13733088D02*
X20064349Y-13714041D01*
X20064349Y-13714041D02*
X20045301Y-13704517D01*
X20045301Y-13704517D02*
X20016730Y-13704517D01*
X20016730Y-13704517D02*
X19997682Y-13694993D01*
X19997682Y-13694993D02*
X19988158Y-13675946D01*
X19988158Y-13675946D02*
X19988158Y-13666422D01*
X19988158Y-13666422D02*
X19997682Y-13647374D01*
X19997682Y-13647374D02*
X20016730Y-13637850D01*
X20016730Y-13637850D02*
X20045301Y-13637850D01*
X20045301Y-13637850D02*
X20064349Y-13647374D01*
X20140539Y-13847374D02*
X20150063Y-13837850D01*
X20150063Y-13837850D02*
X20169111Y-13809279D01*
X20169111Y-13809279D02*
X20178634Y-13790231D01*
X20178634Y-13790231D02*
X20188158Y-13761660D01*
X20188158Y-13761660D02*
X20197682Y-13714041D01*
X20197682Y-13714041D02*
X20197682Y-13675946D01*
X20197682Y-13675946D02*
X20188158Y-13628327D01*
X20188158Y-13628327D02*
X20178634Y-13599755D01*
X20178634Y-13599755D02*
X20169111Y-13580708D01*
X20169111Y-13580708D02*
X20150063Y-13552136D01*
X20150063Y-13552136D02*
X20140539Y-13542612D01*
D12*
X15120000Y-13998700D02*
X15175000Y-13943700D01*
X15120000Y-13888700D01*
X15065000Y-13943700D01*
X15120000Y-13998700D01*
D10*
X15540539Y-14035184D02*
X15426253Y-14035184D01*
X15483396Y-14035184D02*
X15483396Y-13835184D01*
X15483396Y-13835184D02*
X15464348Y-13863755D01*
X15464348Y-13863755D02*
X15445301Y-13882803D01*
X15445301Y-13882803D02*
X15426253Y-13892327D01*
X15626253Y-14016136D02*
X15635777Y-14025660D01*
X15635777Y-14025660D02*
X15626253Y-14035184D01*
X15626253Y-14035184D02*
X15616729Y-14025660D01*
X15616729Y-14025660D02*
X15626253Y-14016136D01*
X15626253Y-14016136D02*
X15626253Y-14035184D01*
X15826253Y-14035184D02*
X15711967Y-14035184D01*
X15769110Y-14035184D02*
X15769110Y-13835184D01*
X15769110Y-13835184D02*
X15750062Y-13863755D01*
X15750062Y-13863755D02*
X15731015Y-13882803D01*
X15731015Y-13882803D02*
X15711967Y-13892327D01*
X15950062Y-13835184D02*
X15969110Y-13835184D01*
X15969110Y-13835184D02*
X15988158Y-13844708D01*
X15988158Y-13844708D02*
X15997682Y-13854231D01*
X15997682Y-13854231D02*
X16007205Y-13873279D01*
X16007205Y-13873279D02*
X16016729Y-13911374D01*
X16016729Y-13911374D02*
X16016729Y-13958993D01*
X16016729Y-13958993D02*
X16007205Y-13997088D01*
X16007205Y-13997088D02*
X15997682Y-14016136D01*
X15997682Y-14016136D02*
X15988158Y-14025660D01*
X15988158Y-14025660D02*
X15969110Y-14035184D01*
X15969110Y-14035184D02*
X15950062Y-14035184D01*
X15950062Y-14035184D02*
X15931015Y-14025660D01*
X15931015Y-14025660D02*
X15921491Y-14016136D01*
X15921491Y-14016136D02*
X15911967Y-13997088D01*
X15911967Y-13997088D02*
X15902443Y-13958993D01*
X15902443Y-13958993D02*
X15902443Y-13911374D01*
X15902443Y-13911374D02*
X15911967Y-13873279D01*
X15911967Y-13873279D02*
X15921491Y-13854231D01*
X15921491Y-13854231D02*
X15931015Y-13844708D01*
X15931015Y-13844708D02*
X15950062Y-13835184D01*
X16140539Y-13835184D02*
X16159586Y-13835184D01*
X16159586Y-13835184D02*
X16178634Y-13844708D01*
X16178634Y-13844708D02*
X16188158Y-13854231D01*
X16188158Y-13854231D02*
X16197682Y-13873279D01*
X16197682Y-13873279D02*
X16207205Y-13911374D01*
X16207205Y-13911374D02*
X16207205Y-13958993D01*
X16207205Y-13958993D02*
X16197682Y-13997088D01*
X16197682Y-13997088D02*
X16188158Y-14016136D01*
X16188158Y-14016136D02*
X16178634Y-14025660D01*
X16178634Y-14025660D02*
X16159586Y-14035184D01*
X16159586Y-14035184D02*
X16140539Y-14035184D01*
X16140539Y-14035184D02*
X16121491Y-14025660D01*
X16121491Y-14025660D02*
X16111967Y-14016136D01*
X16111967Y-14016136D02*
X16102443Y-13997088D01*
X16102443Y-13997088D02*
X16092920Y-13958993D01*
X16092920Y-13958993D02*
X16092920Y-13911374D01*
X16092920Y-13911374D02*
X16102443Y-13873279D01*
X16102443Y-13873279D02*
X16111967Y-13854231D01*
X16111967Y-13854231D02*
X16121491Y-13844708D01*
X16121491Y-13844708D02*
X16140539Y-13835184D01*
X16292920Y-14035184D02*
X16292920Y-13901850D01*
X16292920Y-13920898D02*
X16302443Y-13911374D01*
X16302443Y-13911374D02*
X16321491Y-13901850D01*
X16321491Y-13901850D02*
X16350063Y-13901850D01*
X16350063Y-13901850D02*
X16369110Y-13911374D01*
X16369110Y-13911374D02*
X16378634Y-13930422D01*
X16378634Y-13930422D02*
X16378634Y-14035184D01*
X16378634Y-13930422D02*
X16388158Y-13911374D01*
X16388158Y-13911374D02*
X16407205Y-13901850D01*
X16407205Y-13901850D02*
X16435777Y-13901850D01*
X16435777Y-13901850D02*
X16454824Y-13911374D01*
X16454824Y-13911374D02*
X16464348Y-13930422D01*
X16464348Y-13930422D02*
X16464348Y-14035184D01*
X16559586Y-14035184D02*
X16559586Y-13901850D01*
X16559586Y-13920898D02*
X16569110Y-13911374D01*
X16569110Y-13911374D02*
X16588158Y-13901850D01*
X16588158Y-13901850D02*
X16616729Y-13901850D01*
X16616729Y-13901850D02*
X16635777Y-13911374D01*
X16635777Y-13911374D02*
X16645301Y-13930422D01*
X16645301Y-13930422D02*
X16645301Y-14035184D01*
X16645301Y-13930422D02*
X16654824Y-13911374D01*
X16654824Y-13911374D02*
X16673872Y-13901850D01*
X16673872Y-13901850D02*
X16702443Y-13901850D01*
X16702443Y-13901850D02*
X16721491Y-13911374D01*
X16721491Y-13911374D02*
X16731015Y-13930422D01*
X16731015Y-13930422D02*
X16731015Y-14035184D01*
X17121491Y-13825660D02*
X16950063Y-14082803D01*
X17378634Y-13835184D02*
X17397682Y-13835184D01*
X17397682Y-13835184D02*
X17416729Y-13844708D01*
X17416729Y-13844708D02*
X17426253Y-13854231D01*
X17426253Y-13854231D02*
X17435777Y-13873279D01*
X17435777Y-13873279D02*
X17445301Y-13911374D01*
X17445301Y-13911374D02*
X17445301Y-13958993D01*
X17445301Y-13958993D02*
X17435777Y-13997088D01*
X17435777Y-13997088D02*
X17426253Y-14016136D01*
X17426253Y-14016136D02*
X17416729Y-14025660D01*
X17416729Y-14025660D02*
X17397682Y-14035184D01*
X17397682Y-14035184D02*
X17378634Y-14035184D01*
X17378634Y-14035184D02*
X17359587Y-14025660D01*
X17359587Y-14025660D02*
X17350063Y-14016136D01*
X17350063Y-14016136D02*
X17340539Y-13997088D01*
X17340539Y-13997088D02*
X17331015Y-13958993D01*
X17331015Y-13958993D02*
X17331015Y-13911374D01*
X17331015Y-13911374D02*
X17340539Y-13873279D01*
X17340539Y-13873279D02*
X17350063Y-13854231D01*
X17350063Y-13854231D02*
X17359587Y-13844708D01*
X17359587Y-13844708D02*
X17378634Y-13835184D01*
X17531015Y-14016136D02*
X17540539Y-14025660D01*
X17540539Y-14025660D02*
X17531015Y-14035184D01*
X17531015Y-14035184D02*
X17521491Y-14025660D01*
X17521491Y-14025660D02*
X17531015Y-14016136D01*
X17531015Y-14016136D02*
X17531015Y-14035184D01*
X17664348Y-13835184D02*
X17683396Y-13835184D01*
X17683396Y-13835184D02*
X17702444Y-13844708D01*
X17702444Y-13844708D02*
X17711968Y-13854231D01*
X17711968Y-13854231D02*
X17721491Y-13873279D01*
X17721491Y-13873279D02*
X17731015Y-13911374D01*
X17731015Y-13911374D02*
X17731015Y-13958993D01*
X17731015Y-13958993D02*
X17721491Y-13997088D01*
X17721491Y-13997088D02*
X17711968Y-14016136D01*
X17711968Y-14016136D02*
X17702444Y-14025660D01*
X17702444Y-14025660D02*
X17683396Y-14035184D01*
X17683396Y-14035184D02*
X17664348Y-14035184D01*
X17664348Y-14035184D02*
X17645301Y-14025660D01*
X17645301Y-14025660D02*
X17635777Y-14016136D01*
X17635777Y-14016136D02*
X17626253Y-13997088D01*
X17626253Y-13997088D02*
X17616729Y-13958993D01*
X17616729Y-13958993D02*
X17616729Y-13911374D01*
X17616729Y-13911374D02*
X17626253Y-13873279D01*
X17626253Y-13873279D02*
X17635777Y-13854231D01*
X17635777Y-13854231D02*
X17645301Y-13844708D01*
X17645301Y-13844708D02*
X17664348Y-13835184D01*
X17902444Y-13901850D02*
X17902444Y-14035184D01*
X17854825Y-13825660D02*
X17807206Y-13968517D01*
X17807206Y-13968517D02*
X17931015Y-13968517D01*
X17988158Y-13835184D02*
X18111968Y-13835184D01*
X18111968Y-13835184D02*
X18045301Y-13911374D01*
X18045301Y-13911374D02*
X18073872Y-13911374D01*
X18073872Y-13911374D02*
X18092920Y-13920898D01*
X18092920Y-13920898D02*
X18102444Y-13930422D01*
X18102444Y-13930422D02*
X18111968Y-13949469D01*
X18111968Y-13949469D02*
X18111968Y-13997088D01*
X18111968Y-13997088D02*
X18102444Y-14016136D01*
X18102444Y-14016136D02*
X18092920Y-14025660D01*
X18092920Y-14025660D02*
X18073872Y-14035184D01*
X18073872Y-14035184D02*
X18016729Y-14035184D01*
X18016729Y-14035184D02*
X17997682Y-14025660D01*
X17997682Y-14025660D02*
X17988158Y-14016136D01*
X18178634Y-13835184D02*
X18302444Y-13835184D01*
X18302444Y-13835184D02*
X18235777Y-13911374D01*
X18235777Y-13911374D02*
X18264349Y-13911374D01*
X18264349Y-13911374D02*
X18283396Y-13920898D01*
X18283396Y-13920898D02*
X18292920Y-13930422D01*
X18292920Y-13930422D02*
X18302444Y-13949469D01*
X18302444Y-13949469D02*
X18302444Y-13997088D01*
X18302444Y-13997088D02*
X18292920Y-14016136D01*
X18292920Y-14016136D02*
X18283396Y-14025660D01*
X18283396Y-14025660D02*
X18264349Y-14035184D01*
X18264349Y-14035184D02*
X18207206Y-14035184D01*
X18207206Y-14035184D02*
X18188158Y-14025660D01*
X18188158Y-14025660D02*
X18178634Y-14016136D01*
X18378634Y-13835184D02*
X18378634Y-13873279D01*
X18454825Y-13835184D02*
X18454825Y-13873279D01*
X18750063Y-14111374D02*
X18740539Y-14101850D01*
X18740539Y-14101850D02*
X18721491Y-14073279D01*
X18721491Y-14073279D02*
X18711968Y-14054231D01*
X18711968Y-14054231D02*
X18702444Y-14025660D01*
X18702444Y-14025660D02*
X18692920Y-13978041D01*
X18692920Y-13978041D02*
X18692920Y-13939946D01*
X18692920Y-13939946D02*
X18702444Y-13892327D01*
X18702444Y-13892327D02*
X18711968Y-13863755D01*
X18711968Y-13863755D02*
X18721491Y-13844708D01*
X18721491Y-13844708D02*
X18740539Y-13816136D01*
X18740539Y-13816136D02*
X18750063Y-13806612D01*
X18911968Y-13901850D02*
X18911968Y-14035184D01*
X18864349Y-13825660D02*
X18816730Y-13968517D01*
X18816730Y-13968517D02*
X18940539Y-13968517D01*
X19169111Y-14035184D02*
X19169111Y-13835184D01*
X19254825Y-14035184D02*
X19254825Y-13930422D01*
X19254825Y-13930422D02*
X19245301Y-13911374D01*
X19245301Y-13911374D02*
X19226253Y-13901850D01*
X19226253Y-13901850D02*
X19197682Y-13901850D01*
X19197682Y-13901850D02*
X19178634Y-13911374D01*
X19178634Y-13911374D02*
X19169111Y-13920898D01*
X19378634Y-14035184D02*
X19359587Y-14025660D01*
X19359587Y-14025660D02*
X19350063Y-14016136D01*
X19350063Y-14016136D02*
X19340539Y-13997088D01*
X19340539Y-13997088D02*
X19340539Y-13939946D01*
X19340539Y-13939946D02*
X19350063Y-13920898D01*
X19350063Y-13920898D02*
X19359587Y-13911374D01*
X19359587Y-13911374D02*
X19378634Y-13901850D01*
X19378634Y-13901850D02*
X19407206Y-13901850D01*
X19407206Y-13901850D02*
X19426253Y-13911374D01*
X19426253Y-13911374D02*
X19435777Y-13920898D01*
X19435777Y-13920898D02*
X19445301Y-13939946D01*
X19445301Y-13939946D02*
X19445301Y-13997088D01*
X19445301Y-13997088D02*
X19435777Y-14016136D01*
X19435777Y-14016136D02*
X19426253Y-14025660D01*
X19426253Y-14025660D02*
X19407206Y-14035184D01*
X19407206Y-14035184D02*
X19378634Y-14035184D01*
X19559587Y-14035184D02*
X19540539Y-14025660D01*
X19540539Y-14025660D02*
X19531015Y-14006612D01*
X19531015Y-14006612D02*
X19531015Y-13835184D01*
X19711968Y-14025660D02*
X19692920Y-14035184D01*
X19692920Y-14035184D02*
X19654825Y-14035184D01*
X19654825Y-14035184D02*
X19635777Y-14025660D01*
X19635777Y-14025660D02*
X19626253Y-14006612D01*
X19626253Y-14006612D02*
X19626253Y-13930422D01*
X19626253Y-13930422D02*
X19635777Y-13911374D01*
X19635777Y-13911374D02*
X19654825Y-13901850D01*
X19654825Y-13901850D02*
X19692920Y-13901850D01*
X19692920Y-13901850D02*
X19711968Y-13911374D01*
X19711968Y-13911374D02*
X19721492Y-13930422D01*
X19721492Y-13930422D02*
X19721492Y-13949469D01*
X19721492Y-13949469D02*
X19626253Y-13968517D01*
X19797682Y-14025660D02*
X19816730Y-14035184D01*
X19816730Y-14035184D02*
X19854825Y-14035184D01*
X19854825Y-14035184D02*
X19873873Y-14025660D01*
X19873873Y-14025660D02*
X19883396Y-14006612D01*
X19883396Y-14006612D02*
X19883396Y-13997088D01*
X19883396Y-13997088D02*
X19873873Y-13978041D01*
X19873873Y-13978041D02*
X19854825Y-13968517D01*
X19854825Y-13968517D02*
X19826253Y-13968517D01*
X19826253Y-13968517D02*
X19807206Y-13958993D01*
X19807206Y-13958993D02*
X19797682Y-13939946D01*
X19797682Y-13939946D02*
X19797682Y-13930422D01*
X19797682Y-13930422D02*
X19807206Y-13911374D01*
X19807206Y-13911374D02*
X19826253Y-13901850D01*
X19826253Y-13901850D02*
X19854825Y-13901850D01*
X19854825Y-13901850D02*
X19873873Y-13911374D01*
X19950063Y-14111374D02*
X19959587Y-14101850D01*
X19959587Y-14101850D02*
X19978634Y-14073279D01*
X19978634Y-14073279D02*
X19988158Y-14054231D01*
X19988158Y-14054231D02*
X19997682Y-14025660D01*
X19997682Y-14025660D02*
X20007206Y-13978041D01*
X20007206Y-13978041D02*
X20007206Y-13939946D01*
X20007206Y-13939946D02*
X19997682Y-13892327D01*
X19997682Y-13892327D02*
X19988158Y-13863755D01*
X19988158Y-13863755D02*
X19978634Y-13844708D01*
X19978634Y-13844708D02*
X19959587Y-13816136D01*
X19959587Y-13816136D02*
X19950063Y-13806612D01*
D13*
X15055000Y-14147700D02*
X15175000Y-14267700D01*
X15175000Y-14147700D02*
X15055000Y-14267700D01*
X15175000Y-14207700D02*
G75*
G02*
X15055000Y-14207700I-60000J0D01*
G01*
X15055000Y-14207700D02*
G75*
G02*
X15175000Y-14207700I60000J0D01*
G01*
D10*
X15540539Y-14299184D02*
X15426253Y-14299184D01*
X15483396Y-14299184D02*
X15483396Y-14099184D01*
X15483396Y-14099184D02*
X15464348Y-14127755D01*
X15464348Y-14127755D02*
X15445301Y-14146803D01*
X15445301Y-14146803D02*
X15426253Y-14156327D01*
X15626253Y-14280136D02*
X15635777Y-14289660D01*
X15635777Y-14289660D02*
X15626253Y-14299184D01*
X15626253Y-14299184D02*
X15616729Y-14289660D01*
X15616729Y-14289660D02*
X15626253Y-14280136D01*
X15626253Y-14280136D02*
X15626253Y-14299184D01*
X15711967Y-14118231D02*
X15721491Y-14108708D01*
X15721491Y-14108708D02*
X15740539Y-14099184D01*
X15740539Y-14099184D02*
X15788158Y-14099184D01*
X15788158Y-14099184D02*
X15807205Y-14108708D01*
X15807205Y-14108708D02*
X15816729Y-14118231D01*
X15816729Y-14118231D02*
X15826253Y-14137279D01*
X15826253Y-14137279D02*
X15826253Y-14156327D01*
X15826253Y-14156327D02*
X15816729Y-14184898D01*
X15816729Y-14184898D02*
X15702443Y-14299184D01*
X15702443Y-14299184D02*
X15826253Y-14299184D01*
X15950062Y-14099184D02*
X15969110Y-14099184D01*
X15969110Y-14099184D02*
X15988158Y-14108708D01*
X15988158Y-14108708D02*
X15997682Y-14118231D01*
X15997682Y-14118231D02*
X16007205Y-14137279D01*
X16007205Y-14137279D02*
X16016729Y-14175374D01*
X16016729Y-14175374D02*
X16016729Y-14222993D01*
X16016729Y-14222993D02*
X16007205Y-14261088D01*
X16007205Y-14261088D02*
X15997682Y-14280136D01*
X15997682Y-14280136D02*
X15988158Y-14289660D01*
X15988158Y-14289660D02*
X15969110Y-14299184D01*
X15969110Y-14299184D02*
X15950062Y-14299184D01*
X15950062Y-14299184D02*
X15931015Y-14289660D01*
X15931015Y-14289660D02*
X15921491Y-14280136D01*
X15921491Y-14280136D02*
X15911967Y-14261088D01*
X15911967Y-14261088D02*
X15902443Y-14222993D01*
X15902443Y-14222993D02*
X15902443Y-14175374D01*
X15902443Y-14175374D02*
X15911967Y-14137279D01*
X15911967Y-14137279D02*
X15921491Y-14118231D01*
X15921491Y-14118231D02*
X15931015Y-14108708D01*
X15931015Y-14108708D02*
X15950062Y-14099184D01*
X16140539Y-14099184D02*
X16159586Y-14099184D01*
X16159586Y-14099184D02*
X16178634Y-14108708D01*
X16178634Y-14108708D02*
X16188158Y-14118231D01*
X16188158Y-14118231D02*
X16197682Y-14137279D01*
X16197682Y-14137279D02*
X16207205Y-14175374D01*
X16207205Y-14175374D02*
X16207205Y-14222993D01*
X16207205Y-14222993D02*
X16197682Y-14261088D01*
X16197682Y-14261088D02*
X16188158Y-14280136D01*
X16188158Y-14280136D02*
X16178634Y-14289660D01*
X16178634Y-14289660D02*
X16159586Y-14299184D01*
X16159586Y-14299184D02*
X16140539Y-14299184D01*
X16140539Y-14299184D02*
X16121491Y-14289660D01*
X16121491Y-14289660D02*
X16111967Y-14280136D01*
X16111967Y-14280136D02*
X16102443Y-14261088D01*
X16102443Y-14261088D02*
X16092920Y-14222993D01*
X16092920Y-14222993D02*
X16092920Y-14175374D01*
X16092920Y-14175374D02*
X16102443Y-14137279D01*
X16102443Y-14137279D02*
X16111967Y-14118231D01*
X16111967Y-14118231D02*
X16121491Y-14108708D01*
X16121491Y-14108708D02*
X16140539Y-14099184D01*
X16292920Y-14299184D02*
X16292920Y-14165850D01*
X16292920Y-14184898D02*
X16302443Y-14175374D01*
X16302443Y-14175374D02*
X16321491Y-14165850D01*
X16321491Y-14165850D02*
X16350063Y-14165850D01*
X16350063Y-14165850D02*
X16369110Y-14175374D01*
X16369110Y-14175374D02*
X16378634Y-14194422D01*
X16378634Y-14194422D02*
X16378634Y-14299184D01*
X16378634Y-14194422D02*
X16388158Y-14175374D01*
X16388158Y-14175374D02*
X16407205Y-14165850D01*
X16407205Y-14165850D02*
X16435777Y-14165850D01*
X16435777Y-14165850D02*
X16454824Y-14175374D01*
X16454824Y-14175374D02*
X16464348Y-14194422D01*
X16464348Y-14194422D02*
X16464348Y-14299184D01*
X16559586Y-14299184D02*
X16559586Y-14165850D01*
X16559586Y-14184898D02*
X16569110Y-14175374D01*
X16569110Y-14175374D02*
X16588158Y-14165850D01*
X16588158Y-14165850D02*
X16616729Y-14165850D01*
X16616729Y-14165850D02*
X16635777Y-14175374D01*
X16635777Y-14175374D02*
X16645301Y-14194422D01*
X16645301Y-14194422D02*
X16645301Y-14299184D01*
X16645301Y-14194422D02*
X16654824Y-14175374D01*
X16654824Y-14175374D02*
X16673872Y-14165850D01*
X16673872Y-14165850D02*
X16702443Y-14165850D01*
X16702443Y-14165850D02*
X16721491Y-14175374D01*
X16721491Y-14175374D02*
X16731015Y-14194422D01*
X16731015Y-14194422D02*
X16731015Y-14299184D01*
X17121491Y-14089660D02*
X16950063Y-14346803D01*
X17378634Y-14099184D02*
X17397682Y-14099184D01*
X17397682Y-14099184D02*
X17416729Y-14108708D01*
X17416729Y-14108708D02*
X17426253Y-14118231D01*
X17426253Y-14118231D02*
X17435777Y-14137279D01*
X17435777Y-14137279D02*
X17445301Y-14175374D01*
X17445301Y-14175374D02*
X17445301Y-14222993D01*
X17445301Y-14222993D02*
X17435777Y-14261088D01*
X17435777Y-14261088D02*
X17426253Y-14280136D01*
X17426253Y-14280136D02*
X17416729Y-14289660D01*
X17416729Y-14289660D02*
X17397682Y-14299184D01*
X17397682Y-14299184D02*
X17378634Y-14299184D01*
X17378634Y-14299184D02*
X17359587Y-14289660D01*
X17359587Y-14289660D02*
X17350063Y-14280136D01*
X17350063Y-14280136D02*
X17340539Y-14261088D01*
X17340539Y-14261088D02*
X17331015Y-14222993D01*
X17331015Y-14222993D02*
X17331015Y-14175374D01*
X17331015Y-14175374D02*
X17340539Y-14137279D01*
X17340539Y-14137279D02*
X17350063Y-14118231D01*
X17350063Y-14118231D02*
X17359587Y-14108708D01*
X17359587Y-14108708D02*
X17378634Y-14099184D01*
X17531015Y-14280136D02*
X17540539Y-14289660D01*
X17540539Y-14289660D02*
X17531015Y-14299184D01*
X17531015Y-14299184D02*
X17521491Y-14289660D01*
X17521491Y-14289660D02*
X17531015Y-14280136D01*
X17531015Y-14280136D02*
X17531015Y-14299184D01*
X17664348Y-14099184D02*
X17683396Y-14099184D01*
X17683396Y-14099184D02*
X17702444Y-14108708D01*
X17702444Y-14108708D02*
X17711968Y-14118231D01*
X17711968Y-14118231D02*
X17721491Y-14137279D01*
X17721491Y-14137279D02*
X17731015Y-14175374D01*
X17731015Y-14175374D02*
X17731015Y-14222993D01*
X17731015Y-14222993D02*
X17721491Y-14261088D01*
X17721491Y-14261088D02*
X17711968Y-14280136D01*
X17711968Y-14280136D02*
X17702444Y-14289660D01*
X17702444Y-14289660D02*
X17683396Y-14299184D01*
X17683396Y-14299184D02*
X17664348Y-14299184D01*
X17664348Y-14299184D02*
X17645301Y-14289660D01*
X17645301Y-14289660D02*
X17635777Y-14280136D01*
X17635777Y-14280136D02*
X17626253Y-14261088D01*
X17626253Y-14261088D02*
X17616729Y-14222993D01*
X17616729Y-14222993D02*
X17616729Y-14175374D01*
X17616729Y-14175374D02*
X17626253Y-14137279D01*
X17626253Y-14137279D02*
X17635777Y-14118231D01*
X17635777Y-14118231D02*
X17645301Y-14108708D01*
X17645301Y-14108708D02*
X17664348Y-14099184D01*
X17902444Y-14165850D02*
X17902444Y-14299184D01*
X17854825Y-14089660D02*
X17807206Y-14232517D01*
X17807206Y-14232517D02*
X17931015Y-14232517D01*
X17988158Y-14099184D02*
X18121491Y-14099184D01*
X18121491Y-14099184D02*
X18035777Y-14299184D01*
X18188158Y-14118231D02*
X18197682Y-14108708D01*
X18197682Y-14108708D02*
X18216729Y-14099184D01*
X18216729Y-14099184D02*
X18264349Y-14099184D01*
X18264349Y-14099184D02*
X18283396Y-14108708D01*
X18283396Y-14108708D02*
X18292920Y-14118231D01*
X18292920Y-14118231D02*
X18302444Y-14137279D01*
X18302444Y-14137279D02*
X18302444Y-14156327D01*
X18302444Y-14156327D02*
X18292920Y-14184898D01*
X18292920Y-14184898D02*
X18178634Y-14299184D01*
X18178634Y-14299184D02*
X18302444Y-14299184D01*
X18378634Y-14099184D02*
X18378634Y-14137279D01*
X18454825Y-14099184D02*
X18454825Y-14137279D01*
X18750063Y-14375374D02*
X18740539Y-14365850D01*
X18740539Y-14365850D02*
X18721491Y-14337279D01*
X18721491Y-14337279D02*
X18711968Y-14318231D01*
X18711968Y-14318231D02*
X18702444Y-14289660D01*
X18702444Y-14289660D02*
X18692920Y-14242041D01*
X18692920Y-14242041D02*
X18692920Y-14203946D01*
X18692920Y-14203946D02*
X18702444Y-14156327D01*
X18702444Y-14156327D02*
X18711968Y-14127755D01*
X18711968Y-14127755D02*
X18721491Y-14108708D01*
X18721491Y-14108708D02*
X18740539Y-14080136D01*
X18740539Y-14080136D02*
X18750063Y-14070612D01*
X18835777Y-14299184D02*
X18873872Y-14299184D01*
X18873872Y-14299184D02*
X18892920Y-14289660D01*
X18892920Y-14289660D02*
X18902444Y-14280136D01*
X18902444Y-14280136D02*
X18921491Y-14251565D01*
X18921491Y-14251565D02*
X18931015Y-14213469D01*
X18931015Y-14213469D02*
X18931015Y-14137279D01*
X18931015Y-14137279D02*
X18921491Y-14118231D01*
X18921491Y-14118231D02*
X18911968Y-14108708D01*
X18911968Y-14108708D02*
X18892920Y-14099184D01*
X18892920Y-14099184D02*
X18854825Y-14099184D01*
X18854825Y-14099184D02*
X18835777Y-14108708D01*
X18835777Y-14108708D02*
X18826253Y-14118231D01*
X18826253Y-14118231D02*
X18816730Y-14137279D01*
X18816730Y-14137279D02*
X18816730Y-14184898D01*
X18816730Y-14184898D02*
X18826253Y-14203946D01*
X18826253Y-14203946D02*
X18835777Y-14213469D01*
X18835777Y-14213469D02*
X18854825Y-14222993D01*
X18854825Y-14222993D02*
X18892920Y-14222993D01*
X18892920Y-14222993D02*
X18911968Y-14213469D01*
X18911968Y-14213469D02*
X18921491Y-14203946D01*
X18921491Y-14203946D02*
X18931015Y-14184898D01*
X19169111Y-14299184D02*
X19169111Y-14099184D01*
X19254825Y-14299184D02*
X19254825Y-14194422D01*
X19254825Y-14194422D02*
X19245301Y-14175374D01*
X19245301Y-14175374D02*
X19226253Y-14165850D01*
X19226253Y-14165850D02*
X19197682Y-14165850D01*
X19197682Y-14165850D02*
X19178634Y-14175374D01*
X19178634Y-14175374D02*
X19169111Y-14184898D01*
X19378634Y-14299184D02*
X19359587Y-14289660D01*
X19359587Y-14289660D02*
X19350063Y-14280136D01*
X19350063Y-14280136D02*
X19340539Y-14261088D01*
X19340539Y-14261088D02*
X19340539Y-14203946D01*
X19340539Y-14203946D02*
X19350063Y-14184898D01*
X19350063Y-14184898D02*
X19359587Y-14175374D01*
X19359587Y-14175374D02*
X19378634Y-14165850D01*
X19378634Y-14165850D02*
X19407206Y-14165850D01*
X19407206Y-14165850D02*
X19426253Y-14175374D01*
X19426253Y-14175374D02*
X19435777Y-14184898D01*
X19435777Y-14184898D02*
X19445301Y-14203946D01*
X19445301Y-14203946D02*
X19445301Y-14261088D01*
X19445301Y-14261088D02*
X19435777Y-14280136D01*
X19435777Y-14280136D02*
X19426253Y-14289660D01*
X19426253Y-14289660D02*
X19407206Y-14299184D01*
X19407206Y-14299184D02*
X19378634Y-14299184D01*
X19559587Y-14299184D02*
X19540539Y-14289660D01*
X19540539Y-14289660D02*
X19531015Y-14270612D01*
X19531015Y-14270612D02*
X19531015Y-14099184D01*
X19711968Y-14289660D02*
X19692920Y-14299184D01*
X19692920Y-14299184D02*
X19654825Y-14299184D01*
X19654825Y-14299184D02*
X19635777Y-14289660D01*
X19635777Y-14289660D02*
X19626253Y-14270612D01*
X19626253Y-14270612D02*
X19626253Y-14194422D01*
X19626253Y-14194422D02*
X19635777Y-14175374D01*
X19635777Y-14175374D02*
X19654825Y-14165850D01*
X19654825Y-14165850D02*
X19692920Y-14165850D01*
X19692920Y-14165850D02*
X19711968Y-14175374D01*
X19711968Y-14175374D02*
X19721492Y-14194422D01*
X19721492Y-14194422D02*
X19721492Y-14213469D01*
X19721492Y-14213469D02*
X19626253Y-14232517D01*
X19797682Y-14289660D02*
X19816730Y-14299184D01*
X19816730Y-14299184D02*
X19854825Y-14299184D01*
X19854825Y-14299184D02*
X19873873Y-14289660D01*
X19873873Y-14289660D02*
X19883396Y-14270612D01*
X19883396Y-14270612D02*
X19883396Y-14261088D01*
X19883396Y-14261088D02*
X19873873Y-14242041D01*
X19873873Y-14242041D02*
X19854825Y-14232517D01*
X19854825Y-14232517D02*
X19826253Y-14232517D01*
X19826253Y-14232517D02*
X19807206Y-14222993D01*
X19807206Y-14222993D02*
X19797682Y-14203946D01*
X19797682Y-14203946D02*
X19797682Y-14194422D01*
X19797682Y-14194422D02*
X19807206Y-14175374D01*
X19807206Y-14175374D02*
X19826253Y-14165850D01*
X19826253Y-14165850D02*
X19854825Y-14165850D01*
X19854825Y-14165850D02*
X19873873Y-14175374D01*
X19950063Y-14375374D02*
X19959587Y-14365850D01*
X19959587Y-14365850D02*
X19978634Y-14337279D01*
X19978634Y-14337279D02*
X19988158Y-14318231D01*
X19988158Y-14318231D02*
X19997682Y-14289660D01*
X19997682Y-14289660D02*
X20007206Y-14242041D01*
X20007206Y-14242041D02*
X20007206Y-14203946D01*
X20007206Y-14203946D02*
X19997682Y-14156327D01*
X19997682Y-14156327D02*
X19988158Y-14127755D01*
X19988158Y-14127755D02*
X19978634Y-14108708D01*
X19978634Y-14108708D02*
X19959587Y-14080136D01*
X19959587Y-14080136D02*
X19950063Y-14070612D01*
X14975000Y-14371700D02*
X15175000Y-14571700D01*
X15175000Y-14371700D02*
X14975000Y-14571700D01*
X15075000Y-14371700D02*
X15075000Y-14571700D01*
X14975000Y-14471700D02*
X15175000Y-14471700D01*
X15416729Y-14363184D02*
X15540539Y-14363184D01*
X15540539Y-14363184D02*
X15473872Y-14439374D01*
X15473872Y-14439374D02*
X15502443Y-14439374D01*
X15502443Y-14439374D02*
X15521491Y-14448898D01*
X15521491Y-14448898D02*
X15531015Y-14458422D01*
X15531015Y-14458422D02*
X15540539Y-14477469D01*
X15540539Y-14477469D02*
X15540539Y-14525088D01*
X15540539Y-14525088D02*
X15531015Y-14544136D01*
X15531015Y-14544136D02*
X15521491Y-14553660D01*
X15521491Y-14553660D02*
X15502443Y-14563184D01*
X15502443Y-14563184D02*
X15445301Y-14563184D01*
X15445301Y-14563184D02*
X15426253Y-14553660D01*
X15426253Y-14553660D02*
X15416729Y-14544136D01*
X15626253Y-14544136D02*
X15635777Y-14553660D01*
X15635777Y-14553660D02*
X15626253Y-14563184D01*
X15626253Y-14563184D02*
X15616729Y-14553660D01*
X15616729Y-14553660D02*
X15626253Y-14544136D01*
X15626253Y-14544136D02*
X15626253Y-14563184D01*
X15826253Y-14563184D02*
X15711967Y-14563184D01*
X15769110Y-14563184D02*
X15769110Y-14363184D01*
X15769110Y-14363184D02*
X15750062Y-14391755D01*
X15750062Y-14391755D02*
X15731015Y-14410803D01*
X15731015Y-14410803D02*
X15711967Y-14420327D01*
X15902443Y-14382231D02*
X15911967Y-14372708D01*
X15911967Y-14372708D02*
X15931015Y-14363184D01*
X15931015Y-14363184D02*
X15978634Y-14363184D01*
X15978634Y-14363184D02*
X15997682Y-14372708D01*
X15997682Y-14372708D02*
X16007205Y-14382231D01*
X16007205Y-14382231D02*
X16016729Y-14401279D01*
X16016729Y-14401279D02*
X16016729Y-14420327D01*
X16016729Y-14420327D02*
X16007205Y-14448898D01*
X16007205Y-14448898D02*
X15892920Y-14563184D01*
X15892920Y-14563184D02*
X16016729Y-14563184D01*
X16188158Y-14429850D02*
X16188158Y-14563184D01*
X16140539Y-14353660D02*
X16092920Y-14496517D01*
X16092920Y-14496517D02*
X16216729Y-14496517D01*
X16292920Y-14563184D02*
X16292920Y-14429850D01*
X16292920Y-14448898D02*
X16302443Y-14439374D01*
X16302443Y-14439374D02*
X16321491Y-14429850D01*
X16321491Y-14429850D02*
X16350063Y-14429850D01*
X16350063Y-14429850D02*
X16369110Y-14439374D01*
X16369110Y-14439374D02*
X16378634Y-14458422D01*
X16378634Y-14458422D02*
X16378634Y-14563184D01*
X16378634Y-14458422D02*
X16388158Y-14439374D01*
X16388158Y-14439374D02*
X16407205Y-14429850D01*
X16407205Y-14429850D02*
X16435777Y-14429850D01*
X16435777Y-14429850D02*
X16454824Y-14439374D01*
X16454824Y-14439374D02*
X16464348Y-14458422D01*
X16464348Y-14458422D02*
X16464348Y-14563184D01*
X16559586Y-14563184D02*
X16559586Y-14429850D01*
X16559586Y-14448898D02*
X16569110Y-14439374D01*
X16569110Y-14439374D02*
X16588158Y-14429850D01*
X16588158Y-14429850D02*
X16616729Y-14429850D01*
X16616729Y-14429850D02*
X16635777Y-14439374D01*
X16635777Y-14439374D02*
X16645301Y-14458422D01*
X16645301Y-14458422D02*
X16645301Y-14563184D01*
X16645301Y-14458422D02*
X16654824Y-14439374D01*
X16654824Y-14439374D02*
X16673872Y-14429850D01*
X16673872Y-14429850D02*
X16702443Y-14429850D01*
X16702443Y-14429850D02*
X16721491Y-14439374D01*
X16721491Y-14439374D02*
X16731015Y-14458422D01*
X16731015Y-14458422D02*
X16731015Y-14563184D01*
X17121491Y-14353660D02*
X16950063Y-14610803D01*
X17378634Y-14363184D02*
X17397682Y-14363184D01*
X17397682Y-14363184D02*
X17416729Y-14372708D01*
X17416729Y-14372708D02*
X17426253Y-14382231D01*
X17426253Y-14382231D02*
X17435777Y-14401279D01*
X17435777Y-14401279D02*
X17445301Y-14439374D01*
X17445301Y-14439374D02*
X17445301Y-14486993D01*
X17445301Y-14486993D02*
X17435777Y-14525088D01*
X17435777Y-14525088D02*
X17426253Y-14544136D01*
X17426253Y-14544136D02*
X17416729Y-14553660D01*
X17416729Y-14553660D02*
X17397682Y-14563184D01*
X17397682Y-14563184D02*
X17378634Y-14563184D01*
X17378634Y-14563184D02*
X17359587Y-14553660D01*
X17359587Y-14553660D02*
X17350063Y-14544136D01*
X17350063Y-14544136D02*
X17340539Y-14525088D01*
X17340539Y-14525088D02*
X17331015Y-14486993D01*
X17331015Y-14486993D02*
X17331015Y-14439374D01*
X17331015Y-14439374D02*
X17340539Y-14401279D01*
X17340539Y-14401279D02*
X17350063Y-14382231D01*
X17350063Y-14382231D02*
X17359587Y-14372708D01*
X17359587Y-14372708D02*
X17378634Y-14363184D01*
X17531015Y-14544136D02*
X17540539Y-14553660D01*
X17540539Y-14553660D02*
X17531015Y-14563184D01*
X17531015Y-14563184D02*
X17521491Y-14553660D01*
X17521491Y-14553660D02*
X17531015Y-14544136D01*
X17531015Y-14544136D02*
X17531015Y-14563184D01*
X17731015Y-14563184D02*
X17616729Y-14563184D01*
X17673872Y-14563184D02*
X17673872Y-14363184D01*
X17673872Y-14363184D02*
X17654825Y-14391755D01*
X17654825Y-14391755D02*
X17635777Y-14410803D01*
X17635777Y-14410803D02*
X17616729Y-14420327D01*
X17807206Y-14382231D02*
X17816729Y-14372708D01*
X17816729Y-14372708D02*
X17835777Y-14363184D01*
X17835777Y-14363184D02*
X17883396Y-14363184D01*
X17883396Y-14363184D02*
X17902444Y-14372708D01*
X17902444Y-14372708D02*
X17911968Y-14382231D01*
X17911968Y-14382231D02*
X17921491Y-14401279D01*
X17921491Y-14401279D02*
X17921491Y-14420327D01*
X17921491Y-14420327D02*
X17911968Y-14448898D01*
X17911968Y-14448898D02*
X17797682Y-14563184D01*
X17797682Y-14563184D02*
X17921491Y-14563184D01*
X17988158Y-14363184D02*
X18111968Y-14363184D01*
X18111968Y-14363184D02*
X18045301Y-14439374D01*
X18045301Y-14439374D02*
X18073872Y-14439374D01*
X18073872Y-14439374D02*
X18092920Y-14448898D01*
X18092920Y-14448898D02*
X18102444Y-14458422D01*
X18102444Y-14458422D02*
X18111968Y-14477469D01*
X18111968Y-14477469D02*
X18111968Y-14525088D01*
X18111968Y-14525088D02*
X18102444Y-14544136D01*
X18102444Y-14544136D02*
X18092920Y-14553660D01*
X18092920Y-14553660D02*
X18073872Y-14563184D01*
X18073872Y-14563184D02*
X18016729Y-14563184D01*
X18016729Y-14563184D02*
X17997682Y-14553660D01*
X17997682Y-14553660D02*
X17988158Y-14544136D01*
X18235777Y-14363184D02*
X18254825Y-14363184D01*
X18254825Y-14363184D02*
X18273872Y-14372708D01*
X18273872Y-14372708D02*
X18283396Y-14382231D01*
X18283396Y-14382231D02*
X18292920Y-14401279D01*
X18292920Y-14401279D02*
X18302444Y-14439374D01*
X18302444Y-14439374D02*
X18302444Y-14486993D01*
X18302444Y-14486993D02*
X18292920Y-14525088D01*
X18292920Y-14525088D02*
X18283396Y-14544136D01*
X18283396Y-14544136D02*
X18273872Y-14553660D01*
X18273872Y-14553660D02*
X18254825Y-14563184D01*
X18254825Y-14563184D02*
X18235777Y-14563184D01*
X18235777Y-14563184D02*
X18216729Y-14553660D01*
X18216729Y-14553660D02*
X18207206Y-14544136D01*
X18207206Y-14544136D02*
X18197682Y-14525088D01*
X18197682Y-14525088D02*
X18188158Y-14486993D01*
X18188158Y-14486993D02*
X18188158Y-14439374D01*
X18188158Y-14439374D02*
X18197682Y-14401279D01*
X18197682Y-14401279D02*
X18207206Y-14382231D01*
X18207206Y-14382231D02*
X18216729Y-14372708D01*
X18216729Y-14372708D02*
X18235777Y-14363184D01*
X18378634Y-14363184D02*
X18378634Y-14401279D01*
X18454825Y-14363184D02*
X18454825Y-14401279D01*
X18750063Y-14639374D02*
X18740539Y-14629850D01*
X18740539Y-14629850D02*
X18721491Y-14601279D01*
X18721491Y-14601279D02*
X18711968Y-14582231D01*
X18711968Y-14582231D02*
X18702444Y-14553660D01*
X18702444Y-14553660D02*
X18692920Y-14506041D01*
X18692920Y-14506041D02*
X18692920Y-14467946D01*
X18692920Y-14467946D02*
X18702444Y-14420327D01*
X18702444Y-14420327D02*
X18711968Y-14391755D01*
X18711968Y-14391755D02*
X18721491Y-14372708D01*
X18721491Y-14372708D02*
X18740539Y-14344136D01*
X18740539Y-14344136D02*
X18750063Y-14334612D01*
X18911968Y-14363184D02*
X18873872Y-14363184D01*
X18873872Y-14363184D02*
X18854825Y-14372708D01*
X18854825Y-14372708D02*
X18845301Y-14382231D01*
X18845301Y-14382231D02*
X18826253Y-14410803D01*
X18826253Y-14410803D02*
X18816730Y-14448898D01*
X18816730Y-14448898D02*
X18816730Y-14525088D01*
X18816730Y-14525088D02*
X18826253Y-14544136D01*
X18826253Y-14544136D02*
X18835777Y-14553660D01*
X18835777Y-14553660D02*
X18854825Y-14563184D01*
X18854825Y-14563184D02*
X18892920Y-14563184D01*
X18892920Y-14563184D02*
X18911968Y-14553660D01*
X18911968Y-14553660D02*
X18921491Y-14544136D01*
X18921491Y-14544136D02*
X18931015Y-14525088D01*
X18931015Y-14525088D02*
X18931015Y-14477469D01*
X18931015Y-14477469D02*
X18921491Y-14458422D01*
X18921491Y-14458422D02*
X18911968Y-14448898D01*
X18911968Y-14448898D02*
X18892920Y-14439374D01*
X18892920Y-14439374D02*
X18854825Y-14439374D01*
X18854825Y-14439374D02*
X18835777Y-14448898D01*
X18835777Y-14448898D02*
X18826253Y-14458422D01*
X18826253Y-14458422D02*
X18816730Y-14477469D01*
X19169111Y-14563184D02*
X19169111Y-14363184D01*
X19254825Y-14563184D02*
X19254825Y-14458422D01*
X19254825Y-14458422D02*
X19245301Y-14439374D01*
X19245301Y-14439374D02*
X19226253Y-14429850D01*
X19226253Y-14429850D02*
X19197682Y-14429850D01*
X19197682Y-14429850D02*
X19178634Y-14439374D01*
X19178634Y-14439374D02*
X19169111Y-14448898D01*
X19378634Y-14563184D02*
X19359587Y-14553660D01*
X19359587Y-14553660D02*
X19350063Y-14544136D01*
X19350063Y-14544136D02*
X19340539Y-14525088D01*
X19340539Y-14525088D02*
X19340539Y-14467946D01*
X19340539Y-14467946D02*
X19350063Y-14448898D01*
X19350063Y-14448898D02*
X19359587Y-14439374D01*
X19359587Y-14439374D02*
X19378634Y-14429850D01*
X19378634Y-14429850D02*
X19407206Y-14429850D01*
X19407206Y-14429850D02*
X19426253Y-14439374D01*
X19426253Y-14439374D02*
X19435777Y-14448898D01*
X19435777Y-14448898D02*
X19445301Y-14467946D01*
X19445301Y-14467946D02*
X19445301Y-14525088D01*
X19445301Y-14525088D02*
X19435777Y-14544136D01*
X19435777Y-14544136D02*
X19426253Y-14553660D01*
X19426253Y-14553660D02*
X19407206Y-14563184D01*
X19407206Y-14563184D02*
X19378634Y-14563184D01*
X19559587Y-14563184D02*
X19540539Y-14553660D01*
X19540539Y-14553660D02*
X19531015Y-14534612D01*
X19531015Y-14534612D02*
X19531015Y-14363184D01*
X19711968Y-14553660D02*
X19692920Y-14563184D01*
X19692920Y-14563184D02*
X19654825Y-14563184D01*
X19654825Y-14563184D02*
X19635777Y-14553660D01*
X19635777Y-14553660D02*
X19626253Y-14534612D01*
X19626253Y-14534612D02*
X19626253Y-14458422D01*
X19626253Y-14458422D02*
X19635777Y-14439374D01*
X19635777Y-14439374D02*
X19654825Y-14429850D01*
X19654825Y-14429850D02*
X19692920Y-14429850D01*
X19692920Y-14429850D02*
X19711968Y-14439374D01*
X19711968Y-14439374D02*
X19721492Y-14458422D01*
X19721492Y-14458422D02*
X19721492Y-14477469D01*
X19721492Y-14477469D02*
X19626253Y-14496517D01*
X19797682Y-14553660D02*
X19816730Y-14563184D01*
X19816730Y-14563184D02*
X19854825Y-14563184D01*
X19854825Y-14563184D02*
X19873873Y-14553660D01*
X19873873Y-14553660D02*
X19883396Y-14534612D01*
X19883396Y-14534612D02*
X19883396Y-14525088D01*
X19883396Y-14525088D02*
X19873873Y-14506041D01*
X19873873Y-14506041D02*
X19854825Y-14496517D01*
X19854825Y-14496517D02*
X19826253Y-14496517D01*
X19826253Y-14496517D02*
X19807206Y-14486993D01*
X19807206Y-14486993D02*
X19797682Y-14467946D01*
X19797682Y-14467946D02*
X19797682Y-14458422D01*
X19797682Y-14458422D02*
X19807206Y-14439374D01*
X19807206Y-14439374D02*
X19826253Y-14429850D01*
X19826253Y-14429850D02*
X19854825Y-14429850D01*
X19854825Y-14429850D02*
X19873873Y-14439374D01*
X19950063Y-14639374D02*
X19959587Y-14629850D01*
X19959587Y-14629850D02*
X19978634Y-14601279D01*
X19978634Y-14601279D02*
X19988158Y-14582231D01*
X19988158Y-14582231D02*
X19997682Y-14553660D01*
X19997682Y-14553660D02*
X20007206Y-14506041D01*
X20007206Y-14506041D02*
X20007206Y-14467946D01*
X20007206Y-14467946D02*
X19997682Y-14420327D01*
X19997682Y-14420327D02*
X19988158Y-14391755D01*
X19988158Y-14391755D02*
X19978634Y-14372708D01*
X19978634Y-14372708D02*
X19959587Y-14344136D01*
X19959587Y-14344136D02*
X19950063Y-14334612D01*
M02*
