%TF.GenerationSoftware,KiCad,Pcbnew,9.0.3*%
%TF.CreationDate,2026-07-21T21:09:37+02:00*%
%TF.ProjectId,Arduino_shield_2.0,41726475-696e-46f5-9f73-6869656c645f,B*%
%TF.SameCoordinates,Original*%
%TF.FileFunction,Paste,Top*%
%TF.FilePolarity,Positive*%
%FSLAX46Y46*%
G04 Gerber Fmt 4.6, Leading zero omitted, Abs format (unit mm)*
G04 Created by KiCad (PCBNEW 9.0.3) date 2026-07-21 21:09:37*
%MOMM*%
%LPD*%
G01*
G04 APERTURE LIST*
G04 Aperture macros list*
%AMRoundRect*
0 Rectangle with rounded corners*
0 $1 Rounding radius*
0 $2 $3 $4 $5 $6 $7 $8 $9 X,Y pos of 4 corners*
0 Add a 4 corners polygon primitive as box body*
4,1,4,$2,$3,$4,$5,$6,$7,$8,$9,$2,$3,0*
0 Add four circle primitives for the rounded corners*
1,1,$1+$1,$2,$3*
1,1,$1+$1,$4,$5*
1,1,$1+$1,$6,$7*
1,1,$1+$1,$8,$9*
0 Add four rect primitives between the rounded corners*
20,1,$1+$1,$2,$3,$4,$5,0*
20,1,$1+$1,$4,$5,$6,$7,0*
20,1,$1+$1,$6,$7,$8,$9,0*
20,1,$1+$1,$8,$9,$2,$3,0*%
%AMFreePoly0*
4,1,19,0.079643,0.182453,0.084467,0.178033,0.290533,-0.028033,0.312215,-0.074529,0.312500,-0.081066,0.312500,-0.125000,0.294953,-0.173209,0.250524,-0.198861,0.237500,-0.200000,-0.237500,-0.200000,-0.285709,-0.182453,-0.311361,-0.138024,-0.312500,-0.125000,-0.312500,0.125000,-0.294953,0.173209,-0.250524,0.198861,-0.237500,0.200000,0.031434,0.200000,0.079643,0.182453,0.079643,0.182453,
$1*%
%AMFreePoly1*
4,1,19,0.285709,0.182453,0.311361,0.138024,0.312500,0.125000,0.312500,0.081066,0.294953,0.032857,0.290533,0.028033,0.084467,-0.178033,0.037971,-0.199715,0.031434,-0.200000,-0.237500,-0.200000,-0.285709,-0.182453,-0.311361,-0.138024,-0.312500,-0.125000,-0.312500,0.125000,-0.294953,0.173209,-0.250524,0.198861,-0.237500,0.200000,0.237500,0.200000,0.285709,0.182453,0.285709,0.182453,
$1*%
%AMFreePoly2*
4,1,19,0.173209,0.294953,0.198861,0.250524,0.200000,0.237500,0.200000,-0.237500,0.182453,-0.285709,0.138024,-0.311361,0.125000,-0.312500,-0.125000,-0.312500,-0.173209,-0.294953,-0.198861,-0.250524,-0.200000,-0.237500,-0.200000,0.031434,-0.182453,0.079643,-0.178033,0.084467,0.028033,0.290533,0.074529,0.312215,0.081066,0.312500,0.125000,0.312500,0.173209,0.294953,0.173209,0.294953,
$1*%
%AMFreePoly3*
4,1,19,-0.032857,0.294953,-0.028033,0.290533,0.178033,0.084467,0.199715,0.037971,0.200000,0.031434,0.200000,-0.237500,0.182453,-0.285709,0.138024,-0.311361,0.125000,-0.312500,-0.125000,-0.312500,-0.173209,-0.294953,-0.198861,-0.250524,-0.200000,-0.237500,-0.200000,0.237500,-0.182453,0.285709,-0.138024,0.311361,-0.125000,0.312500,-0.081066,0.312500,-0.032857,0.294953,-0.032857,0.294953,
$1*%
%AMFreePoly4*
4,1,19,0.285709,0.182453,0.311361,0.138024,0.312500,0.125000,0.312500,-0.125000,0.294953,-0.173209,0.250524,-0.198861,0.237500,-0.200000,-0.031434,-0.200000,-0.079643,-0.182453,-0.084467,-0.178033,-0.290533,0.028033,-0.312215,0.074529,-0.312500,0.081066,-0.312500,0.125000,-0.294953,0.173209,-0.250524,0.198861,-0.237500,0.200000,0.237500,0.200000,0.285709,0.182453,0.285709,0.182453,
$1*%
%AMFreePoly5*
4,1,19,0.285709,0.182453,0.311361,0.138024,0.312500,0.125000,0.312500,-0.125000,0.294953,-0.173209,0.250524,-0.198861,0.237500,-0.200000,-0.237500,-0.200000,-0.285709,-0.182453,-0.311361,-0.138024,-0.312500,-0.125000,-0.312500,-0.081066,-0.294953,-0.032857,-0.290533,-0.028033,-0.084467,0.178033,-0.037971,0.199715,-0.031434,0.200000,0.237500,0.200000,0.285709,0.182453,0.285709,0.182453,
$1*%
%AMFreePoly6*
4,1,19,0.173209,0.294953,0.198861,0.250524,0.200000,0.237500,0.200000,-0.031434,0.182453,-0.079643,0.178033,-0.084467,-0.028033,-0.290533,-0.074529,-0.312215,-0.081066,-0.312500,-0.125000,-0.312500,-0.173209,-0.294953,-0.198861,-0.250524,-0.200000,-0.237500,-0.200000,0.237500,-0.182453,0.285709,-0.138024,0.311361,-0.125000,0.312500,0.125000,0.312500,0.173209,0.294953,0.173209,0.294953,
$1*%
%AMFreePoly7*
4,1,19,0.173209,0.294953,0.198861,0.250524,0.200000,0.237500,0.200000,-0.237500,0.182453,-0.285709,0.138024,-0.311361,0.125000,-0.312500,0.081066,-0.312500,0.032857,-0.294953,0.028033,-0.290533,-0.178033,-0.084467,-0.199715,-0.037971,-0.200000,-0.031434,-0.200000,0.237500,-0.182453,0.285709,-0.138024,0.311361,-0.125000,0.312500,0.125000,0.312500,0.173209,0.294953,0.173209,0.294953,
$1*%
G04 Aperture macros list end*
%ADD10RoundRect,0.200000X-0.275000X0.200000X-0.275000X-0.200000X0.275000X-0.200000X0.275000X0.200000X0*%
%ADD11RoundRect,0.218750X0.256250X-0.218750X0.256250X0.218750X-0.256250X0.218750X-0.256250X-0.218750X0*%
%ADD12RoundRect,0.250000X0.455000X-0.280000X0.455000X0.280000X-0.455000X0.280000X-0.455000X-0.280000X0*%
%ADD13RoundRect,0.150000X0.150000X-0.820000X0.150000X0.820000X-0.150000X0.820000X-0.150000X-0.820000X0*%
%ADD14R,0.800000X1.700000*%
%ADD15R,0.800000X1.100000*%
%ADD16RoundRect,0.200000X0.275000X-0.200000X0.275000X0.200000X-0.275000X0.200000X-0.275000X-0.200000X0*%
%ADD17RoundRect,0.225000X-0.225000X-0.250000X0.225000X-0.250000X0.225000X0.250000X-0.225000X0.250000X0*%
%ADD18RoundRect,0.250000X0.450000X-0.262500X0.450000X0.262500X-0.450000X0.262500X-0.450000X-0.262500X0*%
%ADD19R,0.700000X0.900000*%
%ADD20R,1.800000X0.450000*%
%ADD21R,1.000000X1.000000*%
%ADD22RoundRect,0.200000X-0.200000X-0.275000X0.200000X-0.275000X0.200000X0.275000X-0.200000X0.275000X0*%
%ADD23RoundRect,0.200000X0.200000X0.275000X-0.200000X0.275000X-0.200000X-0.275000X0.200000X-0.275000X0*%
%ADD24RoundRect,0.225000X-0.250000X0.225000X-0.250000X-0.225000X0.250000X-0.225000X0.250000X0.225000X0*%
%ADD25R,1.000000X1.650000*%
%ADD26RoundRect,0.225000X0.250000X-0.225000X0.250000X0.225000X-0.250000X0.225000X-0.250000X-0.225000X0*%
%ADD27RoundRect,0.150000X0.825000X0.150000X-0.825000X0.150000X-0.825000X-0.150000X0.825000X-0.150000X0*%
%ADD28RoundRect,0.150000X-0.587500X-0.150000X0.587500X-0.150000X0.587500X0.150000X-0.587500X0.150000X0*%
%ADD29R,1.400000X0.300000*%
%ADD30RoundRect,0.062500X-0.062500X0.127500X-0.062500X-0.127500X0.062500X-0.127500X0.062500X0.127500X0*%
%ADD31RoundRect,0.125000X-0.125000X0.125000X-0.125000X-0.125000X0.125000X-0.125000X0.125000X0.125000X0*%
%ADD32FreePoly0,90.000000*%
%ADD33RoundRect,0.100000X0.100000X-0.212500X0.100000X0.212500X-0.100000X0.212500X-0.100000X-0.212500X0*%
%ADD34FreePoly1,90.000000*%
%ADD35FreePoly2,90.000000*%
%ADD36RoundRect,0.100000X0.212500X-0.100000X0.212500X0.100000X-0.212500X0.100000X-0.212500X-0.100000X0*%
%ADD37FreePoly3,90.000000*%
%ADD38FreePoly4,90.000000*%
%ADD39FreePoly5,90.000000*%
%ADD40FreePoly6,90.000000*%
%ADD41FreePoly7,90.000000*%
%ADD42R,0.900000X1.200000*%
%ADD43RoundRect,0.150000X-0.825000X-0.150000X0.825000X-0.150000X0.825000X0.150000X-0.825000X0.150000X0*%
%ADD44R,0.939800X0.508000*%
%ADD45R,0.400000X0.400000*%
%ADD46RoundRect,0.250000X2.475000X-0.712500X2.475000X0.712500X-2.475000X0.712500X-2.475000X-0.712500X0*%
%ADD47RoundRect,0.225000X0.225000X0.250000X-0.225000X0.250000X-0.225000X-0.250000X0.225000X-0.250000X0*%
G04 APERTURE END LIST*
D10*
%TO.C,R12*%
X197733000Y-115573000D03*
X197733000Y-117223000D03*
%TD*%
D11*
%TO.C,D4*%
X197179000Y-113111500D03*
X197179000Y-111536500D03*
%TD*%
D10*
%TO.C,R19*%
X171601000Y-76004000D03*
X171601000Y-77654000D03*
%TD*%
D12*
%TO.C,U9*%
X161816000Y-83948000D03*
X163566000Y-83948000D03*
X161816000Y-82638000D03*
X163566000Y-82638000D03*
D13*
X160786000Y-85773000D03*
X162056000Y-85773000D03*
X163326000Y-85773000D03*
X164596000Y-85773000D03*
X164596000Y-80813000D03*
X163326000Y-80813000D03*
X162056000Y-80813000D03*
X160786000Y-80813000D03*
%TD*%
D14*
%TO.C,SW2*%
X156815000Y-89065000D03*
X153415000Y-89065000D03*
D15*
X155115000Y-87415000D03*
%TD*%
D16*
%TO.C,R10*%
X176169000Y-99529000D03*
X176169000Y-97879000D03*
%TD*%
D17*
%TO.C,C13*%
X168188000Y-81368000D03*
X169738000Y-81368000D03*
%TD*%
D10*
%TO.C,TH1*%
X174675000Y-97645000D03*
X174675000Y-99295000D03*
%TD*%
D18*
%TO.C,FB1*%
X156547000Y-82896500D03*
X156547000Y-81071500D03*
%TD*%
D19*
%TO.C,D5*%
X172011000Y-82685000D03*
X172961000Y-82685000D03*
X173911000Y-82685000D03*
X173911000Y-79885000D03*
X172961000Y-79885000D03*
X172011000Y-79885000D03*
%TD*%
D20*
%TO.C,U8*%
X201111000Y-105277000D03*
X201111000Y-104627000D03*
X201111000Y-103977000D03*
X201111000Y-103327000D03*
X201111000Y-102677000D03*
X201111000Y-102027000D03*
X201111000Y-101377000D03*
X201111000Y-100727000D03*
X201111000Y-100077000D03*
X201111000Y-99427000D03*
X201111000Y-98777000D03*
X201111000Y-98127000D03*
X201111000Y-97477000D03*
X201111000Y-96827000D03*
X194011000Y-96827000D03*
X194011000Y-97477000D03*
X194011000Y-98127000D03*
X194011000Y-98777000D03*
X194011000Y-99427000D03*
X194011000Y-100077000D03*
X194011000Y-100727000D03*
X194011000Y-101377000D03*
X194011000Y-102027000D03*
X194011000Y-102677000D03*
X194011000Y-103327000D03*
X194011000Y-103977000D03*
X194011000Y-104627000D03*
X194011000Y-105277000D03*
%TD*%
D21*
%TO.C,D9*%
X222445000Y-72404000D03*
X219945000Y-72404000D03*
%TD*%
D22*
%TO.C,R28*%
X166278000Y-87200000D03*
X167928000Y-87200000D03*
%TD*%
D10*
%TO.C,R2*%
X202149000Y-108509000D03*
X202149000Y-110159000D03*
%TD*%
D17*
%TO.C,C3*%
X194667000Y-93106000D03*
X196217000Y-93106000D03*
%TD*%
D22*
%TO.C,R14*%
X224870000Y-101898000D03*
X226520000Y-101898000D03*
%TD*%
D23*
%TO.C,R1*%
X204942000Y-87535000D03*
X203292000Y-87535000D03*
%TD*%
D11*
%TO.C,D2*%
X200494000Y-113134000D03*
X200494000Y-111559000D03*
%TD*%
D23*
%TO.C,R13*%
X210820000Y-111745000D03*
X209170000Y-111745000D03*
%TD*%
D17*
%TO.C,C6*%
X199166000Y-88837000D03*
X200716000Y-88837000D03*
%TD*%
D24*
%TO.C,C11*%
X208987000Y-102916000D03*
X208987000Y-104466000D03*
%TD*%
D25*
%TO.C,TH2*%
X220248000Y-70236000D03*
X222448000Y-70236000D03*
%TD*%
D26*
%TO.C,C9*%
X203346000Y-100167000D03*
X203346000Y-98617000D03*
%TD*%
D16*
%TO.C,R22*%
X210786000Y-117208000D03*
X210786000Y-115558000D03*
%TD*%
D10*
%TO.C,R17*%
X174722000Y-76015000D03*
X174722000Y-77665000D03*
%TD*%
%TO.C,R11*%
X197189000Y-108474000D03*
X197189000Y-110124000D03*
%TD*%
D27*
%TO.C,U1*%
X175248000Y-107039000D03*
X175248000Y-105769000D03*
X175248000Y-104499000D03*
X175248000Y-103229000D03*
X170298000Y-103229000D03*
X170298000Y-104499000D03*
X170298000Y-105769000D03*
X170298000Y-107039000D03*
%TD*%
D28*
%TO.C,Q2*%
X207088500Y-115238000D03*
X207088500Y-117138000D03*
X208963500Y-116188000D03*
%TD*%
D26*
%TO.C,C1*%
X168268000Y-107119000D03*
X168268000Y-105569000D03*
%TD*%
D23*
%TO.C,R27*%
X195154000Y-75813000D03*
X193504000Y-75813000D03*
%TD*%
D11*
%TO.C,D1*%
X202149000Y-113141500D03*
X202149000Y-111566500D03*
%TD*%
D29*
%TO.C,U5*%
X180921000Y-91584000D03*
X180921000Y-92084000D03*
X180921000Y-92584000D03*
X180921000Y-93084000D03*
X180921000Y-93584000D03*
X185321000Y-93584000D03*
X185321000Y-93084000D03*
X185321000Y-92584000D03*
X185321000Y-92084000D03*
X185321000Y-91584000D03*
%TD*%
D14*
%TO.C,SW4*%
X225735000Y-98783000D03*
X222335000Y-98783000D03*
D15*
X224035000Y-97133000D03*
%TD*%
D21*
%TO.C,D7*%
X218653000Y-95692000D03*
X218653000Y-93192000D03*
%TD*%
D14*
%TO.C,SW3*%
X225745000Y-93213000D03*
X222345000Y-93213000D03*
D15*
X224045000Y-91563000D03*
%TD*%
D10*
%TO.C,R9*%
X198829000Y-108469000D03*
X198829000Y-110119000D03*
%TD*%
D30*
%TO.C,U7*%
X208912000Y-106211000D03*
D31*
X209037000Y-106351000D03*
X209037000Y-107151000D03*
X209037000Y-107951000D03*
X209037000Y-108751000D03*
X209037000Y-109551000D03*
X208237000Y-109551000D03*
X207437000Y-109551000D03*
X207437000Y-108751000D03*
X207437000Y-107951000D03*
X207437000Y-107151000D03*
X207437000Y-106351000D03*
X208237000Y-106351000D03*
%TD*%
D32*
%TO.C,U4*%
X203376000Y-92297500D03*
D33*
X203876000Y-92297500D03*
X204376000Y-92297500D03*
D34*
X204876000Y-92297500D03*
D35*
X205038500Y-91635000D03*
D36*
X205038500Y-91135000D03*
D37*
X205038500Y-90635000D03*
D38*
X204876000Y-89972500D03*
D33*
X204376000Y-89972500D03*
X203876000Y-89972500D03*
D39*
X203376000Y-89972500D03*
D40*
X203213500Y-90635000D03*
D36*
X203213500Y-91135000D03*
D41*
X203213500Y-91635000D03*
%TD*%
D42*
%TO.C,D14*%
X222650000Y-83419000D03*
X219350000Y-83419000D03*
%TD*%
D17*
%TO.C,C4*%
X187668000Y-95683000D03*
X189218000Y-95683000D03*
%TD*%
D22*
%TO.C,R8*%
X198457000Y-93824000D03*
X200107000Y-93824000D03*
%TD*%
D26*
%TO.C,C5*%
X169999001Y-90793001D03*
X169999001Y-89243001D03*
%TD*%
D10*
%TO.C,R21*%
X205241000Y-115578000D03*
X205241000Y-117228000D03*
%TD*%
D17*
%TO.C,C14*%
X168191000Y-82932000D03*
X169741000Y-82932000D03*
%TD*%
%TO.C,C15*%
X168170000Y-84473000D03*
X169720000Y-84473000D03*
%TD*%
D10*
%TO.C,R24*%
X209050000Y-73599000D03*
X209050000Y-75249000D03*
%TD*%
%TO.C,R5*%
X200494000Y-108474000D03*
X200494000Y-110124000D03*
%TD*%
D21*
%TO.C,D10*%
X220121000Y-81227000D03*
X222621000Y-81227000D03*
%TD*%
D43*
%TO.C,U3*%
X180698000Y-95688000D03*
X180698000Y-96958000D03*
X180698000Y-98228000D03*
X180698000Y-99498000D03*
X180698000Y-100768000D03*
X180698000Y-102038000D03*
X180698000Y-103308000D03*
X180698000Y-104578000D03*
X185648000Y-104578000D03*
X185648000Y-103308000D03*
X185648000Y-102038000D03*
X185648000Y-100768000D03*
X185648000Y-99498000D03*
X185648000Y-98228000D03*
X185648000Y-96958000D03*
X185648000Y-95688000D03*
%TD*%
D21*
%TO.C,D11*%
X222566000Y-87978000D03*
X220066000Y-87978000D03*
%TD*%
D24*
%TO.C,C10*%
X207477000Y-102916000D03*
X207477000Y-104466000D03*
%TD*%
D10*
%TO.C,R18*%
X173144000Y-76010000D03*
X173144000Y-77660000D03*
%TD*%
D11*
%TO.C,D3*%
X198824000Y-113119000D03*
X198824000Y-111544000D03*
%TD*%
D42*
%TO.C,D15*%
X219346000Y-85808000D03*
X222646000Y-85808000D03*
%TD*%
D16*
%TO.C,R16*%
X203263000Y-117223000D03*
X203263000Y-115573000D03*
%TD*%
D21*
%TO.C,D8*%
X220161000Y-79189000D03*
X222661000Y-79189000D03*
%TD*%
D44*
%TO.C,U2*%
X174164401Y-89348001D03*
X174164401Y-88398000D03*
X174164401Y-87447999D03*
X171599001Y-87447999D03*
X171599001Y-88398000D03*
X171599001Y-89348001D03*
%TD*%
D45*
%TO.C,U6*%
X198787500Y-91799000D03*
X198787500Y-91299000D03*
X198787500Y-90799000D03*
X198787500Y-90299000D03*
X198237500Y-90299000D03*
X197737500Y-90299000D03*
X197187500Y-90299000D03*
X197187500Y-90799000D03*
X197187500Y-91299000D03*
X197187500Y-91799000D03*
X197737500Y-91799000D03*
X198237500Y-91799000D03*
%TD*%
D16*
%TO.C,R3*%
X177263000Y-107189000D03*
X177263000Y-105539000D03*
%TD*%
D22*
%TO.C,R26*%
X193534000Y-83760500D03*
X195184000Y-83760500D03*
%TD*%
D46*
%TO.C,F1*%
X166750000Y-77750000D03*
X166750000Y-70975000D03*
%TD*%
D42*
%TO.C,D13*%
X219398000Y-74626000D03*
X222698000Y-74626000D03*
%TD*%
D10*
%TO.C,R7*%
X175974001Y-109482000D03*
X175974001Y-111132000D03*
%TD*%
D42*
%TO.C,D12*%
X222698000Y-76997000D03*
X219398000Y-76997000D03*
%TD*%
D10*
%TO.C,R25*%
X209065000Y-76639000D03*
X209065000Y-78289000D03*
%TD*%
D21*
%TO.C,D6*%
X218704000Y-99790000D03*
X218704000Y-97290000D03*
%TD*%
D47*
%TO.C,C2*%
X173185000Y-85752000D03*
X171635000Y-85752000D03*
%TD*%
D10*
%TO.C,R23*%
X210580000Y-73619000D03*
X210580000Y-75269000D03*
%TD*%
D47*
%TO.C,C7*%
X179211000Y-93654000D03*
X177661000Y-93654000D03*
%TD*%
D28*
%TO.C,Q1*%
X199540500Y-115223000D03*
X199540500Y-117123000D03*
X201415500Y-116173000D03*
%TD*%
D27*
%TO.C,U10*%
X214599000Y-84820000D03*
X214599000Y-83550000D03*
X214599000Y-82280000D03*
X214599000Y-81010000D03*
X209649000Y-81010000D03*
X209649000Y-82280000D03*
X209649000Y-83550000D03*
X209649000Y-84820000D03*
%TD*%
D23*
%TO.C,R4*%
X160655000Y-90560000D03*
X159005000Y-90560000D03*
%TD*%
D14*
%TO.C,SW1*%
X176290000Y-119485000D03*
X172890000Y-119485000D03*
D15*
X174590000Y-117835000D03*
%TD*%
D24*
%TO.C,C8*%
X206675000Y-88513000D03*
X206675000Y-90063000D03*
%TD*%
D17*
%TO.C,C12*%
X168133000Y-79997000D03*
X169683000Y-79997000D03*
%TD*%
M02*
