%TF.GenerationSoftware,KiCad,Pcbnew,9.0.3*%
%TF.CreationDate,2026-07-21T21:09:42+02:00*%
%TF.ProjectId,Arduino_shield_2.0,41726475-696e-46f5-9f73-6869656c645f,B*%
%TF.SameCoordinates,Original*%
%TF.FileFunction,Drillmap*%
%TF.FilePolarity,Positive*%
%FSLAX45Y45*%
G04 Gerber Fmt 4.5, Leading zero omitted, Abs format (unit mm)*
G04 Created by KiCad (PCBNEW 9.0.3) date 2026-07-21 21:09:42*
%MOMM*%
%LPD*%
G01*
G04 APERTURE LIST*
%ADD10C,0.200000*%
G04 APERTURE END LIST*
D10*
X15185000Y-6838300D02*
X22802400Y-6838300D01*
X22802400Y-12237700D01*
X15185000Y-12237700D01*
X15185000Y-6838300D01*
X15435777Y-12559184D02*
X15435777Y-12359184D01*
X15435777Y-12359184D02*
X15483396Y-12359184D01*
X15483396Y-12359184D02*
X15511967Y-12368708D01*
X15511967Y-12368708D02*
X15531015Y-12387755D01*
X15531015Y-12387755D02*
X15540539Y-12406803D01*
X15540539Y-12406803D02*
X15550062Y-12444898D01*
X15550062Y-12444898D02*
X15550062Y-12473469D01*
X15550062Y-12473469D02*
X15540539Y-12511565D01*
X15540539Y-12511565D02*
X15531015Y-12530612D01*
X15531015Y-12530612D02*
X15511967Y-12549660D01*
X15511967Y-12549660D02*
X15483396Y-12559184D01*
X15483396Y-12559184D02*
X15435777Y-12559184D01*
X15635777Y-12559184D02*
X15635777Y-12425850D01*
X15635777Y-12463946D02*
X15645301Y-12444898D01*
X15645301Y-12444898D02*
X15654824Y-12435374D01*
X15654824Y-12435374D02*
X15673872Y-12425850D01*
X15673872Y-12425850D02*
X15692920Y-12425850D01*
X15759586Y-12559184D02*
X15759586Y-12425850D01*
X15759586Y-12359184D02*
X15750062Y-12368708D01*
X15750062Y-12368708D02*
X15759586Y-12378231D01*
X15759586Y-12378231D02*
X15769110Y-12368708D01*
X15769110Y-12368708D02*
X15759586Y-12359184D01*
X15759586Y-12359184D02*
X15759586Y-12378231D01*
X15883396Y-12559184D02*
X15864348Y-12549660D01*
X15864348Y-12549660D02*
X15854824Y-12530612D01*
X15854824Y-12530612D02*
X15854824Y-12359184D01*
X15988158Y-12559184D02*
X15969110Y-12549660D01*
X15969110Y-12549660D02*
X15959586Y-12530612D01*
X15959586Y-12530612D02*
X15959586Y-12359184D01*
X16216729Y-12559184D02*
X16216729Y-12359184D01*
X16216729Y-12359184D02*
X16283396Y-12502041D01*
X16283396Y-12502041D02*
X16350062Y-12359184D01*
X16350062Y-12359184D02*
X16350062Y-12559184D01*
X16531015Y-12559184D02*
X16531015Y-12454422D01*
X16531015Y-12454422D02*
X16521491Y-12435374D01*
X16521491Y-12435374D02*
X16502443Y-12425850D01*
X16502443Y-12425850D02*
X16464348Y-12425850D01*
X16464348Y-12425850D02*
X16445301Y-12435374D01*
X16531015Y-12549660D02*
X16511967Y-12559184D01*
X16511967Y-12559184D02*
X16464348Y-12559184D01*
X16464348Y-12559184D02*
X16445301Y-12549660D01*
X16445301Y-12549660D02*
X16435777Y-12530612D01*
X16435777Y-12530612D02*
X16435777Y-12511565D01*
X16435777Y-12511565D02*
X16445301Y-12492517D01*
X16445301Y-12492517D02*
X16464348Y-12482993D01*
X16464348Y-12482993D02*
X16511967Y-12482993D01*
X16511967Y-12482993D02*
X16531015Y-12473469D01*
X16626253Y-12425850D02*
X16626253Y-12625850D01*
X16626253Y-12435374D02*
X16645301Y-12425850D01*
X16645301Y-12425850D02*
X16683396Y-12425850D01*
X16683396Y-12425850D02*
X16702443Y-12435374D01*
X16702443Y-12435374D02*
X16711967Y-12444898D01*
X16711967Y-12444898D02*
X16721491Y-12463946D01*
X16721491Y-12463946D02*
X16721491Y-12521088D01*
X16721491Y-12521088D02*
X16711967Y-12540136D01*
X16711967Y-12540136D02*
X16702443Y-12549660D01*
X16702443Y-12549660D02*
X16683396Y-12559184D01*
X16683396Y-12559184D02*
X16645301Y-12559184D01*
X16645301Y-12559184D02*
X16626253Y-12549660D01*
X16807205Y-12540136D02*
X16816729Y-12549660D01*
X16816729Y-12549660D02*
X16807205Y-12559184D01*
X16807205Y-12559184D02*
X16797682Y-12549660D01*
X16797682Y-12549660D02*
X16807205Y-12540136D01*
X16807205Y-12540136D02*
X16807205Y-12559184D01*
X16807205Y-12435374D02*
X16816729Y-12444898D01*
X16816729Y-12444898D02*
X16807205Y-12454422D01*
X16807205Y-12454422D02*
X16797682Y-12444898D01*
X16797682Y-12444898D02*
X16807205Y-12435374D01*
X16807205Y-12435374D02*
X16807205Y-12454422D01*
M02*
